<mxfile host="app.diagrams.net" modified="2023-06-10T16:18:53.510Z" agent="Mozilla/5.0 (X11; Linux x86_64; rv:109.0) Gecko/20100101 Firefox/113.0" etag="lWDhq_JDcmN-poBtW8ge" version="21.3.8" type="device" pages="7">
  <diagram name="template" id="7v7yxeJaFux-eHjzLTKS">
    <mxGraphModel dx="2010" dy="1210" grid="1" gridSize="10" guides="1" tooltips="1" connect="1" arrows="1" fold="1" page="1" pageScale="1" pageWidth="3300" pageHeight="4681" math="0" shadow="0">
      <root>
        <mxCell id="0" />
        <mxCell id="1" parent="0" />
        <mxCell id="09Gbhok8QK3ON6eGTeo7-1" value="&lt;font size=&quot;1&quot;&gt;&lt;b style=&quot;font-size: 30px;&quot;&gt;λ&lt;/b&gt;&lt;/font&gt;" style="ellipse;whiteSpace=wrap;html=1;aspect=fixed;" parent="1" vertex="1">
          <mxGeometry x="1560" y="200" width="80" height="80" as="geometry" />
        </mxCell>
        <mxCell id="09Gbhok8QK3ON6eGTeo7-3" value="&lt;font size=&quot;1&quot;&gt;&lt;b style=&quot;font-size: 30px;&quot;&gt;λ&lt;/b&gt;&lt;/font&gt;" style="ellipse;whiteSpace=wrap;html=1;aspect=fixed;" parent="1" vertex="1">
          <mxGeometry x="1560" y="440" width="80" height="80" as="geometry" />
        </mxCell>
        <mxCell id="09Gbhok8QK3ON6eGTeo7-4" value="&lt;font size=&quot;1&quot;&gt;&lt;b style=&quot;font-size: 30px;&quot;&gt;λ&lt;/b&gt;&lt;/font&gt;" style="ellipse;whiteSpace=wrap;html=1;aspect=fixed;" parent="1" vertex="1">
          <mxGeometry x="1280" y="440" width="80" height="80" as="geometry" />
        </mxCell>
        <mxCell id="09Gbhok8QK3ON6eGTeo7-5" value="&lt;font size=&quot;1&quot;&gt;&lt;b style=&quot;font-size: 30px;&quot;&gt;λ&lt;/b&gt;&lt;/font&gt;" style="ellipse;whiteSpace=wrap;html=1;aspect=fixed;" parent="1" vertex="1">
          <mxGeometry x="1840" y="440" width="80" height="80" as="geometry" />
        </mxCell>
        <mxCell id="09Gbhok8QK3ON6eGTeo7-6" value="" style="endArrow=none;html=1;rounded=0;" parent="1" source="09Gbhok8QK3ON6eGTeo7-1" target="09Gbhok8QK3ON6eGTeo7-4" edge="1">
          <mxGeometry relative="1" as="geometry">
            <mxPoint x="1510" y="520" as="sourcePoint" />
            <mxPoint x="1670" y="520" as="targetPoint" />
          </mxGeometry>
        </mxCell>
        <mxCell id="09Gbhok8QK3ON6eGTeo7-7" value="&lt;font size=&quot;1&quot;&gt;&lt;b style=&quot;font-size: 30px;&quot;&gt;λ&lt;/b&gt;&lt;/font&gt;" style="ellipse;whiteSpace=wrap;html=1;aspect=fixed;" parent="1" vertex="1">
          <mxGeometry x="1040" y="640" width="80" height="80" as="geometry" />
        </mxCell>
        <mxCell id="09Gbhok8QK3ON6eGTeo7-8" value="&lt;font size=&quot;1&quot;&gt;&lt;b style=&quot;font-size: 30px;&quot;&gt;λ&lt;/b&gt;&lt;/font&gt;" style="ellipse;whiteSpace=wrap;html=1;aspect=fixed;" parent="1" vertex="1">
          <mxGeometry x="1280" y="640" width="80" height="80" as="geometry" />
        </mxCell>
        <mxCell id="09Gbhok8QK3ON6eGTeo7-9" value="&lt;font size=&quot;1&quot;&gt;&lt;b style=&quot;font-size: 30px;&quot;&gt;λ&lt;/b&gt;&lt;/font&gt;" style="ellipse;whiteSpace=wrap;html=1;aspect=fixed;" parent="1" vertex="1">
          <mxGeometry x="1660" y="640" width="80" height="80" as="geometry" />
        </mxCell>
        <mxCell id="09Gbhok8QK3ON6eGTeo7-10" value="&lt;font size=&quot;1&quot;&gt;&lt;b style=&quot;font-size: 30px;&quot;&gt;λ&lt;/b&gt;&lt;/font&gt;" style="ellipse;whiteSpace=wrap;html=1;aspect=fixed;" parent="1" vertex="1">
          <mxGeometry x="1460" y="640" width="80" height="80" as="geometry" />
        </mxCell>
        <mxCell id="09Gbhok8QK3ON6eGTeo7-11" value="&lt;font size=&quot;1&quot;&gt;&lt;b style=&quot;font-size: 30px;&quot;&gt;λ&lt;/b&gt;&lt;/font&gt;" style="ellipse;whiteSpace=wrap;html=1;aspect=fixed;" parent="1" vertex="1">
          <mxGeometry x="1840" y="640" width="80" height="80" as="geometry" />
        </mxCell>
        <mxCell id="09Gbhok8QK3ON6eGTeo7-12" value="&lt;font size=&quot;1&quot;&gt;&lt;b style=&quot;font-size: 30px;&quot;&gt;λ&lt;/b&gt;&lt;/font&gt;" style="ellipse;whiteSpace=wrap;html=1;aspect=fixed;" parent="1" vertex="1">
          <mxGeometry x="2080" y="640" width="80" height="80" as="geometry" />
        </mxCell>
        <mxCell id="09Gbhok8QK3ON6eGTeo7-13" value="" style="endArrow=none;html=1;rounded=0;" parent="1" source="09Gbhok8QK3ON6eGTeo7-1" target="09Gbhok8QK3ON6eGTeo7-5" edge="1">
          <mxGeometry relative="1" as="geometry">
            <mxPoint x="1580" y="276" as="sourcePoint" />
            <mxPoint x="1360" y="464" as="targetPoint" />
          </mxGeometry>
        </mxCell>
        <mxCell id="09Gbhok8QK3ON6eGTeo7-14" value="" style="endArrow=none;html=1;rounded=0;" parent="1" source="09Gbhok8QK3ON6eGTeo7-1" target="09Gbhok8QK3ON6eGTeo7-3" edge="1">
          <mxGeometry relative="1" as="geometry">
            <mxPoint x="1610" y="350" as="sourcePoint" />
            <mxPoint x="1830" y="538" as="targetPoint" />
          </mxGeometry>
        </mxCell>
        <mxCell id="09Gbhok8QK3ON6eGTeo7-15" value="" style="endArrow=none;html=1;rounded=0;" parent="1" source="09Gbhok8QK3ON6eGTeo7-3" target="09Gbhok8QK3ON6eGTeo7-9" edge="1">
          <mxGeometry relative="1" as="geometry">
            <mxPoint x="1750" y="470" as="sourcePoint" />
            <mxPoint x="1750" y="630" as="targetPoint" />
          </mxGeometry>
        </mxCell>
        <mxCell id="09Gbhok8QK3ON6eGTeo7-16" value="" style="endArrow=none;html=1;rounded=0;" parent="1" source="09Gbhok8QK3ON6eGTeo7-3" target="09Gbhok8QK3ON6eGTeo7-10" edge="1">
          <mxGeometry relative="1" as="geometry">
            <mxPoint x="1625" y="527" as="sourcePoint" />
            <mxPoint x="1675" y="653" as="targetPoint" />
          </mxGeometry>
        </mxCell>
        <mxCell id="09Gbhok8QK3ON6eGTeo7-17" value="" style="endArrow=none;html=1;rounded=0;" parent="1" source="09Gbhok8QK3ON6eGTeo7-5" target="09Gbhok8QK3ON6eGTeo7-11" edge="1">
          <mxGeometry relative="1" as="geometry">
            <mxPoint x="1740" y="514" as="sourcePoint" />
            <mxPoint x="1790" y="640" as="targetPoint" />
          </mxGeometry>
        </mxCell>
        <mxCell id="09Gbhok8QK3ON6eGTeo7-18" value="" style="endArrow=none;html=1;rounded=0;" parent="1" source="09Gbhok8QK3ON6eGTeo7-5" target="09Gbhok8QK3ON6eGTeo7-12" edge="1">
          <mxGeometry relative="1" as="geometry">
            <mxPoint x="1882" y="529" as="sourcePoint" />
            <mxPoint x="1858" y="651" as="targetPoint" />
          </mxGeometry>
        </mxCell>
        <mxCell id="09Gbhok8QK3ON6eGTeo7-19" value="" style="endArrow=none;html=1;rounded=0;" parent="1" source="09Gbhok8QK3ON6eGTeo7-4" target="09Gbhok8QK3ON6eGTeo7-8" edge="1">
          <mxGeometry relative="1" as="geometry">
            <mxPoint x="1510" y="452" as="sourcePoint" />
            <mxPoint x="1290" y="640" as="targetPoint" />
          </mxGeometry>
        </mxCell>
        <mxCell id="09Gbhok8QK3ON6eGTeo7-20" value="" style="endArrow=none;html=1;rounded=0;" parent="1" source="09Gbhok8QK3ON6eGTeo7-4" target="09Gbhok8QK3ON6eGTeo7-7" edge="1">
          <mxGeometry relative="1" as="geometry">
            <mxPoint x="1400" y="710" as="sourcePoint" />
            <mxPoint x="1180" y="898" as="targetPoint" />
          </mxGeometry>
        </mxCell>
        <mxCell id="09Gbhok8QK3ON6eGTeo7-45" value="&lt;font style=&quot;font-size: 30px;&quot; face=&quot;Helvetica&quot;&gt;A&lt;/font&gt;" style="text;strokeColor=none;fillColor=none;spacingLeft=4;spacingRight=4;overflow=hidden;rotatable=0;points=[[0,0.5],[1,0.5]];portConstraint=eastwest;fontSize=20;whiteSpace=wrap;html=1;fontFamily=Verdana;" parent="1" vertex="1">
          <mxGeometry x="1420" y="320" width="30" height="40" as="geometry" />
        </mxCell>
        <mxCell id="09Gbhok8QK3ON6eGTeo7-46" value="&lt;font style=&quot;font-size: 30px;&quot; face=&quot;Helvetica&quot;&gt;B&lt;/font&gt;" style="text;strokeColor=none;fillColor=none;spacingLeft=4;spacingRight=4;overflow=hidden;rotatable=0;points=[[0,0.5],[1,0.5]];portConstraint=eastwest;fontSize=20;whiteSpace=wrap;html=1;fontFamily=Verdana;" parent="1" vertex="1">
          <mxGeometry x="1560" y="320" width="30" height="40" as="geometry" />
        </mxCell>
        <mxCell id="09Gbhok8QK3ON6eGTeo7-47" value="&lt;font style=&quot;font-size: 30px;&quot; face=&quot;Helvetica&quot;&gt;C&lt;/font&gt;" style="text;strokeColor=none;fillColor=none;spacingLeft=4;spacingRight=4;overflow=hidden;rotatable=0;points=[[0,0.5],[1,0.5]];portConstraint=eastwest;fontSize=20;whiteSpace=wrap;html=1;fontFamily=Verdana;" parent="1" vertex="1">
          <mxGeometry x="1740" y="320" width="30" height="40" as="geometry" />
        </mxCell>
        <mxCell id="09Gbhok8QK3ON6eGTeo7-48" value="&lt;div style=&quot;font-size: 30px;&quot;&gt;A-B&lt;/div&gt;" style="text;strokeColor=none;fillColor=none;spacingLeft=4;spacingRight=4;overflow=hidden;rotatable=0;points=[[0,0.5],[1,0.5]];portConstraint=eastwest;fontSize=30;whiteSpace=wrap;html=1;fontFamily=Helvetica;" parent="1" vertex="1">
          <mxGeometry x="1120" y="560" width="70" height="40" as="geometry" />
        </mxCell>
        <mxCell id="09Gbhok8QK3ON6eGTeo7-49" value="&lt;div style=&quot;font-size: 30px;&quot;&gt;A-C&lt;/div&gt;" style="text;strokeColor=none;fillColor=none;spacingLeft=4;spacingRight=4;overflow=hidden;rotatable=0;points=[[0,0.5],[1,0.5]];portConstraint=eastwest;fontSize=30;whiteSpace=wrap;html=1;fontFamily=Helvetica;" parent="1" vertex="1">
          <mxGeometry x="1330" y="560" width="70" height="40" as="geometry" />
        </mxCell>
        <mxCell id="09Gbhok8QK3ON6eGTeo7-50" value="&lt;div style=&quot;font-size: 30px;&quot;&gt;B-A&lt;/div&gt;" style="text;strokeColor=none;fillColor=none;spacingLeft=4;spacingRight=4;overflow=hidden;rotatable=0;points=[[0,0.5],[1,0.5]];portConstraint=eastwest;fontSize=30;whiteSpace=wrap;html=1;fontFamily=Helvetica;" parent="1" vertex="1">
          <mxGeometry x="1480" y="560" width="70" height="40" as="geometry" />
        </mxCell>
        <mxCell id="09Gbhok8QK3ON6eGTeo7-51" value="&lt;div style=&quot;font-size: 30px;&quot;&gt;B-C&lt;/div&gt;" style="text;strokeColor=none;fillColor=none;spacingLeft=4;spacingRight=4;overflow=hidden;rotatable=0;points=[[0,0.5],[1,0.5]];portConstraint=eastwest;fontSize=30;whiteSpace=wrap;html=1;fontFamily=Helvetica;" parent="1" vertex="1">
          <mxGeometry x="1660" y="560" width="70" height="40" as="geometry" />
        </mxCell>
        <mxCell id="09Gbhok8QK3ON6eGTeo7-52" value="C-A" style="text;strokeColor=none;fillColor=none;spacingLeft=4;spacingRight=4;overflow=hidden;rotatable=0;points=[[0,0.5],[1,0.5]];portConstraint=eastwest;fontSize=30;whiteSpace=wrap;html=1;fontFamily=Helvetica;" parent="1" vertex="1">
          <mxGeometry x="1810" y="560" width="70" height="40" as="geometry" />
        </mxCell>
        <mxCell id="09Gbhok8QK3ON6eGTeo7-53" value="C-B" style="text;strokeColor=none;fillColor=none;spacingLeft=4;spacingRight=4;overflow=hidden;rotatable=0;points=[[0,0.5],[1,0.5]];portConstraint=eastwest;fontSize=30;whiteSpace=wrap;html=1;fontFamily=Helvetica;" parent="1" vertex="1">
          <mxGeometry x="2020" y="560" width="70" height="40" as="geometry" />
        </mxCell>
        <mxCell id="09Gbhok8QK3ON6eGTeo7-54" value="&lt;font style=&quot;font-size: 30px;&quot;&gt;&lt;b style=&quot;font-size: 30px;&quot;&gt;μ&lt;/b&gt;&lt;/font&gt;" style="ellipse;whiteSpace=wrap;html=1;aspect=fixed;fontSize=30;" parent="1" vertex="1">
          <mxGeometry x="1560" y="1000" width="80" height="80" as="geometry" />
        </mxCell>
        <mxCell id="09Gbhok8QK3ON6eGTeo7-55" value="&lt;font style=&quot;font-size: 30px;&quot;&gt;&lt;b style=&quot;font-size: 30px;&quot;&gt;λ&lt;/b&gt;&lt;/font&gt;" style="ellipse;whiteSpace=wrap;html=1;aspect=fixed;fontSize=30;" parent="1" vertex="1">
          <mxGeometry x="1560" y="1240" width="80" height="80" as="geometry" />
        </mxCell>
        <mxCell id="09Gbhok8QK3ON6eGTeo7-56" value="&lt;font style=&quot;font-size: 30px;&quot;&gt;&lt;b style=&quot;font-size: 30px;&quot;&gt;λ&lt;/b&gt;&lt;/font&gt;" style="ellipse;whiteSpace=wrap;html=1;aspect=fixed;fontSize=30;" parent="1" vertex="1">
          <mxGeometry x="1280" y="1240" width="80" height="80" as="geometry" />
        </mxCell>
        <mxCell id="09Gbhok8QK3ON6eGTeo7-57" value="&lt;font style=&quot;font-size: 30px;&quot;&gt;&lt;b style=&quot;font-size: 30px;&quot;&gt;λ&lt;/b&gt;&lt;/font&gt;" style="ellipse;whiteSpace=wrap;html=1;aspect=fixed;fontSize=30;" parent="1" vertex="1">
          <mxGeometry x="1840" y="1240" width="80" height="80" as="geometry" />
        </mxCell>
        <mxCell id="09Gbhok8QK3ON6eGTeo7-58" value="" style="endArrow=none;html=1;rounded=0;" parent="1" source="09Gbhok8QK3ON6eGTeo7-54" target="09Gbhok8QK3ON6eGTeo7-56" edge="1">
          <mxGeometry relative="1" as="geometry">
            <mxPoint x="1510" y="1320" as="sourcePoint" />
            <mxPoint x="1670" y="1320" as="targetPoint" />
          </mxGeometry>
        </mxCell>
        <mxCell id="09Gbhok8QK3ON6eGTeo7-59" value="&lt;font style=&quot;font-size: 30px;&quot;&gt;&lt;b style=&quot;font-size: 30px;&quot;&gt;λ&lt;/b&gt;&lt;/font&gt;" style="ellipse;whiteSpace=wrap;html=1;aspect=fixed;fontSize=30;" parent="1" vertex="1">
          <mxGeometry x="1040" y="1440" width="80" height="80" as="geometry" />
        </mxCell>
        <mxCell id="09Gbhok8QK3ON6eGTeo7-60" value="&lt;font style=&quot;font-size: 30px;&quot;&gt;&lt;b style=&quot;font-size: 30px;&quot;&gt;λ&lt;/b&gt;&lt;/font&gt;" style="ellipse;whiteSpace=wrap;html=1;aspect=fixed;fontSize=30;" parent="1" vertex="1">
          <mxGeometry x="1280" y="1440" width="80" height="80" as="geometry" />
        </mxCell>
        <mxCell id="09Gbhok8QK3ON6eGTeo7-61" value="&lt;font style=&quot;font-size: 30px;&quot;&gt;&lt;b style=&quot;font-size: 30px;&quot;&gt;λ&lt;/b&gt;&lt;/font&gt;" style="ellipse;whiteSpace=wrap;html=1;aspect=fixed;fontSize=30;" parent="1" vertex="1">
          <mxGeometry x="1660" y="1440" width="80" height="80" as="geometry" />
        </mxCell>
        <mxCell id="09Gbhok8QK3ON6eGTeo7-62" value="&lt;font style=&quot;font-size: 30px;&quot;&gt;&lt;b style=&quot;font-size: 30px;&quot;&gt;λ&lt;/b&gt;&lt;/font&gt;" style="ellipse;whiteSpace=wrap;html=1;aspect=fixed;fontSize=30;" parent="1" vertex="1">
          <mxGeometry x="1460" y="1440" width="80" height="80" as="geometry" />
        </mxCell>
        <mxCell id="09Gbhok8QK3ON6eGTeo7-63" value="&lt;font style=&quot;font-size: 30px;&quot;&gt;&lt;b style=&quot;font-size: 30px;&quot;&gt;λ&lt;/b&gt;&lt;/font&gt;" style="ellipse;whiteSpace=wrap;html=1;aspect=fixed;fontSize=30;" parent="1" vertex="1">
          <mxGeometry x="1840" y="1440" width="80" height="80" as="geometry" />
        </mxCell>
        <mxCell id="09Gbhok8QK3ON6eGTeo7-64" value="&lt;font style=&quot;font-size: 30px;&quot;&gt;&lt;b style=&quot;font-size: 30px;&quot;&gt;λ&lt;/b&gt;&lt;/font&gt;" style="ellipse;whiteSpace=wrap;html=1;aspect=fixed;fontSize=30;" parent="1" vertex="1">
          <mxGeometry x="2080" y="1440" width="80" height="80" as="geometry" />
        </mxCell>
        <mxCell id="09Gbhok8QK3ON6eGTeo7-65" value="" style="endArrow=none;html=1;rounded=0;" parent="1" source="09Gbhok8QK3ON6eGTeo7-54" target="09Gbhok8QK3ON6eGTeo7-57" edge="1">
          <mxGeometry relative="1" as="geometry">
            <mxPoint x="1580" y="1076" as="sourcePoint" />
            <mxPoint x="1360" y="1264" as="targetPoint" />
          </mxGeometry>
        </mxCell>
        <mxCell id="09Gbhok8QK3ON6eGTeo7-66" value="" style="endArrow=none;html=1;rounded=0;" parent="1" source="09Gbhok8QK3ON6eGTeo7-54" target="09Gbhok8QK3ON6eGTeo7-55" edge="1">
          <mxGeometry relative="1" as="geometry">
            <mxPoint x="1610" y="1150" as="sourcePoint" />
            <mxPoint x="1830" y="1338" as="targetPoint" />
          </mxGeometry>
        </mxCell>
        <mxCell id="09Gbhok8QK3ON6eGTeo7-67" value="" style="endArrow=none;html=1;rounded=0;" parent="1" source="09Gbhok8QK3ON6eGTeo7-55" target="09Gbhok8QK3ON6eGTeo7-61" edge="1">
          <mxGeometry relative="1" as="geometry">
            <mxPoint x="1750" y="1270" as="sourcePoint" />
            <mxPoint x="1750" y="1430" as="targetPoint" />
          </mxGeometry>
        </mxCell>
        <mxCell id="09Gbhok8QK3ON6eGTeo7-68" value="" style="endArrow=none;html=1;rounded=0;" parent="1" source="09Gbhok8QK3ON6eGTeo7-55" target="09Gbhok8QK3ON6eGTeo7-62" edge="1">
          <mxGeometry relative="1" as="geometry">
            <mxPoint x="1625" y="1327" as="sourcePoint" />
            <mxPoint x="1675" y="1453" as="targetPoint" />
          </mxGeometry>
        </mxCell>
        <mxCell id="09Gbhok8QK3ON6eGTeo7-69" value="" style="endArrow=none;html=1;rounded=0;" parent="1" source="09Gbhok8QK3ON6eGTeo7-57" target="09Gbhok8QK3ON6eGTeo7-63" edge="1">
          <mxGeometry relative="1" as="geometry">
            <mxPoint x="1740" y="1314" as="sourcePoint" />
            <mxPoint x="1790" y="1440" as="targetPoint" />
          </mxGeometry>
        </mxCell>
        <mxCell id="09Gbhok8QK3ON6eGTeo7-70" value="" style="endArrow=none;html=1;rounded=0;" parent="1" source="09Gbhok8QK3ON6eGTeo7-57" target="09Gbhok8QK3ON6eGTeo7-64" edge="1">
          <mxGeometry relative="1" as="geometry">
            <mxPoint x="1882" y="1329" as="sourcePoint" />
            <mxPoint x="1858" y="1451" as="targetPoint" />
          </mxGeometry>
        </mxCell>
        <mxCell id="09Gbhok8QK3ON6eGTeo7-71" value="" style="endArrow=none;html=1;rounded=0;" parent="1" source="09Gbhok8QK3ON6eGTeo7-56" target="09Gbhok8QK3ON6eGTeo7-60" edge="1">
          <mxGeometry relative="1" as="geometry">
            <mxPoint x="1510" y="1252" as="sourcePoint" />
            <mxPoint x="1290" y="1440" as="targetPoint" />
          </mxGeometry>
        </mxCell>
        <mxCell id="09Gbhok8QK3ON6eGTeo7-72" value="" style="endArrow=none;html=1;rounded=0;" parent="1" source="09Gbhok8QK3ON6eGTeo7-56" target="09Gbhok8QK3ON6eGTeo7-59" edge="1">
          <mxGeometry relative="1" as="geometry">
            <mxPoint x="1400" y="1510" as="sourcePoint" />
            <mxPoint x="1180" y="1698" as="targetPoint" />
          </mxGeometry>
        </mxCell>
        <mxCell id="09Gbhok8QK3ON6eGTeo7-73" value="&lt;font style=&quot;font-size: 30px;&quot; face=&quot;Helvetica&quot;&gt;A&lt;/font&gt;" style="text;strokeColor=none;fillColor=none;spacingLeft=4;spacingRight=4;overflow=hidden;rotatable=0;points=[[0,0.5],[1,0.5]];portConstraint=eastwest;fontSize=20;whiteSpace=wrap;html=1;fontFamily=Verdana;" parent="1" vertex="1">
          <mxGeometry x="1420" y="1120" width="30" height="40" as="geometry" />
        </mxCell>
        <mxCell id="09Gbhok8QK3ON6eGTeo7-74" value="&lt;font style=&quot;font-size: 30px;&quot; face=&quot;Helvetica&quot;&gt;B&lt;/font&gt;" style="text;strokeColor=none;fillColor=none;spacingLeft=4;spacingRight=4;overflow=hidden;rotatable=0;points=[[0,0.5],[1,0.5]];portConstraint=eastwest;fontSize=20;whiteSpace=wrap;html=1;fontFamily=Verdana;" parent="1" vertex="1">
          <mxGeometry x="1560" y="1120" width="30" height="40" as="geometry" />
        </mxCell>
        <mxCell id="09Gbhok8QK3ON6eGTeo7-75" value="&lt;font style=&quot;font-size: 30px;&quot; face=&quot;Helvetica&quot;&gt;C&lt;/font&gt;" style="text;strokeColor=none;fillColor=none;spacingLeft=4;spacingRight=4;overflow=hidden;rotatable=0;points=[[0,0.5],[1,0.5]];portConstraint=eastwest;fontSize=20;whiteSpace=wrap;html=1;fontFamily=Verdana;" parent="1" vertex="1">
          <mxGeometry x="1740" y="1120" width="30" height="40" as="geometry" />
        </mxCell>
        <mxCell id="09Gbhok8QK3ON6eGTeo7-76" value="&lt;div style=&quot;font-size: 30px;&quot;&gt;A-B&lt;/div&gt;" style="text;strokeColor=none;fillColor=none;spacingLeft=4;spacingRight=4;overflow=hidden;rotatable=0;points=[[0,0.5],[1,0.5]];portConstraint=eastwest;fontSize=30;whiteSpace=wrap;html=1;fontFamily=Helvetica;" parent="1" vertex="1">
          <mxGeometry x="1120" y="1360" width="70" height="40" as="geometry" />
        </mxCell>
        <mxCell id="09Gbhok8QK3ON6eGTeo7-77" value="&lt;div style=&quot;font-size: 30px;&quot;&gt;A-C&lt;/div&gt;" style="text;strokeColor=none;fillColor=none;spacingLeft=4;spacingRight=4;overflow=hidden;rotatable=0;points=[[0,0.5],[1,0.5]];portConstraint=eastwest;fontSize=30;whiteSpace=wrap;html=1;fontFamily=Helvetica;" parent="1" vertex="1">
          <mxGeometry x="1330" y="1360" width="70" height="40" as="geometry" />
        </mxCell>
        <mxCell id="09Gbhok8QK3ON6eGTeo7-78" value="&lt;div style=&quot;font-size: 30px;&quot;&gt;B-A&lt;/div&gt;" style="text;strokeColor=none;fillColor=none;spacingLeft=4;spacingRight=4;overflow=hidden;rotatable=0;points=[[0,0.5],[1,0.5]];portConstraint=eastwest;fontSize=30;whiteSpace=wrap;html=1;fontFamily=Helvetica;" parent="1" vertex="1">
          <mxGeometry x="1480" y="1360" width="70" height="40" as="geometry" />
        </mxCell>
        <mxCell id="09Gbhok8QK3ON6eGTeo7-79" value="&lt;div style=&quot;font-size: 30px;&quot;&gt;B-C&lt;/div&gt;" style="text;strokeColor=none;fillColor=none;spacingLeft=4;spacingRight=4;overflow=hidden;rotatable=0;points=[[0,0.5],[1,0.5]];portConstraint=eastwest;fontSize=30;whiteSpace=wrap;html=1;fontFamily=Helvetica;" parent="1" vertex="1">
          <mxGeometry x="1660" y="1360" width="70" height="40" as="geometry" />
        </mxCell>
        <mxCell id="09Gbhok8QK3ON6eGTeo7-80" value="C-A" style="text;strokeColor=none;fillColor=none;spacingLeft=4;spacingRight=4;overflow=hidden;rotatable=0;points=[[0,0.5],[1,0.5]];portConstraint=eastwest;fontSize=30;whiteSpace=wrap;html=1;fontFamily=Helvetica;" parent="1" vertex="1">
          <mxGeometry x="1810" y="1360" width="70" height="40" as="geometry" />
        </mxCell>
        <mxCell id="09Gbhok8QK3ON6eGTeo7-81" value="C-B" style="text;strokeColor=none;fillColor=none;spacingLeft=4;spacingRight=4;overflow=hidden;rotatable=0;points=[[0,0.5],[1,0.5]];portConstraint=eastwest;fontSize=30;whiteSpace=wrap;html=1;fontFamily=Helvetica;" parent="1" vertex="1">
          <mxGeometry x="2020" y="1360" width="70" height="40" as="geometry" />
        </mxCell>
        <mxCell id="09Gbhok8QK3ON6eGTeo7-82" value="Albero di A" style="rounded=1;whiteSpace=wrap;html=1;fontSize=20;" parent="1" vertex="1">
          <mxGeometry x="1400" y="160" width="120" height="80" as="geometry" />
        </mxCell>
        <mxCell id="09Gbhok8QK3ON6eGTeo7-83" value="Albero di B" style="rounded=1;whiteSpace=wrap;html=1;fontSize=20;" parent="1" vertex="1">
          <mxGeometry x="1400" y="960" width="120" height="80" as="geometry" />
        </mxCell>
      </root>
    </mxGraphModel>
  </diagram>
  <diagram id="AJ2ktKhePK9K5qZG839B" name="A1B1">
    <mxGraphModel dx="2558" dy="1540" grid="1" gridSize="10" guides="1" tooltips="1" connect="1" arrows="1" fold="1" page="1" pageScale="1" pageWidth="3300" pageHeight="4681" math="0" shadow="0">
      <root>
        <mxCell id="0" />
        <mxCell id="1" parent="0" />
        <mxCell id="WjJyEJjKlcYm38bgFgXj-1" value="&lt;font style=&quot;font-size: 30px;&quot;&gt;&lt;b style=&quot;font-size: 30px;&quot;&gt;λ&lt;/b&gt;&lt;/font&gt;" style="ellipse;whiteSpace=wrap;html=1;aspect=fixed;fontSize=30;" parent="1" vertex="1">
          <mxGeometry x="1560" y="200" width="80" height="80" as="geometry" />
        </mxCell>
        <mxCell id="WjJyEJjKlcYm38bgFgXj-2" value="&lt;b&gt;1&lt;/b&gt;" style="ellipse;whiteSpace=wrap;html=1;aspect=fixed;fontSize=30;" parent="1" vertex="1">
          <mxGeometry x="1560" y="440" width="80" height="80" as="geometry" />
        </mxCell>
        <mxCell id="WjJyEJjKlcYm38bgFgXj-3" value="&lt;b&gt;1&lt;/b&gt;" style="ellipse;whiteSpace=wrap;html=1;aspect=fixed;fontSize=30;" parent="1" vertex="1">
          <mxGeometry x="1280" y="440" width="80" height="80" as="geometry" />
        </mxCell>
        <mxCell id="WjJyEJjKlcYm38bgFgXj-4" value="&lt;b&gt;x&lt;/b&gt;" style="ellipse;whiteSpace=wrap;html=1;aspect=fixed;fontSize=30;" parent="1" vertex="1">
          <mxGeometry x="1840" y="440" width="80" height="80" as="geometry" />
        </mxCell>
        <mxCell id="WjJyEJjKlcYm38bgFgXj-5" value="" style="endArrow=none;html=1;rounded=0;" parent="1" source="WjJyEJjKlcYm38bgFgXj-1" target="WjJyEJjKlcYm38bgFgXj-3" edge="1">
          <mxGeometry relative="1" as="geometry">
            <mxPoint x="1510" y="520" as="sourcePoint" />
            <mxPoint x="1670" y="520" as="targetPoint" />
          </mxGeometry>
        </mxCell>
        <mxCell id="WjJyEJjKlcYm38bgFgXj-6" value="&lt;b&gt;1&lt;/b&gt;" style="ellipse;whiteSpace=wrap;html=1;aspect=fixed;fontSize=30;" parent="1" vertex="1">
          <mxGeometry x="1040" y="640" width="80" height="80" as="geometry" />
        </mxCell>
        <mxCell id="WjJyEJjKlcYm38bgFgXj-7" value="&lt;b&gt;1&lt;/b&gt;" style="ellipse;whiteSpace=wrap;html=1;aspect=fixed;fontSize=30;" parent="1" vertex="1">
          <mxGeometry x="1280" y="640" width="80" height="80" as="geometry" />
        </mxCell>
        <mxCell id="WjJyEJjKlcYm38bgFgXj-8" value="&lt;b&gt;y&lt;/b&gt;" style="ellipse;whiteSpace=wrap;html=1;aspect=fixed;fontSize=30;" parent="1" vertex="1">
          <mxGeometry x="1660" y="640" width="80" height="80" as="geometry" />
        </mxCell>
        <mxCell id="WjJyEJjKlcYm38bgFgXj-9" value="&lt;b&gt;1&lt;/b&gt;" style="ellipse;whiteSpace=wrap;html=1;aspect=fixed;fontSize=30;" parent="1" vertex="1">
          <mxGeometry x="1460" y="640" width="80" height="80" as="geometry" />
        </mxCell>
        <mxCell id="WjJyEJjKlcYm38bgFgXj-10" value="&lt;b&gt;x&lt;/b&gt;" style="ellipse;whiteSpace=wrap;html=1;aspect=fixed;fontSize=30;" parent="1" vertex="1">
          <mxGeometry x="1840" y="640" width="80" height="80" as="geometry" />
        </mxCell>
        <mxCell id="WjJyEJjKlcYm38bgFgXj-11" value="&lt;b&gt;x&lt;/b&gt;" style="ellipse;whiteSpace=wrap;html=1;aspect=fixed;fontSize=30;" parent="1" vertex="1">
          <mxGeometry x="2080" y="640" width="80" height="80" as="geometry" />
        </mxCell>
        <mxCell id="WjJyEJjKlcYm38bgFgXj-12" value="" style="endArrow=none;html=1;rounded=0;" parent="1" source="WjJyEJjKlcYm38bgFgXj-1" target="WjJyEJjKlcYm38bgFgXj-4" edge="1">
          <mxGeometry relative="1" as="geometry">
            <mxPoint x="1580" y="276" as="sourcePoint" />
            <mxPoint x="1360" y="464" as="targetPoint" />
          </mxGeometry>
        </mxCell>
        <mxCell id="WjJyEJjKlcYm38bgFgXj-13" value="" style="endArrow=none;html=1;rounded=0;" parent="1" source="WjJyEJjKlcYm38bgFgXj-1" target="WjJyEJjKlcYm38bgFgXj-2" edge="1">
          <mxGeometry relative="1" as="geometry">
            <mxPoint x="1610" y="350" as="sourcePoint" />
            <mxPoint x="1830" y="538" as="targetPoint" />
          </mxGeometry>
        </mxCell>
        <mxCell id="WjJyEJjKlcYm38bgFgXj-14" value="" style="endArrow=none;html=1;rounded=0;" parent="1" source="WjJyEJjKlcYm38bgFgXj-2" target="WjJyEJjKlcYm38bgFgXj-8" edge="1">
          <mxGeometry relative="1" as="geometry">
            <mxPoint x="1750" y="470" as="sourcePoint" />
            <mxPoint x="1750" y="630" as="targetPoint" />
          </mxGeometry>
        </mxCell>
        <mxCell id="WjJyEJjKlcYm38bgFgXj-15" value="" style="endArrow=none;html=1;rounded=0;" parent="1" source="WjJyEJjKlcYm38bgFgXj-2" target="WjJyEJjKlcYm38bgFgXj-9" edge="1">
          <mxGeometry relative="1" as="geometry">
            <mxPoint x="1625" y="527" as="sourcePoint" />
            <mxPoint x="1675" y="653" as="targetPoint" />
          </mxGeometry>
        </mxCell>
        <mxCell id="WjJyEJjKlcYm38bgFgXj-16" value="" style="endArrow=none;html=1;rounded=0;" parent="1" source="WjJyEJjKlcYm38bgFgXj-4" target="WjJyEJjKlcYm38bgFgXj-10" edge="1">
          <mxGeometry relative="1" as="geometry">
            <mxPoint x="1740" y="514" as="sourcePoint" />
            <mxPoint x="1790" y="640" as="targetPoint" />
          </mxGeometry>
        </mxCell>
        <mxCell id="WjJyEJjKlcYm38bgFgXj-17" value="" style="endArrow=none;html=1;rounded=0;" parent="1" source="WjJyEJjKlcYm38bgFgXj-4" target="WjJyEJjKlcYm38bgFgXj-11" edge="1">
          <mxGeometry relative="1" as="geometry">
            <mxPoint x="1882" y="529" as="sourcePoint" />
            <mxPoint x="1858" y="651" as="targetPoint" />
          </mxGeometry>
        </mxCell>
        <mxCell id="WjJyEJjKlcYm38bgFgXj-18" value="" style="endArrow=none;html=1;rounded=0;" parent="1" source="WjJyEJjKlcYm38bgFgXj-3" target="WjJyEJjKlcYm38bgFgXj-7" edge="1">
          <mxGeometry relative="1" as="geometry">
            <mxPoint x="1510" y="452" as="sourcePoint" />
            <mxPoint x="1290" y="640" as="targetPoint" />
          </mxGeometry>
        </mxCell>
        <mxCell id="WjJyEJjKlcYm38bgFgXj-19" value="" style="endArrow=none;html=1;rounded=0;" parent="1" source="WjJyEJjKlcYm38bgFgXj-3" target="WjJyEJjKlcYm38bgFgXj-6" edge="1">
          <mxGeometry relative="1" as="geometry">
            <mxPoint x="1400" y="710" as="sourcePoint" />
            <mxPoint x="1180" y="898" as="targetPoint" />
          </mxGeometry>
        </mxCell>
        <mxCell id="WjJyEJjKlcYm38bgFgXj-20" value="&lt;font style=&quot;font-size: 30px;&quot; face=&quot;Helvetica&quot;&gt;A&lt;/font&gt;" style="text;strokeColor=none;fillColor=none;spacingLeft=4;spacingRight=4;overflow=hidden;rotatable=0;points=[[0,0.5],[1,0.5]];portConstraint=eastwest;fontSize=20;whiteSpace=wrap;html=1;fontFamily=Verdana;" parent="1" vertex="1">
          <mxGeometry x="1420" y="320" width="30" height="40" as="geometry" />
        </mxCell>
        <mxCell id="WjJyEJjKlcYm38bgFgXj-21" value="&lt;font style=&quot;font-size: 30px;&quot; face=&quot;Helvetica&quot;&gt;B&lt;/font&gt;" style="text;strokeColor=none;fillColor=none;spacingLeft=4;spacingRight=4;overflow=hidden;rotatable=0;points=[[0,0.5],[1,0.5]];portConstraint=eastwest;fontSize=20;whiteSpace=wrap;html=1;fontFamily=Verdana;" parent="1" vertex="1">
          <mxGeometry x="1560" y="320" width="30" height="40" as="geometry" />
        </mxCell>
        <mxCell id="WjJyEJjKlcYm38bgFgXj-22" value="&lt;font style=&quot;font-size: 30px;&quot; face=&quot;Helvetica&quot;&gt;C&lt;/font&gt;" style="text;strokeColor=none;fillColor=none;spacingLeft=4;spacingRight=4;overflow=hidden;rotatable=0;points=[[0,0.5],[1,0.5]];portConstraint=eastwest;fontSize=20;whiteSpace=wrap;html=1;fontFamily=Verdana;" parent="1" vertex="1">
          <mxGeometry x="1740" y="320" width="30" height="40" as="geometry" />
        </mxCell>
        <mxCell id="WjJyEJjKlcYm38bgFgXj-23" value="&lt;div style=&quot;font-size: 30px;&quot;&gt;A-B&lt;/div&gt;" style="text;strokeColor=none;fillColor=none;spacingLeft=4;spacingRight=4;overflow=hidden;rotatable=0;points=[[0,0.5],[1,0.5]];portConstraint=eastwest;fontSize=30;whiteSpace=wrap;html=1;fontFamily=Helvetica;" parent="1" vertex="1">
          <mxGeometry x="1120" y="560" width="70" height="40" as="geometry" />
        </mxCell>
        <mxCell id="WjJyEJjKlcYm38bgFgXj-24" value="&lt;div style=&quot;font-size: 30px;&quot;&gt;A-C&lt;/div&gt;" style="text;strokeColor=none;fillColor=none;spacingLeft=4;spacingRight=4;overflow=hidden;rotatable=0;points=[[0,0.5],[1,0.5]];portConstraint=eastwest;fontSize=30;whiteSpace=wrap;html=1;fontFamily=Helvetica;" parent="1" vertex="1">
          <mxGeometry x="1330" y="560" width="70" height="40" as="geometry" />
        </mxCell>
        <mxCell id="WjJyEJjKlcYm38bgFgXj-25" value="&lt;div style=&quot;font-size: 30px;&quot;&gt;B-A&lt;/div&gt;" style="text;strokeColor=none;fillColor=none;spacingLeft=4;spacingRight=4;overflow=hidden;rotatable=0;points=[[0,0.5],[1,0.5]];portConstraint=eastwest;fontSize=30;whiteSpace=wrap;html=1;fontFamily=Helvetica;" parent="1" vertex="1">
          <mxGeometry x="1480" y="560" width="70" height="40" as="geometry" />
        </mxCell>
        <mxCell id="WjJyEJjKlcYm38bgFgXj-26" value="&lt;div style=&quot;font-size: 30px;&quot;&gt;B-C&lt;/div&gt;" style="text;strokeColor=none;fillColor=none;spacingLeft=4;spacingRight=4;overflow=hidden;rotatable=0;points=[[0,0.5],[1,0.5]];portConstraint=eastwest;fontSize=30;whiteSpace=wrap;html=1;fontFamily=Helvetica;" parent="1" vertex="1">
          <mxGeometry x="1660" y="560" width="70" height="40" as="geometry" />
        </mxCell>
        <mxCell id="WjJyEJjKlcYm38bgFgXj-27" value="C-A" style="text;strokeColor=none;fillColor=none;spacingLeft=4;spacingRight=4;overflow=hidden;rotatable=0;points=[[0,0.5],[1,0.5]];portConstraint=eastwest;fontSize=30;whiteSpace=wrap;html=1;fontFamily=Helvetica;" parent="1" vertex="1">
          <mxGeometry x="1810" y="560" width="70" height="40" as="geometry" />
        </mxCell>
        <mxCell id="WjJyEJjKlcYm38bgFgXj-28" value="C-B" style="text;strokeColor=none;fillColor=none;spacingLeft=4;spacingRight=4;overflow=hidden;rotatable=0;points=[[0,0.5],[1,0.5]];portConstraint=eastwest;fontSize=30;whiteSpace=wrap;html=1;fontFamily=Helvetica;" parent="1" vertex="1">
          <mxGeometry x="2020" y="560" width="70" height="40" as="geometry" />
        </mxCell>
        <mxCell id="WjJyEJjKlcYm38bgFgXj-29" value="&lt;font style=&quot;font-size: 30px;&quot;&gt;&lt;b style=&quot;font-size: 30px;&quot;&gt;μ&lt;/b&gt;&lt;/font&gt;" style="ellipse;whiteSpace=wrap;html=1;aspect=fixed;fontSize=30;" parent="1" vertex="1">
          <mxGeometry x="1560" y="840" width="80" height="80" as="geometry" />
        </mxCell>
        <mxCell id="WjJyEJjKlcYm38bgFgXj-30" value="&lt;b&gt;1&lt;/b&gt;" style="ellipse;whiteSpace=wrap;html=1;aspect=fixed;fontSize=30;" parent="1" vertex="1">
          <mxGeometry x="1560" y="1080" width="80" height="80" as="geometry" />
        </mxCell>
        <mxCell id="WjJyEJjKlcYm38bgFgXj-31" value="&lt;b&gt;1&lt;/b&gt;" style="ellipse;whiteSpace=wrap;html=1;aspect=fixed;fontSize=30;" parent="1" vertex="1">
          <mxGeometry x="1280" y="1080" width="80" height="80" as="geometry" />
        </mxCell>
        <mxCell id="WjJyEJjKlcYm38bgFgXj-32" value="&lt;b&gt;x&lt;/b&gt;" style="ellipse;whiteSpace=wrap;html=1;aspect=fixed;fontSize=30;" parent="1" vertex="1">
          <mxGeometry x="1840" y="1080" width="80" height="80" as="geometry" />
        </mxCell>
        <mxCell id="WjJyEJjKlcYm38bgFgXj-33" value="" style="endArrow=none;html=1;rounded=0;" parent="1" source="WjJyEJjKlcYm38bgFgXj-29" target="WjJyEJjKlcYm38bgFgXj-31" edge="1">
          <mxGeometry relative="1" as="geometry">
            <mxPoint x="1510" y="1160" as="sourcePoint" />
            <mxPoint x="1670" y="1160" as="targetPoint" />
          </mxGeometry>
        </mxCell>
        <mxCell id="WjJyEJjKlcYm38bgFgXj-34" value="&lt;b&gt;1&lt;/b&gt;" style="ellipse;whiteSpace=wrap;html=1;aspect=fixed;fontSize=30;" parent="1" vertex="1">
          <mxGeometry x="1040" y="1280" width="80" height="80" as="geometry" />
        </mxCell>
        <mxCell id="WjJyEJjKlcYm38bgFgXj-35" value="&lt;b&gt;z&lt;/b&gt;" style="ellipse;whiteSpace=wrap;html=1;aspect=fixed;fontSize=30;" parent="1" vertex="1">
          <mxGeometry x="1280" y="1280" width="80" height="80" as="geometry" />
        </mxCell>
        <mxCell id="WjJyEJjKlcYm38bgFgXj-36" value="&lt;b&gt;1&lt;/b&gt;" style="ellipse;whiteSpace=wrap;html=1;aspect=fixed;fontSize=30;" parent="1" vertex="1">
          <mxGeometry x="1660" y="1280" width="80" height="80" as="geometry" />
        </mxCell>
        <mxCell id="WjJyEJjKlcYm38bgFgXj-37" value="&lt;b&gt;1&lt;/b&gt;" style="ellipse;whiteSpace=wrap;html=1;aspect=fixed;fontSize=30;" parent="1" vertex="1">
          <mxGeometry x="1460" y="1280" width="80" height="80" as="geometry" />
        </mxCell>
        <mxCell id="WjJyEJjKlcYm38bgFgXj-38" value="&lt;b&gt;x&lt;/b&gt;" style="ellipse;whiteSpace=wrap;html=1;aspect=fixed;fontSize=30;" parent="1" vertex="1">
          <mxGeometry x="1840" y="1280" width="80" height="80" as="geometry" />
        </mxCell>
        <mxCell id="WjJyEJjKlcYm38bgFgXj-39" value="&lt;b&gt;x&lt;/b&gt;" style="ellipse;whiteSpace=wrap;html=1;aspect=fixed;fontSize=30;" parent="1" vertex="1">
          <mxGeometry x="2080" y="1280" width="80" height="80" as="geometry" />
        </mxCell>
        <mxCell id="WjJyEJjKlcYm38bgFgXj-40" value="" style="endArrow=none;html=1;rounded=0;" parent="1" source="WjJyEJjKlcYm38bgFgXj-29" target="WjJyEJjKlcYm38bgFgXj-32" edge="1">
          <mxGeometry relative="1" as="geometry">
            <mxPoint x="1580" y="916" as="sourcePoint" />
            <mxPoint x="1360" y="1104" as="targetPoint" />
          </mxGeometry>
        </mxCell>
        <mxCell id="WjJyEJjKlcYm38bgFgXj-41" value="" style="endArrow=none;html=1;rounded=0;" parent="1" source="WjJyEJjKlcYm38bgFgXj-29" target="WjJyEJjKlcYm38bgFgXj-30" edge="1">
          <mxGeometry relative="1" as="geometry">
            <mxPoint x="1610" y="990" as="sourcePoint" />
            <mxPoint x="1830" y="1178" as="targetPoint" />
          </mxGeometry>
        </mxCell>
        <mxCell id="WjJyEJjKlcYm38bgFgXj-42" value="" style="endArrow=none;html=1;rounded=0;" parent="1" source="WjJyEJjKlcYm38bgFgXj-30" target="WjJyEJjKlcYm38bgFgXj-36" edge="1">
          <mxGeometry relative="1" as="geometry">
            <mxPoint x="1750" y="1110" as="sourcePoint" />
            <mxPoint x="1750" y="1270" as="targetPoint" />
          </mxGeometry>
        </mxCell>
        <mxCell id="WjJyEJjKlcYm38bgFgXj-43" value="" style="endArrow=none;html=1;rounded=0;" parent="1" source="WjJyEJjKlcYm38bgFgXj-30" target="WjJyEJjKlcYm38bgFgXj-37" edge="1">
          <mxGeometry relative="1" as="geometry">
            <mxPoint x="1625" y="1167" as="sourcePoint" />
            <mxPoint x="1675" y="1293" as="targetPoint" />
          </mxGeometry>
        </mxCell>
        <mxCell id="WjJyEJjKlcYm38bgFgXj-44" value="" style="endArrow=none;html=1;rounded=0;" parent="1" source="WjJyEJjKlcYm38bgFgXj-32" target="WjJyEJjKlcYm38bgFgXj-38" edge="1">
          <mxGeometry relative="1" as="geometry">
            <mxPoint x="1740" y="1154" as="sourcePoint" />
            <mxPoint x="1790" y="1280" as="targetPoint" />
          </mxGeometry>
        </mxCell>
        <mxCell id="WjJyEJjKlcYm38bgFgXj-45" value="" style="endArrow=none;html=1;rounded=0;" parent="1" source="WjJyEJjKlcYm38bgFgXj-32" target="WjJyEJjKlcYm38bgFgXj-39" edge="1">
          <mxGeometry relative="1" as="geometry">
            <mxPoint x="1882" y="1169" as="sourcePoint" />
            <mxPoint x="1858" y="1291" as="targetPoint" />
          </mxGeometry>
        </mxCell>
        <mxCell id="WjJyEJjKlcYm38bgFgXj-46" value="" style="endArrow=none;html=1;rounded=0;" parent="1" source="WjJyEJjKlcYm38bgFgXj-31" target="WjJyEJjKlcYm38bgFgXj-35" edge="1">
          <mxGeometry relative="1" as="geometry">
            <mxPoint x="1510" y="1092" as="sourcePoint" />
            <mxPoint x="1290" y="1280" as="targetPoint" />
          </mxGeometry>
        </mxCell>
        <mxCell id="WjJyEJjKlcYm38bgFgXj-47" value="" style="endArrow=none;html=1;rounded=0;" parent="1" source="WjJyEJjKlcYm38bgFgXj-31" target="WjJyEJjKlcYm38bgFgXj-34" edge="1">
          <mxGeometry relative="1" as="geometry">
            <mxPoint x="1400" y="1350" as="sourcePoint" />
            <mxPoint x="1180" y="1538" as="targetPoint" />
          </mxGeometry>
        </mxCell>
        <mxCell id="WjJyEJjKlcYm38bgFgXj-48" value="&lt;font style=&quot;font-size: 30px;&quot; face=&quot;Helvetica&quot;&gt;A&lt;/font&gt;" style="text;strokeColor=none;fillColor=none;spacingLeft=4;spacingRight=4;overflow=hidden;rotatable=0;points=[[0,0.5],[1,0.5]];portConstraint=eastwest;fontSize=20;whiteSpace=wrap;html=1;fontFamily=Verdana;" parent="1" vertex="1">
          <mxGeometry x="1420" y="960" width="30" height="40" as="geometry" />
        </mxCell>
        <mxCell id="WjJyEJjKlcYm38bgFgXj-49" value="&lt;font style=&quot;font-size: 30px;&quot; face=&quot;Helvetica&quot;&gt;B&lt;/font&gt;" style="text;strokeColor=none;fillColor=none;spacingLeft=4;spacingRight=4;overflow=hidden;rotatable=0;points=[[0,0.5],[1,0.5]];portConstraint=eastwest;fontSize=20;whiteSpace=wrap;html=1;fontFamily=Verdana;" parent="1" vertex="1">
          <mxGeometry x="1560" y="960" width="30" height="40" as="geometry" />
        </mxCell>
        <mxCell id="WjJyEJjKlcYm38bgFgXj-50" value="&lt;font style=&quot;font-size: 30px;&quot; face=&quot;Helvetica&quot;&gt;C&lt;/font&gt;" style="text;strokeColor=none;fillColor=none;spacingLeft=4;spacingRight=4;overflow=hidden;rotatable=0;points=[[0,0.5],[1,0.5]];portConstraint=eastwest;fontSize=20;whiteSpace=wrap;html=1;fontFamily=Verdana;" parent="1" vertex="1">
          <mxGeometry x="1740" y="960" width="30" height="40" as="geometry" />
        </mxCell>
        <mxCell id="WjJyEJjKlcYm38bgFgXj-51" value="&lt;div style=&quot;font-size: 30px;&quot;&gt;A-B&lt;/div&gt;" style="text;strokeColor=none;fillColor=none;spacingLeft=4;spacingRight=4;overflow=hidden;rotatable=0;points=[[0,0.5],[1,0.5]];portConstraint=eastwest;fontSize=30;whiteSpace=wrap;html=1;fontFamily=Helvetica;" parent="1" vertex="1">
          <mxGeometry x="1120" y="1200" width="70" height="40" as="geometry" />
        </mxCell>
        <mxCell id="WjJyEJjKlcYm38bgFgXj-52" value="&lt;div style=&quot;font-size: 30px;&quot;&gt;A-C&lt;/div&gt;" style="text;strokeColor=none;fillColor=none;spacingLeft=4;spacingRight=4;overflow=hidden;rotatable=0;points=[[0,0.5],[1,0.5]];portConstraint=eastwest;fontSize=30;whiteSpace=wrap;html=1;fontFamily=Helvetica;" parent="1" vertex="1">
          <mxGeometry x="1330" y="1200" width="70" height="40" as="geometry" />
        </mxCell>
        <mxCell id="WjJyEJjKlcYm38bgFgXj-53" value="&lt;div style=&quot;font-size: 30px;&quot;&gt;B-A&lt;/div&gt;" style="text;strokeColor=none;fillColor=none;spacingLeft=4;spacingRight=4;overflow=hidden;rotatable=0;points=[[0,0.5],[1,0.5]];portConstraint=eastwest;fontSize=30;whiteSpace=wrap;html=1;fontFamily=Helvetica;" parent="1" vertex="1">
          <mxGeometry x="1480" y="1200" width="70" height="40" as="geometry" />
        </mxCell>
        <mxCell id="WjJyEJjKlcYm38bgFgXj-54" value="&lt;div style=&quot;font-size: 30px;&quot;&gt;B-C&lt;/div&gt;" style="text;strokeColor=none;fillColor=none;spacingLeft=4;spacingRight=4;overflow=hidden;rotatable=0;points=[[0,0.5],[1,0.5]];portConstraint=eastwest;fontSize=30;whiteSpace=wrap;html=1;fontFamily=Helvetica;" parent="1" vertex="1">
          <mxGeometry x="1660" y="1200" width="70" height="40" as="geometry" />
        </mxCell>
        <mxCell id="WjJyEJjKlcYm38bgFgXj-55" value="C-A" style="text;strokeColor=none;fillColor=none;spacingLeft=4;spacingRight=4;overflow=hidden;rotatable=0;points=[[0,0.5],[1,0.5]];portConstraint=eastwest;fontSize=30;whiteSpace=wrap;html=1;fontFamily=Helvetica;" parent="1" vertex="1">
          <mxGeometry x="1810" y="1200" width="70" height="40" as="geometry" />
        </mxCell>
        <mxCell id="WjJyEJjKlcYm38bgFgXj-56" value="C-B" style="text;strokeColor=none;fillColor=none;spacingLeft=4;spacingRight=4;overflow=hidden;rotatable=0;points=[[0,0.5],[1,0.5]];portConstraint=eastwest;fontSize=30;whiteSpace=wrap;html=1;fontFamily=Helvetica;" parent="1" vertex="1">
          <mxGeometry x="2020" y="1200" width="70" height="40" as="geometry" />
        </mxCell>
        <mxCell id="WjJyEJjKlcYm38bgFgXj-57" value="Albero di A" style="rounded=1;whiteSpace=wrap;html=1;fontSize=20;" parent="1" vertex="1">
          <mxGeometry x="1400" y="160" width="120" height="80" as="geometry" />
        </mxCell>
        <mxCell id="WjJyEJjKlcYm38bgFgXj-58" value="Albero di B" style="rounded=1;whiteSpace=wrap;html=1;fontSize=20;" parent="1" vertex="1">
          <mxGeometry x="1400" y="800" width="120" height="80" as="geometry" />
        </mxCell>
      </root>
    </mxGraphModel>
  </diagram>
  <diagram name="A1B1-CALC" id="XWf429SbY_KayQsJHzFN">
    <mxGraphModel dx="2558" dy="1540" grid="1" gridSize="10" guides="1" tooltips="1" connect="1" arrows="1" fold="1" page="1" pageScale="1" pageWidth="3300" pageHeight="4681" math="0" shadow="0">
      <root>
        <mxCell id="Lkh9YMwwo8p-KndQxdbB-0" />
        <mxCell id="Lkh9YMwwo8p-KndQxdbB-1" parent="Lkh9YMwwo8p-KndQxdbB-0" />
        <mxCell id="Lkh9YMwwo8p-KndQxdbB-2" value="&lt;b&gt;?&lt;/b&gt;" style="ellipse;whiteSpace=wrap;html=1;aspect=fixed;fontSize=30;" parent="Lkh9YMwwo8p-KndQxdbB-1" vertex="1">
          <mxGeometry x="1560" y="200" width="80" height="80" as="geometry" />
        </mxCell>
        <mxCell id="Lkh9YMwwo8p-KndQxdbB-3" value="&lt;b&gt;?&lt;/b&gt;" style="ellipse;whiteSpace=wrap;html=1;aspect=fixed;fontSize=30;" parent="Lkh9YMwwo8p-KndQxdbB-1" vertex="1">
          <mxGeometry x="1560" y="440" width="80" height="80" as="geometry" />
        </mxCell>
        <mxCell id="Lkh9YMwwo8p-KndQxdbB-4" value="&lt;b&gt;1&lt;/b&gt;" style="ellipse;whiteSpace=wrap;html=1;aspect=fixed;fontSize=30;" parent="Lkh9YMwwo8p-KndQxdbB-1" vertex="1">
          <mxGeometry x="1280" y="440" width="80" height="80" as="geometry" />
        </mxCell>
        <mxCell id="Lkh9YMwwo8p-KndQxdbB-5" value="&lt;b&gt;x&lt;/b&gt;" style="ellipse;whiteSpace=wrap;html=1;aspect=fixed;fontSize=30;" parent="Lkh9YMwwo8p-KndQxdbB-1" vertex="1">
          <mxGeometry x="1840" y="440" width="80" height="80" as="geometry" />
        </mxCell>
        <mxCell id="Lkh9YMwwo8p-KndQxdbB-6" value="" style="endArrow=none;html=1;rounded=0;" parent="Lkh9YMwwo8p-KndQxdbB-1" source="Lkh9YMwwo8p-KndQxdbB-2" target="Lkh9YMwwo8p-KndQxdbB-4" edge="1">
          <mxGeometry relative="1" as="geometry">
            <mxPoint x="1510" y="520" as="sourcePoint" />
            <mxPoint x="1670" y="520" as="targetPoint" />
          </mxGeometry>
        </mxCell>
        <mxCell id="Lkh9YMwwo8p-KndQxdbB-7" value="&lt;b&gt;1&lt;/b&gt;" style="ellipse;whiteSpace=wrap;html=1;aspect=fixed;fontSize=30;" parent="Lkh9YMwwo8p-KndQxdbB-1" vertex="1">
          <mxGeometry x="1040" y="640" width="80" height="80" as="geometry" />
        </mxCell>
        <mxCell id="Lkh9YMwwo8p-KndQxdbB-8" value="&lt;b&gt;1&lt;/b&gt;" style="ellipse;whiteSpace=wrap;html=1;aspect=fixed;fontSize=30;" parent="Lkh9YMwwo8p-KndQxdbB-1" vertex="1">
          <mxGeometry x="1280" y="640" width="80" height="80" as="geometry" />
        </mxCell>
        <mxCell id="Lkh9YMwwo8p-KndQxdbB-9" value="&lt;b&gt;y&lt;/b&gt;" style="ellipse;whiteSpace=wrap;html=1;aspect=fixed;fontSize=30;" parent="Lkh9YMwwo8p-KndQxdbB-1" vertex="1">
          <mxGeometry x="1660" y="640" width="80" height="80" as="geometry" />
        </mxCell>
        <mxCell id="Lkh9YMwwo8p-KndQxdbB-10" value="&lt;b&gt;1&lt;/b&gt;" style="ellipse;whiteSpace=wrap;html=1;aspect=fixed;fontSize=30;" parent="Lkh9YMwwo8p-KndQxdbB-1" vertex="1">
          <mxGeometry x="1460" y="640" width="80" height="80" as="geometry" />
        </mxCell>
        <mxCell id="Lkh9YMwwo8p-KndQxdbB-11" value="&lt;b&gt;x&lt;/b&gt;" style="ellipse;whiteSpace=wrap;html=1;aspect=fixed;fontSize=30;" parent="Lkh9YMwwo8p-KndQxdbB-1" vertex="1">
          <mxGeometry x="1840" y="640" width="80" height="80" as="geometry" />
        </mxCell>
        <mxCell id="Lkh9YMwwo8p-KndQxdbB-12" value="&lt;b&gt;x&lt;/b&gt;" style="ellipse;whiteSpace=wrap;html=1;aspect=fixed;fontSize=30;" parent="Lkh9YMwwo8p-KndQxdbB-1" vertex="1">
          <mxGeometry x="2080" y="640" width="80" height="80" as="geometry" />
        </mxCell>
        <mxCell id="Lkh9YMwwo8p-KndQxdbB-13" value="" style="endArrow=none;html=1;rounded=0;" parent="Lkh9YMwwo8p-KndQxdbB-1" source="Lkh9YMwwo8p-KndQxdbB-2" target="Lkh9YMwwo8p-KndQxdbB-5" edge="1">
          <mxGeometry relative="1" as="geometry">
            <mxPoint x="1580" y="276" as="sourcePoint" />
            <mxPoint x="1360" y="464" as="targetPoint" />
          </mxGeometry>
        </mxCell>
        <mxCell id="Lkh9YMwwo8p-KndQxdbB-14" value="" style="endArrow=none;html=1;rounded=0;" parent="Lkh9YMwwo8p-KndQxdbB-1" source="Lkh9YMwwo8p-KndQxdbB-2" target="Lkh9YMwwo8p-KndQxdbB-3" edge="1">
          <mxGeometry relative="1" as="geometry">
            <mxPoint x="1610" y="350" as="sourcePoint" />
            <mxPoint x="1830" y="538" as="targetPoint" />
          </mxGeometry>
        </mxCell>
        <mxCell id="Lkh9YMwwo8p-KndQxdbB-15" value="" style="endArrow=none;html=1;rounded=0;" parent="Lkh9YMwwo8p-KndQxdbB-1" source="Lkh9YMwwo8p-KndQxdbB-3" target="Lkh9YMwwo8p-KndQxdbB-9" edge="1">
          <mxGeometry relative="1" as="geometry">
            <mxPoint x="1750" y="470" as="sourcePoint" />
            <mxPoint x="1750" y="630" as="targetPoint" />
          </mxGeometry>
        </mxCell>
        <mxCell id="Lkh9YMwwo8p-KndQxdbB-16" value="" style="endArrow=none;html=1;rounded=0;" parent="Lkh9YMwwo8p-KndQxdbB-1" source="Lkh9YMwwo8p-KndQxdbB-3" target="Lkh9YMwwo8p-KndQxdbB-10" edge="1">
          <mxGeometry relative="1" as="geometry">
            <mxPoint x="1625" y="527" as="sourcePoint" />
            <mxPoint x="1675" y="653" as="targetPoint" />
          </mxGeometry>
        </mxCell>
        <mxCell id="Lkh9YMwwo8p-KndQxdbB-17" value="" style="endArrow=none;html=1;rounded=0;" parent="Lkh9YMwwo8p-KndQxdbB-1" source="Lkh9YMwwo8p-KndQxdbB-5" target="Lkh9YMwwo8p-KndQxdbB-11" edge="1">
          <mxGeometry relative="1" as="geometry">
            <mxPoint x="1740" y="514" as="sourcePoint" />
            <mxPoint x="1790" y="640" as="targetPoint" />
          </mxGeometry>
        </mxCell>
        <mxCell id="Lkh9YMwwo8p-KndQxdbB-18" value="" style="endArrow=none;html=1;rounded=0;" parent="Lkh9YMwwo8p-KndQxdbB-1" source="Lkh9YMwwo8p-KndQxdbB-5" target="Lkh9YMwwo8p-KndQxdbB-12" edge="1">
          <mxGeometry relative="1" as="geometry">
            <mxPoint x="1882" y="529" as="sourcePoint" />
            <mxPoint x="1858" y="651" as="targetPoint" />
          </mxGeometry>
        </mxCell>
        <mxCell id="Lkh9YMwwo8p-KndQxdbB-19" value="" style="endArrow=none;html=1;rounded=0;" parent="Lkh9YMwwo8p-KndQxdbB-1" source="Lkh9YMwwo8p-KndQxdbB-4" target="Lkh9YMwwo8p-KndQxdbB-8" edge="1">
          <mxGeometry relative="1" as="geometry">
            <mxPoint x="1510" y="452" as="sourcePoint" />
            <mxPoint x="1290" y="640" as="targetPoint" />
          </mxGeometry>
        </mxCell>
        <mxCell id="Lkh9YMwwo8p-KndQxdbB-20" value="" style="endArrow=none;html=1;rounded=0;" parent="Lkh9YMwwo8p-KndQxdbB-1" source="Lkh9YMwwo8p-KndQxdbB-4" target="Lkh9YMwwo8p-KndQxdbB-7" edge="1">
          <mxGeometry relative="1" as="geometry">
            <mxPoint x="1400" y="710" as="sourcePoint" />
            <mxPoint x="1180" y="898" as="targetPoint" />
          </mxGeometry>
        </mxCell>
        <mxCell id="Lkh9YMwwo8p-KndQxdbB-21" value="&lt;font style=&quot;font-size: 30px;&quot; face=&quot;Helvetica&quot;&gt;A&lt;/font&gt;" style="text;strokeColor=none;fillColor=none;spacingLeft=4;spacingRight=4;overflow=hidden;rotatable=0;points=[[0,0.5],[1,0.5]];portConstraint=eastwest;fontSize=20;whiteSpace=wrap;html=1;fontFamily=Verdana;" parent="Lkh9YMwwo8p-KndQxdbB-1" vertex="1">
          <mxGeometry x="1420" y="320" width="30" height="40" as="geometry" />
        </mxCell>
        <mxCell id="Lkh9YMwwo8p-KndQxdbB-22" value="&lt;font style=&quot;font-size: 30px;&quot; face=&quot;Helvetica&quot;&gt;B&lt;/font&gt;" style="text;strokeColor=none;fillColor=none;spacingLeft=4;spacingRight=4;overflow=hidden;rotatable=0;points=[[0,0.5],[1,0.5]];portConstraint=eastwest;fontSize=20;whiteSpace=wrap;html=1;fontFamily=Verdana;" parent="Lkh9YMwwo8p-KndQxdbB-1" vertex="1">
          <mxGeometry x="1560" y="320" width="30" height="40" as="geometry" />
        </mxCell>
        <mxCell id="Lkh9YMwwo8p-KndQxdbB-23" value="&lt;font style=&quot;font-size: 30px;&quot; face=&quot;Helvetica&quot;&gt;C&lt;/font&gt;" style="text;strokeColor=none;fillColor=none;spacingLeft=4;spacingRight=4;overflow=hidden;rotatable=0;points=[[0,0.5],[1,0.5]];portConstraint=eastwest;fontSize=20;whiteSpace=wrap;html=1;fontFamily=Verdana;" parent="Lkh9YMwwo8p-KndQxdbB-1" vertex="1">
          <mxGeometry x="1740" y="320" width="30" height="40" as="geometry" />
        </mxCell>
        <mxCell id="Lkh9YMwwo8p-KndQxdbB-24" value="&lt;div style=&quot;font-size: 30px;&quot;&gt;A-B&lt;/div&gt;" style="text;strokeColor=none;fillColor=none;spacingLeft=4;spacingRight=4;overflow=hidden;rotatable=0;points=[[0,0.5],[1,0.5]];portConstraint=eastwest;fontSize=30;whiteSpace=wrap;html=1;fontFamily=Helvetica;" parent="Lkh9YMwwo8p-KndQxdbB-1" vertex="1">
          <mxGeometry x="1120" y="560" width="70" height="40" as="geometry" />
        </mxCell>
        <mxCell id="Lkh9YMwwo8p-KndQxdbB-25" value="&lt;div style=&quot;font-size: 30px;&quot;&gt;A-C&lt;/div&gt;" style="text;strokeColor=none;fillColor=none;spacingLeft=4;spacingRight=4;overflow=hidden;rotatable=0;points=[[0,0.5],[1,0.5]];portConstraint=eastwest;fontSize=30;whiteSpace=wrap;html=1;fontFamily=Helvetica;" parent="Lkh9YMwwo8p-KndQxdbB-1" vertex="1">
          <mxGeometry x="1330" y="560" width="70" height="40" as="geometry" />
        </mxCell>
        <mxCell id="Lkh9YMwwo8p-KndQxdbB-26" value="&lt;div style=&quot;font-size: 30px;&quot;&gt;B-A&lt;/div&gt;" style="text;strokeColor=none;fillColor=none;spacingLeft=4;spacingRight=4;overflow=hidden;rotatable=0;points=[[0,0.5],[1,0.5]];portConstraint=eastwest;fontSize=30;whiteSpace=wrap;html=1;fontFamily=Helvetica;" parent="Lkh9YMwwo8p-KndQxdbB-1" vertex="1">
          <mxGeometry x="1480" y="560" width="70" height="40" as="geometry" />
        </mxCell>
        <mxCell id="Lkh9YMwwo8p-KndQxdbB-27" value="&lt;div style=&quot;font-size: 30px;&quot;&gt;B-C&lt;/div&gt;" style="text;strokeColor=none;fillColor=none;spacingLeft=4;spacingRight=4;overflow=hidden;rotatable=0;points=[[0,0.5],[1,0.5]];portConstraint=eastwest;fontSize=30;whiteSpace=wrap;html=1;fontFamily=Helvetica;" parent="Lkh9YMwwo8p-KndQxdbB-1" vertex="1">
          <mxGeometry x="1660" y="560" width="70" height="40" as="geometry" />
        </mxCell>
        <mxCell id="Lkh9YMwwo8p-KndQxdbB-28" value="C-A" style="text;strokeColor=none;fillColor=none;spacingLeft=4;spacingRight=4;overflow=hidden;rotatable=0;points=[[0,0.5],[1,0.5]];portConstraint=eastwest;fontSize=30;whiteSpace=wrap;html=1;fontFamily=Helvetica;" parent="Lkh9YMwwo8p-KndQxdbB-1" vertex="1">
          <mxGeometry x="1810" y="560" width="70" height="40" as="geometry" />
        </mxCell>
        <mxCell id="Lkh9YMwwo8p-KndQxdbB-29" value="C-B" style="text;strokeColor=none;fillColor=none;spacingLeft=4;spacingRight=4;overflow=hidden;rotatable=0;points=[[0,0.5],[1,0.5]];portConstraint=eastwest;fontSize=30;whiteSpace=wrap;html=1;fontFamily=Helvetica;" parent="Lkh9YMwwo8p-KndQxdbB-1" vertex="1">
          <mxGeometry x="2020" y="560" width="70" height="40" as="geometry" />
        </mxCell>
        <mxCell id="Lkh9YMwwo8p-KndQxdbB-30" value="&lt;b&gt;?&lt;/b&gt;" style="ellipse;whiteSpace=wrap;html=1;aspect=fixed;fontSize=30;" parent="Lkh9YMwwo8p-KndQxdbB-1" vertex="1">
          <mxGeometry x="1560" y="840" width="80" height="80" as="geometry" />
        </mxCell>
        <mxCell id="Lkh9YMwwo8p-KndQxdbB-31" value="&lt;b&gt;1&lt;/b&gt;" style="ellipse;whiteSpace=wrap;html=1;aspect=fixed;fontSize=30;" parent="Lkh9YMwwo8p-KndQxdbB-1" vertex="1">
          <mxGeometry x="1560" y="1080" width="80" height="80" as="geometry" />
        </mxCell>
        <mxCell id="Lkh9YMwwo8p-KndQxdbB-32" value="&lt;b&gt;?&lt;/b&gt;" style="ellipse;whiteSpace=wrap;html=1;aspect=fixed;fontSize=30;" parent="Lkh9YMwwo8p-KndQxdbB-1" vertex="1">
          <mxGeometry x="1280" y="1080" width="80" height="80" as="geometry" />
        </mxCell>
        <mxCell id="Lkh9YMwwo8p-KndQxdbB-33" value="&lt;b&gt;x&lt;/b&gt;" style="ellipse;whiteSpace=wrap;html=1;aspect=fixed;fontSize=30;" parent="Lkh9YMwwo8p-KndQxdbB-1" vertex="1">
          <mxGeometry x="1840" y="1080" width="80" height="80" as="geometry" />
        </mxCell>
        <mxCell id="Lkh9YMwwo8p-KndQxdbB-34" value="" style="endArrow=none;html=1;rounded=0;" parent="Lkh9YMwwo8p-KndQxdbB-1" source="Lkh9YMwwo8p-KndQxdbB-30" target="Lkh9YMwwo8p-KndQxdbB-32" edge="1">
          <mxGeometry relative="1" as="geometry">
            <mxPoint x="1510" y="1160" as="sourcePoint" />
            <mxPoint x="1670" y="1160" as="targetPoint" />
          </mxGeometry>
        </mxCell>
        <mxCell id="Lkh9YMwwo8p-KndQxdbB-35" value="&lt;b&gt;1&lt;/b&gt;" style="ellipse;whiteSpace=wrap;html=1;aspect=fixed;fontSize=30;" parent="Lkh9YMwwo8p-KndQxdbB-1" vertex="1">
          <mxGeometry x="1040" y="1280" width="80" height="80" as="geometry" />
        </mxCell>
        <mxCell id="Lkh9YMwwo8p-KndQxdbB-36" value="&lt;b&gt;z&lt;/b&gt;" style="ellipse;whiteSpace=wrap;html=1;aspect=fixed;fontSize=30;" parent="Lkh9YMwwo8p-KndQxdbB-1" vertex="1">
          <mxGeometry x="1280" y="1280" width="80" height="80" as="geometry" />
        </mxCell>
        <mxCell id="Lkh9YMwwo8p-KndQxdbB-37" value="&lt;b&gt;1&lt;/b&gt;" style="ellipse;whiteSpace=wrap;html=1;aspect=fixed;fontSize=30;" parent="Lkh9YMwwo8p-KndQxdbB-1" vertex="1">
          <mxGeometry x="1660" y="1280" width="80" height="80" as="geometry" />
        </mxCell>
        <mxCell id="Lkh9YMwwo8p-KndQxdbB-38" value="&lt;b&gt;1&lt;/b&gt;" style="ellipse;whiteSpace=wrap;html=1;aspect=fixed;fontSize=30;" parent="Lkh9YMwwo8p-KndQxdbB-1" vertex="1">
          <mxGeometry x="1460" y="1280" width="80" height="80" as="geometry" />
        </mxCell>
        <mxCell id="Lkh9YMwwo8p-KndQxdbB-39" value="&lt;b&gt;x&lt;/b&gt;" style="ellipse;whiteSpace=wrap;html=1;aspect=fixed;fontSize=30;" parent="Lkh9YMwwo8p-KndQxdbB-1" vertex="1">
          <mxGeometry x="1840" y="1280" width="80" height="80" as="geometry" />
        </mxCell>
        <mxCell id="Lkh9YMwwo8p-KndQxdbB-40" value="&lt;b&gt;x&lt;/b&gt;" style="ellipse;whiteSpace=wrap;html=1;aspect=fixed;fontSize=30;" parent="Lkh9YMwwo8p-KndQxdbB-1" vertex="1">
          <mxGeometry x="2080" y="1280" width="80" height="80" as="geometry" />
        </mxCell>
        <mxCell id="Lkh9YMwwo8p-KndQxdbB-41" value="" style="endArrow=none;html=1;rounded=0;" parent="Lkh9YMwwo8p-KndQxdbB-1" source="Lkh9YMwwo8p-KndQxdbB-30" target="Lkh9YMwwo8p-KndQxdbB-33" edge="1">
          <mxGeometry relative="1" as="geometry">
            <mxPoint x="1580" y="916" as="sourcePoint" />
            <mxPoint x="1360" y="1104" as="targetPoint" />
          </mxGeometry>
        </mxCell>
        <mxCell id="Lkh9YMwwo8p-KndQxdbB-42" value="" style="endArrow=none;html=1;rounded=0;" parent="Lkh9YMwwo8p-KndQxdbB-1" source="Lkh9YMwwo8p-KndQxdbB-30" target="Lkh9YMwwo8p-KndQxdbB-31" edge="1">
          <mxGeometry relative="1" as="geometry">
            <mxPoint x="1610" y="990" as="sourcePoint" />
            <mxPoint x="1830" y="1178" as="targetPoint" />
          </mxGeometry>
        </mxCell>
        <mxCell id="Lkh9YMwwo8p-KndQxdbB-43" value="" style="endArrow=none;html=1;rounded=0;" parent="Lkh9YMwwo8p-KndQxdbB-1" source="Lkh9YMwwo8p-KndQxdbB-31" target="Lkh9YMwwo8p-KndQxdbB-37" edge="1">
          <mxGeometry relative="1" as="geometry">
            <mxPoint x="1750" y="1110" as="sourcePoint" />
            <mxPoint x="1750" y="1270" as="targetPoint" />
          </mxGeometry>
        </mxCell>
        <mxCell id="Lkh9YMwwo8p-KndQxdbB-44" value="" style="endArrow=none;html=1;rounded=0;" parent="Lkh9YMwwo8p-KndQxdbB-1" source="Lkh9YMwwo8p-KndQxdbB-31" target="Lkh9YMwwo8p-KndQxdbB-38" edge="1">
          <mxGeometry relative="1" as="geometry">
            <mxPoint x="1625" y="1167" as="sourcePoint" />
            <mxPoint x="1675" y="1293" as="targetPoint" />
          </mxGeometry>
        </mxCell>
        <mxCell id="Lkh9YMwwo8p-KndQxdbB-45" value="" style="endArrow=none;html=1;rounded=0;" parent="Lkh9YMwwo8p-KndQxdbB-1" source="Lkh9YMwwo8p-KndQxdbB-33" target="Lkh9YMwwo8p-KndQxdbB-39" edge="1">
          <mxGeometry relative="1" as="geometry">
            <mxPoint x="1740" y="1154" as="sourcePoint" />
            <mxPoint x="1790" y="1280" as="targetPoint" />
          </mxGeometry>
        </mxCell>
        <mxCell id="Lkh9YMwwo8p-KndQxdbB-46" value="" style="endArrow=none;html=1;rounded=0;" parent="Lkh9YMwwo8p-KndQxdbB-1" source="Lkh9YMwwo8p-KndQxdbB-33" target="Lkh9YMwwo8p-KndQxdbB-40" edge="1">
          <mxGeometry relative="1" as="geometry">
            <mxPoint x="1882" y="1169" as="sourcePoint" />
            <mxPoint x="1858" y="1291" as="targetPoint" />
          </mxGeometry>
        </mxCell>
        <mxCell id="Lkh9YMwwo8p-KndQxdbB-47" value="" style="endArrow=none;html=1;rounded=0;" parent="Lkh9YMwwo8p-KndQxdbB-1" source="Lkh9YMwwo8p-KndQxdbB-32" target="Lkh9YMwwo8p-KndQxdbB-36" edge="1">
          <mxGeometry relative="1" as="geometry">
            <mxPoint x="1510" y="1092" as="sourcePoint" />
            <mxPoint x="1290" y="1280" as="targetPoint" />
          </mxGeometry>
        </mxCell>
        <mxCell id="Lkh9YMwwo8p-KndQxdbB-48" value="" style="endArrow=none;html=1;rounded=0;" parent="Lkh9YMwwo8p-KndQxdbB-1" source="Lkh9YMwwo8p-KndQxdbB-32" target="Lkh9YMwwo8p-KndQxdbB-35" edge="1">
          <mxGeometry relative="1" as="geometry">
            <mxPoint x="1400" y="1350" as="sourcePoint" />
            <mxPoint x="1180" y="1538" as="targetPoint" />
          </mxGeometry>
        </mxCell>
        <mxCell id="Lkh9YMwwo8p-KndQxdbB-49" value="&lt;font style=&quot;font-size: 30px;&quot; face=&quot;Helvetica&quot;&gt;A&lt;/font&gt;" style="text;strokeColor=none;fillColor=none;spacingLeft=4;spacingRight=4;overflow=hidden;rotatable=0;points=[[0,0.5],[1,0.5]];portConstraint=eastwest;fontSize=20;whiteSpace=wrap;html=1;fontFamily=Verdana;" parent="Lkh9YMwwo8p-KndQxdbB-1" vertex="1">
          <mxGeometry x="1420" y="960" width="30" height="40" as="geometry" />
        </mxCell>
        <mxCell id="Lkh9YMwwo8p-KndQxdbB-50" value="&lt;font style=&quot;font-size: 30px;&quot; face=&quot;Helvetica&quot;&gt;B&lt;/font&gt;" style="text;strokeColor=none;fillColor=none;spacingLeft=4;spacingRight=4;overflow=hidden;rotatable=0;points=[[0,0.5],[1,0.5]];portConstraint=eastwest;fontSize=20;whiteSpace=wrap;html=1;fontFamily=Verdana;" parent="Lkh9YMwwo8p-KndQxdbB-1" vertex="1">
          <mxGeometry x="1560" y="960" width="30" height="40" as="geometry" />
        </mxCell>
        <mxCell id="Lkh9YMwwo8p-KndQxdbB-51" value="&lt;font style=&quot;font-size: 30px;&quot; face=&quot;Helvetica&quot;&gt;C&lt;/font&gt;" style="text;strokeColor=none;fillColor=none;spacingLeft=4;spacingRight=4;overflow=hidden;rotatable=0;points=[[0,0.5],[1,0.5]];portConstraint=eastwest;fontSize=20;whiteSpace=wrap;html=1;fontFamily=Verdana;" parent="Lkh9YMwwo8p-KndQxdbB-1" vertex="1">
          <mxGeometry x="1740" y="960" width="30" height="40" as="geometry" />
        </mxCell>
        <mxCell id="Lkh9YMwwo8p-KndQxdbB-52" value="&lt;div style=&quot;font-size: 30px;&quot;&gt;A-B&lt;/div&gt;" style="text;strokeColor=none;fillColor=none;spacingLeft=4;spacingRight=4;overflow=hidden;rotatable=0;points=[[0,0.5],[1,0.5]];portConstraint=eastwest;fontSize=30;whiteSpace=wrap;html=1;fontFamily=Helvetica;" parent="Lkh9YMwwo8p-KndQxdbB-1" vertex="1">
          <mxGeometry x="1120" y="1200" width="70" height="40" as="geometry" />
        </mxCell>
        <mxCell id="Lkh9YMwwo8p-KndQxdbB-53" value="&lt;div style=&quot;font-size: 30px;&quot;&gt;A-C&lt;/div&gt;" style="text;strokeColor=none;fillColor=none;spacingLeft=4;spacingRight=4;overflow=hidden;rotatable=0;points=[[0,0.5],[1,0.5]];portConstraint=eastwest;fontSize=30;whiteSpace=wrap;html=1;fontFamily=Helvetica;" parent="Lkh9YMwwo8p-KndQxdbB-1" vertex="1">
          <mxGeometry x="1330" y="1200" width="70" height="40" as="geometry" />
        </mxCell>
        <mxCell id="Lkh9YMwwo8p-KndQxdbB-54" value="&lt;div style=&quot;font-size: 30px;&quot;&gt;B-A&lt;/div&gt;" style="text;strokeColor=none;fillColor=none;spacingLeft=4;spacingRight=4;overflow=hidden;rotatable=0;points=[[0,0.5],[1,0.5]];portConstraint=eastwest;fontSize=30;whiteSpace=wrap;html=1;fontFamily=Helvetica;" parent="Lkh9YMwwo8p-KndQxdbB-1" vertex="1">
          <mxGeometry x="1480" y="1200" width="70" height="40" as="geometry" />
        </mxCell>
        <mxCell id="Lkh9YMwwo8p-KndQxdbB-55" value="&lt;div style=&quot;font-size: 30px;&quot;&gt;B-C&lt;/div&gt;" style="text;strokeColor=none;fillColor=none;spacingLeft=4;spacingRight=4;overflow=hidden;rotatable=0;points=[[0,0.5],[1,0.5]];portConstraint=eastwest;fontSize=30;whiteSpace=wrap;html=1;fontFamily=Helvetica;" parent="Lkh9YMwwo8p-KndQxdbB-1" vertex="1">
          <mxGeometry x="1660" y="1200" width="70" height="40" as="geometry" />
        </mxCell>
        <mxCell id="Lkh9YMwwo8p-KndQxdbB-56" value="C-A" style="text;strokeColor=none;fillColor=none;spacingLeft=4;spacingRight=4;overflow=hidden;rotatable=0;points=[[0,0.5],[1,0.5]];portConstraint=eastwest;fontSize=30;whiteSpace=wrap;html=1;fontFamily=Helvetica;" parent="Lkh9YMwwo8p-KndQxdbB-1" vertex="1">
          <mxGeometry x="1810" y="1200" width="70" height="40" as="geometry" />
        </mxCell>
        <mxCell id="Lkh9YMwwo8p-KndQxdbB-57" value="C-B" style="text;strokeColor=none;fillColor=none;spacingLeft=4;spacingRight=4;overflow=hidden;rotatable=0;points=[[0,0.5],[1,0.5]];portConstraint=eastwest;fontSize=30;whiteSpace=wrap;html=1;fontFamily=Helvetica;" parent="Lkh9YMwwo8p-KndQxdbB-1" vertex="1">
          <mxGeometry x="2020" y="1200" width="70" height="40" as="geometry" />
        </mxCell>
        <mxCell id="Lkh9YMwwo8p-KndQxdbB-58" value="Albero di A" style="rounded=1;whiteSpace=wrap;html=1;fontSize=20;" parent="Lkh9YMwwo8p-KndQxdbB-1" vertex="1">
          <mxGeometry x="1400" y="160" width="120" height="80" as="geometry" />
        </mxCell>
        <mxCell id="Lkh9YMwwo8p-KndQxdbB-59" value="Albero di B" style="rounded=1;whiteSpace=wrap;html=1;fontSize=20;" parent="Lkh9YMwwo8p-KndQxdbB-1" vertex="1">
          <mxGeometry x="1400" y="800" width="120" height="80" as="geometry" />
        </mxCell>
      </root>
    </mxGraphModel>
  </diagram>
  <diagram name="A1B1-C001" id="t2BanqUckqQ88mVBAp-e">
    <mxGraphModel dx="2010" dy="1210" grid="1" gridSize="10" guides="1" tooltips="1" connect="1" arrows="1" fold="1" page="1" pageScale="1" pageWidth="3300" pageHeight="4681" math="0" shadow="0">
      <root>
        <mxCell id="knv6zBycI0vHR1gPW3B_-0" />
        <mxCell id="knv6zBycI0vHR1gPW3B_-1" parent="knv6zBycI0vHR1gPW3B_-0" />
        <mxCell id="knv6zBycI0vHR1gPW3B_-2" value="&lt;font style=&quot;font-size: 30px;&quot;&gt;&lt;b style=&quot;font-size: 30px;&quot;&gt;λ=?&lt;/b&gt;&lt;/font&gt;" style="ellipse;whiteSpace=wrap;html=1;aspect=fixed;fontSize=30;" vertex="1" parent="knv6zBycI0vHR1gPW3B_-1">
          <mxGeometry x="1560" y="200" width="80" height="80" as="geometry" />
        </mxCell>
        <mxCell id="knv6zBycI0vHR1gPW3B_-3" value="&lt;b&gt;?&lt;/b&gt;" style="ellipse;whiteSpace=wrap;html=1;aspect=fixed;fontSize=30;" vertex="1" parent="knv6zBycI0vHR1gPW3B_-1">
          <mxGeometry x="1560" y="440" width="80" height="80" as="geometry" />
        </mxCell>
        <mxCell id="knv6zBycI0vHR1gPW3B_-4" value="&lt;b&gt;1&lt;/b&gt;" style="ellipse;whiteSpace=wrap;html=1;aspect=fixed;fontSize=30;" vertex="1" parent="knv6zBycI0vHR1gPW3B_-1">
          <mxGeometry x="1280" y="440" width="80" height="80" as="geometry" />
        </mxCell>
        <mxCell id="knv6zBycI0vHR1gPW3B_-5" value="&lt;b&gt;0&lt;/b&gt;" style="ellipse;whiteSpace=wrap;html=1;aspect=fixed;fontSize=30;" vertex="1" parent="knv6zBycI0vHR1gPW3B_-1">
          <mxGeometry x="1840" y="440" width="80" height="80" as="geometry" />
        </mxCell>
        <mxCell id="knv6zBycI0vHR1gPW3B_-6" value="" style="endArrow=none;html=1;rounded=0;" edge="1" parent="knv6zBycI0vHR1gPW3B_-1" source="knv6zBycI0vHR1gPW3B_-2" target="knv6zBycI0vHR1gPW3B_-4">
          <mxGeometry relative="1" as="geometry">
            <mxPoint x="1510" y="520" as="sourcePoint" />
            <mxPoint x="1670" y="520" as="targetPoint" />
          </mxGeometry>
        </mxCell>
        <mxCell id="knv6zBycI0vHR1gPW3B_-7" value="&lt;b&gt;1&lt;/b&gt;" style="ellipse;whiteSpace=wrap;html=1;aspect=fixed;fontSize=30;" vertex="1" parent="knv6zBycI0vHR1gPW3B_-1">
          <mxGeometry x="1040" y="640" width="80" height="80" as="geometry" />
        </mxCell>
        <mxCell id="knv6zBycI0vHR1gPW3B_-8" value="&lt;b&gt;1&lt;/b&gt;" style="ellipse;whiteSpace=wrap;html=1;aspect=fixed;fontSize=30;" vertex="1" parent="knv6zBycI0vHR1gPW3B_-1">
          <mxGeometry x="1280" y="640" width="80" height="80" as="geometry" />
        </mxCell>
        <mxCell id="knv6zBycI0vHR1gPW3B_-9" value="&lt;b&gt;y=0&lt;/b&gt;" style="ellipse;whiteSpace=wrap;html=1;aspect=fixed;fontSize=30;" vertex="1" parent="knv6zBycI0vHR1gPW3B_-1">
          <mxGeometry x="1660" y="640" width="80" height="80" as="geometry" />
        </mxCell>
        <mxCell id="knv6zBycI0vHR1gPW3B_-10" value="&lt;b&gt;1&lt;/b&gt;" style="ellipse;whiteSpace=wrap;html=1;aspect=fixed;fontSize=30;" vertex="1" parent="knv6zBycI0vHR1gPW3B_-1">
          <mxGeometry x="1460" y="640" width="80" height="80" as="geometry" />
        </mxCell>
        <mxCell id="knv6zBycI0vHR1gPW3B_-11" value="&lt;b&gt;x=0&lt;/b&gt;" style="ellipse;whiteSpace=wrap;html=1;aspect=fixed;fontSize=30;" vertex="1" parent="knv6zBycI0vHR1gPW3B_-1">
          <mxGeometry x="1840" y="640" width="80" height="80" as="geometry" />
        </mxCell>
        <mxCell id="knv6zBycI0vHR1gPW3B_-12" value="&lt;b&gt;x=0&lt;/b&gt;" style="ellipse;whiteSpace=wrap;html=1;aspect=fixed;fontSize=30;" vertex="1" parent="knv6zBycI0vHR1gPW3B_-1">
          <mxGeometry x="2080" y="640" width="80" height="80" as="geometry" />
        </mxCell>
        <mxCell id="knv6zBycI0vHR1gPW3B_-13" value="" style="endArrow=none;html=1;rounded=0;" edge="1" parent="knv6zBycI0vHR1gPW3B_-1" source="knv6zBycI0vHR1gPW3B_-2" target="knv6zBycI0vHR1gPW3B_-5">
          <mxGeometry relative="1" as="geometry">
            <mxPoint x="1580" y="276" as="sourcePoint" />
            <mxPoint x="1360" y="464" as="targetPoint" />
          </mxGeometry>
        </mxCell>
        <mxCell id="knv6zBycI0vHR1gPW3B_-14" value="" style="endArrow=none;html=1;rounded=0;" edge="1" parent="knv6zBycI0vHR1gPW3B_-1" source="knv6zBycI0vHR1gPW3B_-2" target="knv6zBycI0vHR1gPW3B_-3">
          <mxGeometry relative="1" as="geometry">
            <mxPoint x="1610" y="350" as="sourcePoint" />
            <mxPoint x="1830" y="538" as="targetPoint" />
          </mxGeometry>
        </mxCell>
        <mxCell id="knv6zBycI0vHR1gPW3B_-15" value="" style="endArrow=none;html=1;rounded=0;" edge="1" parent="knv6zBycI0vHR1gPW3B_-1" source="knv6zBycI0vHR1gPW3B_-3" target="knv6zBycI0vHR1gPW3B_-9">
          <mxGeometry relative="1" as="geometry">
            <mxPoint x="1750" y="470" as="sourcePoint" />
            <mxPoint x="1750" y="630" as="targetPoint" />
          </mxGeometry>
        </mxCell>
        <mxCell id="knv6zBycI0vHR1gPW3B_-16" value="" style="endArrow=none;html=1;rounded=0;" edge="1" parent="knv6zBycI0vHR1gPW3B_-1" source="knv6zBycI0vHR1gPW3B_-3" target="knv6zBycI0vHR1gPW3B_-10">
          <mxGeometry relative="1" as="geometry">
            <mxPoint x="1625" y="527" as="sourcePoint" />
            <mxPoint x="1675" y="653" as="targetPoint" />
          </mxGeometry>
        </mxCell>
        <mxCell id="knv6zBycI0vHR1gPW3B_-17" value="" style="endArrow=none;html=1;rounded=0;" edge="1" parent="knv6zBycI0vHR1gPW3B_-1" source="knv6zBycI0vHR1gPW3B_-5" target="knv6zBycI0vHR1gPW3B_-11">
          <mxGeometry relative="1" as="geometry">
            <mxPoint x="1740" y="514" as="sourcePoint" />
            <mxPoint x="1790" y="640" as="targetPoint" />
          </mxGeometry>
        </mxCell>
        <mxCell id="knv6zBycI0vHR1gPW3B_-18" value="" style="endArrow=none;html=1;rounded=0;" edge="1" parent="knv6zBycI0vHR1gPW3B_-1" source="knv6zBycI0vHR1gPW3B_-5" target="knv6zBycI0vHR1gPW3B_-12">
          <mxGeometry relative="1" as="geometry">
            <mxPoint x="1882" y="529" as="sourcePoint" />
            <mxPoint x="1858" y="651" as="targetPoint" />
          </mxGeometry>
        </mxCell>
        <mxCell id="knv6zBycI0vHR1gPW3B_-19" value="" style="endArrow=none;html=1;rounded=0;" edge="1" parent="knv6zBycI0vHR1gPW3B_-1" source="knv6zBycI0vHR1gPW3B_-4" target="knv6zBycI0vHR1gPW3B_-8">
          <mxGeometry relative="1" as="geometry">
            <mxPoint x="1510" y="452" as="sourcePoint" />
            <mxPoint x="1290" y="640" as="targetPoint" />
          </mxGeometry>
        </mxCell>
        <mxCell id="knv6zBycI0vHR1gPW3B_-20" value="" style="endArrow=none;html=1;rounded=0;" edge="1" parent="knv6zBycI0vHR1gPW3B_-1" source="knv6zBycI0vHR1gPW3B_-4" target="knv6zBycI0vHR1gPW3B_-7">
          <mxGeometry relative="1" as="geometry">
            <mxPoint x="1400" y="710" as="sourcePoint" />
            <mxPoint x="1180" y="898" as="targetPoint" />
          </mxGeometry>
        </mxCell>
        <mxCell id="knv6zBycI0vHR1gPW3B_-21" value="&lt;font style=&quot;font-size: 30px;&quot; face=&quot;Helvetica&quot;&gt;A&lt;/font&gt;" style="text;strokeColor=none;fillColor=none;spacingLeft=4;spacingRight=4;overflow=hidden;rotatable=0;points=[[0,0.5],[1,0.5]];portConstraint=eastwest;fontSize=20;whiteSpace=wrap;html=1;fontFamily=Verdana;" vertex="1" parent="knv6zBycI0vHR1gPW3B_-1">
          <mxGeometry x="1420" y="320" width="30" height="40" as="geometry" />
        </mxCell>
        <mxCell id="knv6zBycI0vHR1gPW3B_-22" value="&lt;font style=&quot;font-size: 30px;&quot; face=&quot;Helvetica&quot;&gt;B&lt;/font&gt;" style="text;strokeColor=none;fillColor=none;spacingLeft=4;spacingRight=4;overflow=hidden;rotatable=0;points=[[0,0.5],[1,0.5]];portConstraint=eastwest;fontSize=20;whiteSpace=wrap;html=1;fontFamily=Verdana;" vertex="1" parent="knv6zBycI0vHR1gPW3B_-1">
          <mxGeometry x="1560" y="320" width="30" height="40" as="geometry" />
        </mxCell>
        <mxCell id="knv6zBycI0vHR1gPW3B_-23" value="&lt;font style=&quot;font-size: 30px;&quot; face=&quot;Helvetica&quot;&gt;C&lt;/font&gt;" style="text;strokeColor=none;fillColor=none;spacingLeft=4;spacingRight=4;overflow=hidden;rotatable=0;points=[[0,0.5],[1,0.5]];portConstraint=eastwest;fontSize=20;whiteSpace=wrap;html=1;fontFamily=Verdana;" vertex="1" parent="knv6zBycI0vHR1gPW3B_-1">
          <mxGeometry x="1740" y="320" width="30" height="40" as="geometry" />
        </mxCell>
        <mxCell id="knv6zBycI0vHR1gPW3B_-24" value="&lt;div style=&quot;font-size: 30px;&quot;&gt;A-B&lt;/div&gt;" style="text;strokeColor=none;fillColor=none;spacingLeft=4;spacingRight=4;overflow=hidden;rotatable=0;points=[[0,0.5],[1,0.5]];portConstraint=eastwest;fontSize=30;whiteSpace=wrap;html=1;fontFamily=Helvetica;" vertex="1" parent="knv6zBycI0vHR1gPW3B_-1">
          <mxGeometry x="1120" y="560" width="70" height="40" as="geometry" />
        </mxCell>
        <mxCell id="knv6zBycI0vHR1gPW3B_-25" value="&lt;div style=&quot;font-size: 30px;&quot;&gt;A-C&lt;/div&gt;" style="text;strokeColor=none;fillColor=none;spacingLeft=4;spacingRight=4;overflow=hidden;rotatable=0;points=[[0,0.5],[1,0.5]];portConstraint=eastwest;fontSize=30;whiteSpace=wrap;html=1;fontFamily=Helvetica;" vertex="1" parent="knv6zBycI0vHR1gPW3B_-1">
          <mxGeometry x="1330" y="560" width="70" height="40" as="geometry" />
        </mxCell>
        <mxCell id="knv6zBycI0vHR1gPW3B_-26" value="&lt;div style=&quot;font-size: 30px;&quot;&gt;B-A&lt;/div&gt;" style="text;strokeColor=none;fillColor=none;spacingLeft=4;spacingRight=4;overflow=hidden;rotatable=0;points=[[0,0.5],[1,0.5]];portConstraint=eastwest;fontSize=30;whiteSpace=wrap;html=1;fontFamily=Helvetica;" vertex="1" parent="knv6zBycI0vHR1gPW3B_-1">
          <mxGeometry x="1480" y="560" width="70" height="40" as="geometry" />
        </mxCell>
        <mxCell id="knv6zBycI0vHR1gPW3B_-27" value="&lt;div style=&quot;font-size: 30px;&quot;&gt;B-C&lt;/div&gt;" style="text;strokeColor=none;fillColor=none;spacingLeft=4;spacingRight=4;overflow=hidden;rotatable=0;points=[[0,0.5],[1,0.5]];portConstraint=eastwest;fontSize=30;whiteSpace=wrap;html=1;fontFamily=Helvetica;" vertex="1" parent="knv6zBycI0vHR1gPW3B_-1">
          <mxGeometry x="1660" y="560" width="70" height="40" as="geometry" />
        </mxCell>
        <mxCell id="knv6zBycI0vHR1gPW3B_-28" value="C-A" style="text;strokeColor=none;fillColor=none;spacingLeft=4;spacingRight=4;overflow=hidden;rotatable=0;points=[[0,0.5],[1,0.5]];portConstraint=eastwest;fontSize=30;whiteSpace=wrap;html=1;fontFamily=Helvetica;" vertex="1" parent="knv6zBycI0vHR1gPW3B_-1">
          <mxGeometry x="1810" y="560" width="70" height="40" as="geometry" />
        </mxCell>
        <mxCell id="knv6zBycI0vHR1gPW3B_-29" value="C-B" style="text;strokeColor=none;fillColor=none;spacingLeft=4;spacingRight=4;overflow=hidden;rotatable=0;points=[[0,0.5],[1,0.5]];portConstraint=eastwest;fontSize=30;whiteSpace=wrap;html=1;fontFamily=Helvetica;" vertex="1" parent="knv6zBycI0vHR1gPW3B_-1">
          <mxGeometry x="2020" y="560" width="70" height="40" as="geometry" />
        </mxCell>
        <mxCell id="knv6zBycI0vHR1gPW3B_-30" value="&lt;font style=&quot;font-size: 30px;&quot;&gt;&lt;b style=&quot;font-size: 30px;&quot;&gt;μ = 1&lt;/b&gt;&lt;/font&gt;" style="ellipse;whiteSpace=wrap;html=1;aspect=fixed;fontSize=30;" vertex="1" parent="knv6zBycI0vHR1gPW3B_-1">
          <mxGeometry x="1560" y="840" width="80" height="80" as="geometry" />
        </mxCell>
        <mxCell id="knv6zBycI0vHR1gPW3B_-31" value="&lt;b&gt;1&lt;/b&gt;" style="ellipse;whiteSpace=wrap;html=1;aspect=fixed;fontSize=30;" vertex="1" parent="knv6zBycI0vHR1gPW3B_-1">
          <mxGeometry x="1560" y="1080" width="80" height="80" as="geometry" />
        </mxCell>
        <mxCell id="knv6zBycI0vHR1gPW3B_-32" value="&lt;b&gt;1&lt;/b&gt;" style="ellipse;whiteSpace=wrap;html=1;aspect=fixed;fontSize=30;" vertex="1" parent="knv6zBycI0vHR1gPW3B_-1">
          <mxGeometry x="1280" y="1080" width="80" height="80" as="geometry" />
        </mxCell>
        <mxCell id="knv6zBycI0vHR1gPW3B_-33" value="&lt;b&gt;0&lt;/b&gt;" style="ellipse;whiteSpace=wrap;html=1;aspect=fixed;fontSize=30;" vertex="1" parent="knv6zBycI0vHR1gPW3B_-1">
          <mxGeometry x="1840" y="1080" width="80" height="80" as="geometry" />
        </mxCell>
        <mxCell id="knv6zBycI0vHR1gPW3B_-34" value="" style="endArrow=none;html=1;rounded=0;" edge="1" parent="knv6zBycI0vHR1gPW3B_-1" source="knv6zBycI0vHR1gPW3B_-30" target="knv6zBycI0vHR1gPW3B_-32">
          <mxGeometry relative="1" as="geometry">
            <mxPoint x="1510" y="1160" as="sourcePoint" />
            <mxPoint x="1670" y="1160" as="targetPoint" />
          </mxGeometry>
        </mxCell>
        <mxCell id="knv6zBycI0vHR1gPW3B_-35" value="&lt;b&gt;1&lt;/b&gt;" style="ellipse;whiteSpace=wrap;html=1;aspect=fixed;fontSize=30;" vertex="1" parent="knv6zBycI0vHR1gPW3B_-1">
          <mxGeometry x="1040" y="1280" width="80" height="80" as="geometry" />
        </mxCell>
        <mxCell id="knv6zBycI0vHR1gPW3B_-36" value="&lt;b&gt;z=1&lt;/b&gt;" style="ellipse;whiteSpace=wrap;html=1;aspect=fixed;fontSize=30;" vertex="1" parent="knv6zBycI0vHR1gPW3B_-1">
          <mxGeometry x="1280" y="1280" width="80" height="80" as="geometry" />
        </mxCell>
        <mxCell id="knv6zBycI0vHR1gPW3B_-37" value="&lt;b&gt;1&lt;/b&gt;" style="ellipse;whiteSpace=wrap;html=1;aspect=fixed;fontSize=30;" vertex="1" parent="knv6zBycI0vHR1gPW3B_-1">
          <mxGeometry x="1660" y="1280" width="80" height="80" as="geometry" />
        </mxCell>
        <mxCell id="knv6zBycI0vHR1gPW3B_-38" value="&lt;b&gt;1&lt;/b&gt;" style="ellipse;whiteSpace=wrap;html=1;aspect=fixed;fontSize=30;" vertex="1" parent="knv6zBycI0vHR1gPW3B_-1">
          <mxGeometry x="1460" y="1280" width="80" height="80" as="geometry" />
        </mxCell>
        <mxCell id="knv6zBycI0vHR1gPW3B_-39" value="&lt;b&gt;x=0&lt;/b&gt;" style="ellipse;whiteSpace=wrap;html=1;aspect=fixed;fontSize=30;" vertex="1" parent="knv6zBycI0vHR1gPW3B_-1">
          <mxGeometry x="1840" y="1280" width="80" height="80" as="geometry" />
        </mxCell>
        <mxCell id="knv6zBycI0vHR1gPW3B_-40" value="&lt;b&gt;x=0&lt;/b&gt;" style="ellipse;whiteSpace=wrap;html=1;aspect=fixed;fontSize=30;" vertex="1" parent="knv6zBycI0vHR1gPW3B_-1">
          <mxGeometry x="2080" y="1280" width="80" height="80" as="geometry" />
        </mxCell>
        <mxCell id="knv6zBycI0vHR1gPW3B_-41" value="" style="endArrow=none;html=1;rounded=0;" edge="1" parent="knv6zBycI0vHR1gPW3B_-1" source="knv6zBycI0vHR1gPW3B_-30" target="knv6zBycI0vHR1gPW3B_-33">
          <mxGeometry relative="1" as="geometry">
            <mxPoint x="1580" y="916" as="sourcePoint" />
            <mxPoint x="1360" y="1104" as="targetPoint" />
          </mxGeometry>
        </mxCell>
        <mxCell id="knv6zBycI0vHR1gPW3B_-42" value="" style="endArrow=none;html=1;rounded=0;" edge="1" parent="knv6zBycI0vHR1gPW3B_-1" source="knv6zBycI0vHR1gPW3B_-30" target="knv6zBycI0vHR1gPW3B_-31">
          <mxGeometry relative="1" as="geometry">
            <mxPoint x="1610" y="990" as="sourcePoint" />
            <mxPoint x="1830" y="1178" as="targetPoint" />
          </mxGeometry>
        </mxCell>
        <mxCell id="knv6zBycI0vHR1gPW3B_-43" value="" style="endArrow=none;html=1;rounded=0;" edge="1" parent="knv6zBycI0vHR1gPW3B_-1" source="knv6zBycI0vHR1gPW3B_-31" target="knv6zBycI0vHR1gPW3B_-37">
          <mxGeometry relative="1" as="geometry">
            <mxPoint x="1750" y="1110" as="sourcePoint" />
            <mxPoint x="1750" y="1270" as="targetPoint" />
          </mxGeometry>
        </mxCell>
        <mxCell id="knv6zBycI0vHR1gPW3B_-44" value="" style="endArrow=none;html=1;rounded=0;" edge="1" parent="knv6zBycI0vHR1gPW3B_-1" source="knv6zBycI0vHR1gPW3B_-31" target="knv6zBycI0vHR1gPW3B_-38">
          <mxGeometry relative="1" as="geometry">
            <mxPoint x="1625" y="1167" as="sourcePoint" />
            <mxPoint x="1675" y="1293" as="targetPoint" />
          </mxGeometry>
        </mxCell>
        <mxCell id="knv6zBycI0vHR1gPW3B_-45" value="" style="endArrow=none;html=1;rounded=0;" edge="1" parent="knv6zBycI0vHR1gPW3B_-1" source="knv6zBycI0vHR1gPW3B_-33" target="knv6zBycI0vHR1gPW3B_-39">
          <mxGeometry relative="1" as="geometry">
            <mxPoint x="1740" y="1154" as="sourcePoint" />
            <mxPoint x="1790" y="1280" as="targetPoint" />
          </mxGeometry>
        </mxCell>
        <mxCell id="knv6zBycI0vHR1gPW3B_-46" value="" style="endArrow=none;html=1;rounded=0;" edge="1" parent="knv6zBycI0vHR1gPW3B_-1" source="knv6zBycI0vHR1gPW3B_-33" target="knv6zBycI0vHR1gPW3B_-40">
          <mxGeometry relative="1" as="geometry">
            <mxPoint x="1882" y="1169" as="sourcePoint" />
            <mxPoint x="1858" y="1291" as="targetPoint" />
          </mxGeometry>
        </mxCell>
        <mxCell id="knv6zBycI0vHR1gPW3B_-47" value="" style="endArrow=none;html=1;rounded=0;" edge="1" parent="knv6zBycI0vHR1gPW3B_-1" source="knv6zBycI0vHR1gPW3B_-32" target="knv6zBycI0vHR1gPW3B_-36">
          <mxGeometry relative="1" as="geometry">
            <mxPoint x="1510" y="1092" as="sourcePoint" />
            <mxPoint x="1290" y="1280" as="targetPoint" />
          </mxGeometry>
        </mxCell>
        <mxCell id="knv6zBycI0vHR1gPW3B_-48" value="" style="endArrow=none;html=1;rounded=0;" edge="1" parent="knv6zBycI0vHR1gPW3B_-1" source="knv6zBycI0vHR1gPW3B_-32" target="knv6zBycI0vHR1gPW3B_-35">
          <mxGeometry relative="1" as="geometry">
            <mxPoint x="1400" y="1350" as="sourcePoint" />
            <mxPoint x="1180" y="1538" as="targetPoint" />
          </mxGeometry>
        </mxCell>
        <mxCell id="knv6zBycI0vHR1gPW3B_-49" value="&lt;font style=&quot;font-size: 30px;&quot; face=&quot;Helvetica&quot;&gt;A&lt;/font&gt;" style="text;strokeColor=none;fillColor=none;spacingLeft=4;spacingRight=4;overflow=hidden;rotatable=0;points=[[0,0.5],[1,0.5]];portConstraint=eastwest;fontSize=20;whiteSpace=wrap;html=1;fontFamily=Verdana;" vertex="1" parent="knv6zBycI0vHR1gPW3B_-1">
          <mxGeometry x="1420" y="960" width="30" height="40" as="geometry" />
        </mxCell>
        <mxCell id="knv6zBycI0vHR1gPW3B_-50" value="&lt;font style=&quot;font-size: 30px;&quot; face=&quot;Helvetica&quot;&gt;B&lt;/font&gt;" style="text;strokeColor=none;fillColor=none;spacingLeft=4;spacingRight=4;overflow=hidden;rotatable=0;points=[[0,0.5],[1,0.5]];portConstraint=eastwest;fontSize=20;whiteSpace=wrap;html=1;fontFamily=Verdana;" vertex="1" parent="knv6zBycI0vHR1gPW3B_-1">
          <mxGeometry x="1560" y="960" width="30" height="40" as="geometry" />
        </mxCell>
        <mxCell id="knv6zBycI0vHR1gPW3B_-51" value="&lt;font style=&quot;font-size: 30px;&quot; face=&quot;Helvetica&quot;&gt;C&lt;/font&gt;" style="text;strokeColor=none;fillColor=none;spacingLeft=4;spacingRight=4;overflow=hidden;rotatable=0;points=[[0,0.5],[1,0.5]];portConstraint=eastwest;fontSize=20;whiteSpace=wrap;html=1;fontFamily=Verdana;" vertex="1" parent="knv6zBycI0vHR1gPW3B_-1">
          <mxGeometry x="1740" y="960" width="30" height="40" as="geometry" />
        </mxCell>
        <mxCell id="knv6zBycI0vHR1gPW3B_-52" value="&lt;div style=&quot;font-size: 30px;&quot;&gt;A-B&lt;/div&gt;" style="text;strokeColor=none;fillColor=none;spacingLeft=4;spacingRight=4;overflow=hidden;rotatable=0;points=[[0,0.5],[1,0.5]];portConstraint=eastwest;fontSize=30;whiteSpace=wrap;html=1;fontFamily=Helvetica;" vertex="1" parent="knv6zBycI0vHR1gPW3B_-1">
          <mxGeometry x="1120" y="1200" width="70" height="40" as="geometry" />
        </mxCell>
        <mxCell id="knv6zBycI0vHR1gPW3B_-53" value="&lt;div style=&quot;font-size: 30px;&quot;&gt;A-C&lt;/div&gt;" style="text;strokeColor=none;fillColor=none;spacingLeft=4;spacingRight=4;overflow=hidden;rotatable=0;points=[[0,0.5],[1,0.5]];portConstraint=eastwest;fontSize=30;whiteSpace=wrap;html=1;fontFamily=Helvetica;" vertex="1" parent="knv6zBycI0vHR1gPW3B_-1">
          <mxGeometry x="1330" y="1200" width="70" height="40" as="geometry" />
        </mxCell>
        <mxCell id="knv6zBycI0vHR1gPW3B_-54" value="&lt;div style=&quot;font-size: 30px;&quot;&gt;B-A&lt;/div&gt;" style="text;strokeColor=none;fillColor=none;spacingLeft=4;spacingRight=4;overflow=hidden;rotatable=0;points=[[0,0.5],[1,0.5]];portConstraint=eastwest;fontSize=30;whiteSpace=wrap;html=1;fontFamily=Helvetica;" vertex="1" parent="knv6zBycI0vHR1gPW3B_-1">
          <mxGeometry x="1480" y="1200" width="70" height="40" as="geometry" />
        </mxCell>
        <mxCell id="knv6zBycI0vHR1gPW3B_-55" value="&lt;div style=&quot;font-size: 30px;&quot;&gt;B-C&lt;/div&gt;" style="text;strokeColor=none;fillColor=none;spacingLeft=4;spacingRight=4;overflow=hidden;rotatable=0;points=[[0,0.5],[1,0.5]];portConstraint=eastwest;fontSize=30;whiteSpace=wrap;html=1;fontFamily=Helvetica;" vertex="1" parent="knv6zBycI0vHR1gPW3B_-1">
          <mxGeometry x="1660" y="1200" width="70" height="40" as="geometry" />
        </mxCell>
        <mxCell id="knv6zBycI0vHR1gPW3B_-56" value="C-A" style="text;strokeColor=none;fillColor=none;spacingLeft=4;spacingRight=4;overflow=hidden;rotatable=0;points=[[0,0.5],[1,0.5]];portConstraint=eastwest;fontSize=30;whiteSpace=wrap;html=1;fontFamily=Helvetica;" vertex="1" parent="knv6zBycI0vHR1gPW3B_-1">
          <mxGeometry x="1810" y="1200" width="70" height="40" as="geometry" />
        </mxCell>
        <mxCell id="knv6zBycI0vHR1gPW3B_-57" value="C-B" style="text;strokeColor=none;fillColor=none;spacingLeft=4;spacingRight=4;overflow=hidden;rotatable=0;points=[[0,0.5],[1,0.5]];portConstraint=eastwest;fontSize=30;whiteSpace=wrap;html=1;fontFamily=Helvetica;" vertex="1" parent="knv6zBycI0vHR1gPW3B_-1">
          <mxGeometry x="2020" y="1200" width="70" height="40" as="geometry" />
        </mxCell>
        <mxCell id="knv6zBycI0vHR1gPW3B_-58" value="Albero di A" style="rounded=1;whiteSpace=wrap;html=1;fontSize=20;" vertex="1" parent="knv6zBycI0vHR1gPW3B_-1">
          <mxGeometry x="1400" y="160" width="120" height="80" as="geometry" />
        </mxCell>
        <mxCell id="knv6zBycI0vHR1gPW3B_-59" value="Albero di B" style="rounded=1;whiteSpace=wrap;html=1;fontSize=20;" vertex="1" parent="knv6zBycI0vHR1gPW3B_-1">
          <mxGeometry x="1400" y="800" width="120" height="80" as="geometry" />
        </mxCell>
      </root>
    </mxGraphModel>
  </diagram>
  <diagram id="_Bs-6CnWT5J-WipVTQxd" name="A1B0">
    <mxGraphModel dx="2345" dy="1412" grid="1" gridSize="10" guides="1" tooltips="1" connect="1" arrows="1" fold="1" page="1" pageScale="1" pageWidth="3300" pageHeight="4681" math="0" shadow="0">
      <root>
        <mxCell id="0" />
        <mxCell id="1" parent="0" />
        <mxCell id="xHDOe705Et2D6xl1JB1Q-1" value="&lt;font style=&quot;font-size: 30px;&quot;&gt;&lt;b style=&quot;font-size: 30px;&quot;&gt;λ&lt;/b&gt;&lt;/font&gt;" style="ellipse;whiteSpace=wrap;html=1;aspect=fixed;fontSize=30;" parent="1" vertex="1">
          <mxGeometry x="1560" y="200" width="80" height="80" as="geometry" />
        </mxCell>
        <mxCell id="xHDOe705Et2D6xl1JB1Q-2" value="&lt;b&gt;0&lt;/b&gt;" style="ellipse;whiteSpace=wrap;html=1;aspect=fixed;fontSize=30;" parent="1" vertex="1">
          <mxGeometry x="1560" y="440" width="80" height="80" as="geometry" />
        </mxCell>
        <mxCell id="xHDOe705Et2D6xl1JB1Q-3" value="&lt;b&gt;1&lt;/b&gt;" style="ellipse;whiteSpace=wrap;html=1;aspect=fixed;fontSize=30;" parent="1" vertex="1">
          <mxGeometry x="1280" y="440" width="80" height="80" as="geometry" />
        </mxCell>
        <mxCell id="xHDOe705Et2D6xl1JB1Q-4" value="&lt;b&gt;x&lt;/b&gt;" style="ellipse;whiteSpace=wrap;html=1;aspect=fixed;fontSize=30;" parent="1" vertex="1">
          <mxGeometry x="1840" y="440" width="80" height="80" as="geometry" />
        </mxCell>
        <mxCell id="xHDOe705Et2D6xl1JB1Q-5" value="" style="endArrow=none;html=1;rounded=0;" parent="1" source="xHDOe705Et2D6xl1JB1Q-1" target="xHDOe705Et2D6xl1JB1Q-3" edge="1">
          <mxGeometry relative="1" as="geometry">
            <mxPoint x="1510" y="520" as="sourcePoint" />
            <mxPoint x="1670" y="520" as="targetPoint" />
          </mxGeometry>
        </mxCell>
        <mxCell id="xHDOe705Et2D6xl1JB1Q-6" value="&lt;b&gt;1&lt;/b&gt;" style="ellipse;whiteSpace=wrap;html=1;aspect=fixed;fontSize=30;" parent="1" vertex="1">
          <mxGeometry x="1040" y="640" width="80" height="80" as="geometry" />
        </mxCell>
        <mxCell id="xHDOe705Et2D6xl1JB1Q-7" value="&lt;b&gt;1&lt;/b&gt;" style="ellipse;whiteSpace=wrap;html=1;aspect=fixed;fontSize=30;" parent="1" vertex="1">
          <mxGeometry x="1280" y="640" width="80" height="80" as="geometry" />
        </mxCell>
        <mxCell id="xHDOe705Et2D6xl1JB1Q-8" value="&lt;b&gt;y&lt;/b&gt;" style="ellipse;whiteSpace=wrap;html=1;aspect=fixed;fontSize=30;" parent="1" vertex="1">
          <mxGeometry x="1660" y="640" width="80" height="80" as="geometry" />
        </mxCell>
        <mxCell id="xHDOe705Et2D6xl1JB1Q-9" value="&lt;b&gt;0&lt;/b&gt;" style="ellipse;whiteSpace=wrap;html=1;aspect=fixed;fontSize=30;" parent="1" vertex="1">
          <mxGeometry x="1460" y="640" width="80" height="80" as="geometry" />
        </mxCell>
        <mxCell id="xHDOe705Et2D6xl1JB1Q-10" value="&lt;b&gt;x&lt;/b&gt;" style="ellipse;whiteSpace=wrap;html=1;aspect=fixed;fontSize=30;" parent="1" vertex="1">
          <mxGeometry x="1840" y="640" width="80" height="80" as="geometry" />
        </mxCell>
        <mxCell id="xHDOe705Et2D6xl1JB1Q-11" value="&lt;b&gt;x&lt;/b&gt;" style="ellipse;whiteSpace=wrap;html=1;aspect=fixed;fontSize=30;" parent="1" vertex="1">
          <mxGeometry x="2080" y="640" width="80" height="80" as="geometry" />
        </mxCell>
        <mxCell id="xHDOe705Et2D6xl1JB1Q-12" value="" style="endArrow=none;html=1;rounded=0;" parent="1" source="xHDOe705Et2D6xl1JB1Q-1" target="xHDOe705Et2D6xl1JB1Q-4" edge="1">
          <mxGeometry relative="1" as="geometry">
            <mxPoint x="1580" y="276" as="sourcePoint" />
            <mxPoint x="1360" y="464" as="targetPoint" />
          </mxGeometry>
        </mxCell>
        <mxCell id="xHDOe705Et2D6xl1JB1Q-13" value="" style="endArrow=none;html=1;rounded=0;" parent="1" source="xHDOe705Et2D6xl1JB1Q-1" target="xHDOe705Et2D6xl1JB1Q-2" edge="1">
          <mxGeometry relative="1" as="geometry">
            <mxPoint x="1610" y="350" as="sourcePoint" />
            <mxPoint x="1830" y="538" as="targetPoint" />
          </mxGeometry>
        </mxCell>
        <mxCell id="xHDOe705Et2D6xl1JB1Q-14" value="" style="endArrow=none;html=1;rounded=0;" parent="1" source="xHDOe705Et2D6xl1JB1Q-2" target="xHDOe705Et2D6xl1JB1Q-8" edge="1">
          <mxGeometry relative="1" as="geometry">
            <mxPoint x="1750" y="470" as="sourcePoint" />
            <mxPoint x="1750" y="630" as="targetPoint" />
          </mxGeometry>
        </mxCell>
        <mxCell id="xHDOe705Et2D6xl1JB1Q-15" value="" style="endArrow=none;html=1;rounded=0;" parent="1" source="xHDOe705Et2D6xl1JB1Q-2" target="xHDOe705Et2D6xl1JB1Q-9" edge="1">
          <mxGeometry relative="1" as="geometry">
            <mxPoint x="1625" y="527" as="sourcePoint" />
            <mxPoint x="1675" y="653" as="targetPoint" />
          </mxGeometry>
        </mxCell>
        <mxCell id="xHDOe705Et2D6xl1JB1Q-16" value="" style="endArrow=none;html=1;rounded=0;" parent="1" source="xHDOe705Et2D6xl1JB1Q-4" target="xHDOe705Et2D6xl1JB1Q-10" edge="1">
          <mxGeometry relative="1" as="geometry">
            <mxPoint x="1740" y="514" as="sourcePoint" />
            <mxPoint x="1790" y="640" as="targetPoint" />
          </mxGeometry>
        </mxCell>
        <mxCell id="xHDOe705Et2D6xl1JB1Q-17" value="" style="endArrow=none;html=1;rounded=0;" parent="1" source="xHDOe705Et2D6xl1JB1Q-4" target="xHDOe705Et2D6xl1JB1Q-11" edge="1">
          <mxGeometry relative="1" as="geometry">
            <mxPoint x="1882" y="529" as="sourcePoint" />
            <mxPoint x="1858" y="651" as="targetPoint" />
          </mxGeometry>
        </mxCell>
        <mxCell id="xHDOe705Et2D6xl1JB1Q-18" value="" style="endArrow=none;html=1;rounded=0;" parent="1" source="xHDOe705Et2D6xl1JB1Q-3" target="xHDOe705Et2D6xl1JB1Q-7" edge="1">
          <mxGeometry relative="1" as="geometry">
            <mxPoint x="1510" y="452" as="sourcePoint" />
            <mxPoint x="1290" y="640" as="targetPoint" />
          </mxGeometry>
        </mxCell>
        <mxCell id="xHDOe705Et2D6xl1JB1Q-19" value="" style="endArrow=none;html=1;rounded=0;" parent="1" source="xHDOe705Et2D6xl1JB1Q-3" target="xHDOe705Et2D6xl1JB1Q-6" edge="1">
          <mxGeometry relative="1" as="geometry">
            <mxPoint x="1400" y="710" as="sourcePoint" />
            <mxPoint x="1180" y="898" as="targetPoint" />
          </mxGeometry>
        </mxCell>
        <mxCell id="xHDOe705Et2D6xl1JB1Q-20" value="&lt;font style=&quot;font-size: 30px;&quot; face=&quot;Helvetica&quot;&gt;A&lt;/font&gt;" style="text;strokeColor=none;fillColor=none;spacingLeft=4;spacingRight=4;overflow=hidden;rotatable=0;points=[[0,0.5],[1,0.5]];portConstraint=eastwest;fontSize=20;whiteSpace=wrap;html=1;fontFamily=Verdana;" parent="1" vertex="1">
          <mxGeometry x="1420" y="320" width="30" height="40" as="geometry" />
        </mxCell>
        <mxCell id="xHDOe705Et2D6xl1JB1Q-21" value="&lt;font style=&quot;font-size: 30px;&quot; face=&quot;Helvetica&quot;&gt;B&lt;/font&gt;" style="text;strokeColor=none;fillColor=none;spacingLeft=4;spacingRight=4;overflow=hidden;rotatable=0;points=[[0,0.5],[1,0.5]];portConstraint=eastwest;fontSize=20;whiteSpace=wrap;html=1;fontFamily=Verdana;" parent="1" vertex="1">
          <mxGeometry x="1560" y="320" width="30" height="40" as="geometry" />
        </mxCell>
        <mxCell id="xHDOe705Et2D6xl1JB1Q-22" value="&lt;font style=&quot;font-size: 30px;&quot; face=&quot;Helvetica&quot;&gt;C&lt;/font&gt;" style="text;strokeColor=none;fillColor=none;spacingLeft=4;spacingRight=4;overflow=hidden;rotatable=0;points=[[0,0.5],[1,0.5]];portConstraint=eastwest;fontSize=20;whiteSpace=wrap;html=1;fontFamily=Verdana;" parent="1" vertex="1">
          <mxGeometry x="1740" y="320" width="30" height="40" as="geometry" />
        </mxCell>
        <mxCell id="xHDOe705Et2D6xl1JB1Q-23" value="&lt;div style=&quot;font-size: 30px;&quot;&gt;A-B&lt;/div&gt;" style="text;strokeColor=none;fillColor=none;spacingLeft=4;spacingRight=4;overflow=hidden;rotatable=0;points=[[0,0.5],[1,0.5]];portConstraint=eastwest;fontSize=30;whiteSpace=wrap;html=1;fontFamily=Helvetica;" parent="1" vertex="1">
          <mxGeometry x="1120" y="560" width="70" height="40" as="geometry" />
        </mxCell>
        <mxCell id="xHDOe705Et2D6xl1JB1Q-24" value="&lt;div style=&quot;font-size: 30px;&quot;&gt;A-C&lt;/div&gt;" style="text;strokeColor=none;fillColor=none;spacingLeft=4;spacingRight=4;overflow=hidden;rotatable=0;points=[[0,0.5],[1,0.5]];portConstraint=eastwest;fontSize=30;whiteSpace=wrap;html=1;fontFamily=Helvetica;" parent="1" vertex="1">
          <mxGeometry x="1330" y="560" width="70" height="40" as="geometry" />
        </mxCell>
        <mxCell id="xHDOe705Et2D6xl1JB1Q-25" value="&lt;div style=&quot;font-size: 30px;&quot;&gt;B-A&lt;/div&gt;" style="text;strokeColor=none;fillColor=none;spacingLeft=4;spacingRight=4;overflow=hidden;rotatable=0;points=[[0,0.5],[1,0.5]];portConstraint=eastwest;fontSize=30;whiteSpace=wrap;html=1;fontFamily=Helvetica;" parent="1" vertex="1">
          <mxGeometry x="1480" y="560" width="70" height="40" as="geometry" />
        </mxCell>
        <mxCell id="xHDOe705Et2D6xl1JB1Q-26" value="&lt;div style=&quot;font-size: 30px;&quot;&gt;B-C&lt;/div&gt;" style="text;strokeColor=none;fillColor=none;spacingLeft=4;spacingRight=4;overflow=hidden;rotatable=0;points=[[0,0.5],[1,0.5]];portConstraint=eastwest;fontSize=30;whiteSpace=wrap;html=1;fontFamily=Helvetica;" parent="1" vertex="1">
          <mxGeometry x="1660" y="560" width="70" height="40" as="geometry" />
        </mxCell>
        <mxCell id="xHDOe705Et2D6xl1JB1Q-27" value="C-A" style="text;strokeColor=none;fillColor=none;spacingLeft=4;spacingRight=4;overflow=hidden;rotatable=0;points=[[0,0.5],[1,0.5]];portConstraint=eastwest;fontSize=30;whiteSpace=wrap;html=1;fontFamily=Helvetica;" parent="1" vertex="1">
          <mxGeometry x="1810" y="560" width="70" height="40" as="geometry" />
        </mxCell>
        <mxCell id="xHDOe705Et2D6xl1JB1Q-28" value="C-B" style="text;strokeColor=none;fillColor=none;spacingLeft=4;spacingRight=4;overflow=hidden;rotatable=0;points=[[0,0.5],[1,0.5]];portConstraint=eastwest;fontSize=30;whiteSpace=wrap;html=1;fontFamily=Helvetica;" parent="1" vertex="1">
          <mxGeometry x="2020" y="560" width="70" height="40" as="geometry" />
        </mxCell>
        <mxCell id="xHDOe705Et2D6xl1JB1Q-29" value="&lt;font style=&quot;font-size: 30px;&quot;&gt;&lt;b style=&quot;font-size: 30px;&quot;&gt;μ&lt;/b&gt;&lt;/font&gt;" style="ellipse;whiteSpace=wrap;html=1;aspect=fixed;fontSize=30;" parent="1" vertex="1">
          <mxGeometry x="1560" y="840" width="80" height="80" as="geometry" />
        </mxCell>
        <mxCell id="xHDOe705Et2D6xl1JB1Q-30" value="&lt;b&gt;0&lt;/b&gt;" style="ellipse;whiteSpace=wrap;html=1;aspect=fixed;fontSize=30;" parent="1" vertex="1">
          <mxGeometry x="1560" y="1080" width="80" height="80" as="geometry" />
        </mxCell>
        <mxCell id="xHDOe705Et2D6xl1JB1Q-31" value="&lt;b&gt;1&lt;/b&gt;" style="ellipse;whiteSpace=wrap;html=1;aspect=fixed;fontSize=30;" parent="1" vertex="1">
          <mxGeometry x="1280" y="1080" width="80" height="80" as="geometry" />
        </mxCell>
        <mxCell id="xHDOe705Et2D6xl1JB1Q-32" value="&lt;b&gt;x&lt;/b&gt;" style="ellipse;whiteSpace=wrap;html=1;aspect=fixed;fontSize=30;" parent="1" vertex="1">
          <mxGeometry x="1840" y="1080" width="80" height="80" as="geometry" />
        </mxCell>
        <mxCell id="xHDOe705Et2D6xl1JB1Q-33" value="" style="endArrow=none;html=1;rounded=0;" parent="1" source="xHDOe705Et2D6xl1JB1Q-29" target="xHDOe705Et2D6xl1JB1Q-31" edge="1">
          <mxGeometry relative="1" as="geometry">
            <mxPoint x="1510" y="1160" as="sourcePoint" />
            <mxPoint x="1670" y="1160" as="targetPoint" />
          </mxGeometry>
        </mxCell>
        <mxCell id="xHDOe705Et2D6xl1JB1Q-34" value="&lt;b&gt;1&lt;/b&gt;" style="ellipse;whiteSpace=wrap;html=1;aspect=fixed;fontSize=30;" parent="1" vertex="1">
          <mxGeometry x="1040" y="1280" width="80" height="80" as="geometry" />
        </mxCell>
        <mxCell id="xHDOe705Et2D6xl1JB1Q-35" value="&lt;b&gt;z&lt;/b&gt;" style="ellipse;whiteSpace=wrap;html=1;aspect=fixed;fontSize=30;" parent="1" vertex="1">
          <mxGeometry x="1280" y="1280" width="80" height="80" as="geometry" />
        </mxCell>
        <mxCell id="xHDOe705Et2D6xl1JB1Q-36" value="&lt;b&gt;0&lt;/b&gt;" style="ellipse;whiteSpace=wrap;html=1;aspect=fixed;fontSize=30;" parent="1" vertex="1">
          <mxGeometry x="1660" y="1280" width="80" height="80" as="geometry" />
        </mxCell>
        <mxCell id="xHDOe705Et2D6xl1JB1Q-37" value="&lt;b&gt;0&lt;/b&gt;" style="ellipse;whiteSpace=wrap;html=1;aspect=fixed;fontSize=30;" parent="1" vertex="1">
          <mxGeometry x="1460" y="1280" width="80" height="80" as="geometry" />
        </mxCell>
        <mxCell id="xHDOe705Et2D6xl1JB1Q-38" value="&lt;b&gt;x&lt;/b&gt;" style="ellipse;whiteSpace=wrap;html=1;aspect=fixed;fontSize=30;" parent="1" vertex="1">
          <mxGeometry x="1840" y="1280" width="80" height="80" as="geometry" />
        </mxCell>
        <mxCell id="xHDOe705Et2D6xl1JB1Q-39" value="&lt;b&gt;x&lt;/b&gt;" style="ellipse;whiteSpace=wrap;html=1;aspect=fixed;fontSize=30;" parent="1" vertex="1">
          <mxGeometry x="2080" y="1280" width="80" height="80" as="geometry" />
        </mxCell>
        <mxCell id="xHDOe705Et2D6xl1JB1Q-40" value="" style="endArrow=none;html=1;rounded=0;" parent="1" source="xHDOe705Et2D6xl1JB1Q-29" target="xHDOe705Et2D6xl1JB1Q-32" edge="1">
          <mxGeometry relative="1" as="geometry">
            <mxPoint x="1580" y="916" as="sourcePoint" />
            <mxPoint x="1360" y="1104" as="targetPoint" />
          </mxGeometry>
        </mxCell>
        <mxCell id="xHDOe705Et2D6xl1JB1Q-41" value="" style="endArrow=none;html=1;rounded=0;" parent="1" source="xHDOe705Et2D6xl1JB1Q-29" target="xHDOe705Et2D6xl1JB1Q-30" edge="1">
          <mxGeometry relative="1" as="geometry">
            <mxPoint x="1610" y="990" as="sourcePoint" />
            <mxPoint x="1830" y="1178" as="targetPoint" />
          </mxGeometry>
        </mxCell>
        <mxCell id="xHDOe705Et2D6xl1JB1Q-42" value="" style="endArrow=none;html=1;rounded=0;" parent="1" source="xHDOe705Et2D6xl1JB1Q-30" target="xHDOe705Et2D6xl1JB1Q-36" edge="1">
          <mxGeometry relative="1" as="geometry">
            <mxPoint x="1750" y="1110" as="sourcePoint" />
            <mxPoint x="1750" y="1270" as="targetPoint" />
          </mxGeometry>
        </mxCell>
        <mxCell id="xHDOe705Et2D6xl1JB1Q-43" value="" style="endArrow=none;html=1;rounded=0;" parent="1" source="xHDOe705Et2D6xl1JB1Q-30" target="xHDOe705Et2D6xl1JB1Q-37" edge="1">
          <mxGeometry relative="1" as="geometry">
            <mxPoint x="1625" y="1167" as="sourcePoint" />
            <mxPoint x="1675" y="1293" as="targetPoint" />
          </mxGeometry>
        </mxCell>
        <mxCell id="xHDOe705Et2D6xl1JB1Q-44" value="" style="endArrow=none;html=1;rounded=0;" parent="1" source="xHDOe705Et2D6xl1JB1Q-32" target="xHDOe705Et2D6xl1JB1Q-38" edge="1">
          <mxGeometry relative="1" as="geometry">
            <mxPoint x="1740" y="1154" as="sourcePoint" />
            <mxPoint x="1790" y="1280" as="targetPoint" />
          </mxGeometry>
        </mxCell>
        <mxCell id="xHDOe705Et2D6xl1JB1Q-45" value="" style="endArrow=none;html=1;rounded=0;" parent="1" source="xHDOe705Et2D6xl1JB1Q-32" target="xHDOe705Et2D6xl1JB1Q-39" edge="1">
          <mxGeometry relative="1" as="geometry">
            <mxPoint x="1882" y="1169" as="sourcePoint" />
            <mxPoint x="1858" y="1291" as="targetPoint" />
          </mxGeometry>
        </mxCell>
        <mxCell id="xHDOe705Et2D6xl1JB1Q-46" value="" style="endArrow=none;html=1;rounded=0;" parent="1" source="xHDOe705Et2D6xl1JB1Q-31" target="xHDOe705Et2D6xl1JB1Q-35" edge="1">
          <mxGeometry relative="1" as="geometry">
            <mxPoint x="1510" y="1092" as="sourcePoint" />
            <mxPoint x="1290" y="1280" as="targetPoint" />
          </mxGeometry>
        </mxCell>
        <mxCell id="xHDOe705Et2D6xl1JB1Q-47" value="" style="endArrow=none;html=1;rounded=0;" parent="1" source="xHDOe705Et2D6xl1JB1Q-31" target="xHDOe705Et2D6xl1JB1Q-34" edge="1">
          <mxGeometry relative="1" as="geometry">
            <mxPoint x="1400" y="1350" as="sourcePoint" />
            <mxPoint x="1180" y="1538" as="targetPoint" />
          </mxGeometry>
        </mxCell>
        <mxCell id="xHDOe705Et2D6xl1JB1Q-48" value="&lt;font style=&quot;font-size: 30px;&quot; face=&quot;Helvetica&quot;&gt;A&lt;/font&gt;" style="text;strokeColor=none;fillColor=none;spacingLeft=4;spacingRight=4;overflow=hidden;rotatable=0;points=[[0,0.5],[1,0.5]];portConstraint=eastwest;fontSize=20;whiteSpace=wrap;html=1;fontFamily=Verdana;" parent="1" vertex="1">
          <mxGeometry x="1420" y="960" width="30" height="40" as="geometry" />
        </mxCell>
        <mxCell id="xHDOe705Et2D6xl1JB1Q-49" value="&lt;font style=&quot;font-size: 30px;&quot; face=&quot;Helvetica&quot;&gt;B&lt;/font&gt;" style="text;strokeColor=none;fillColor=none;spacingLeft=4;spacingRight=4;overflow=hidden;rotatable=0;points=[[0,0.5],[1,0.5]];portConstraint=eastwest;fontSize=20;whiteSpace=wrap;html=1;fontFamily=Verdana;" parent="1" vertex="1">
          <mxGeometry x="1560" y="960" width="30" height="40" as="geometry" />
        </mxCell>
        <mxCell id="xHDOe705Et2D6xl1JB1Q-50" value="&lt;font style=&quot;font-size: 30px;&quot; face=&quot;Helvetica&quot;&gt;C&lt;/font&gt;" style="text;strokeColor=none;fillColor=none;spacingLeft=4;spacingRight=4;overflow=hidden;rotatable=0;points=[[0,0.5],[1,0.5]];portConstraint=eastwest;fontSize=20;whiteSpace=wrap;html=1;fontFamily=Verdana;" parent="1" vertex="1">
          <mxGeometry x="1740" y="960" width="30" height="40" as="geometry" />
        </mxCell>
        <mxCell id="xHDOe705Et2D6xl1JB1Q-51" value="&lt;div style=&quot;font-size: 30px;&quot;&gt;A-B&lt;/div&gt;" style="text;strokeColor=none;fillColor=none;spacingLeft=4;spacingRight=4;overflow=hidden;rotatable=0;points=[[0,0.5],[1,0.5]];portConstraint=eastwest;fontSize=30;whiteSpace=wrap;html=1;fontFamily=Helvetica;" parent="1" vertex="1">
          <mxGeometry x="1120" y="1200" width="70" height="40" as="geometry" />
        </mxCell>
        <mxCell id="xHDOe705Et2D6xl1JB1Q-52" value="&lt;div style=&quot;font-size: 30px;&quot;&gt;A-C&lt;/div&gt;" style="text;strokeColor=none;fillColor=none;spacingLeft=4;spacingRight=4;overflow=hidden;rotatable=0;points=[[0,0.5],[1,0.5]];portConstraint=eastwest;fontSize=30;whiteSpace=wrap;html=1;fontFamily=Helvetica;" parent="1" vertex="1">
          <mxGeometry x="1330" y="1200" width="70" height="40" as="geometry" />
        </mxCell>
        <mxCell id="xHDOe705Et2D6xl1JB1Q-53" value="&lt;div style=&quot;font-size: 30px;&quot;&gt;B-A&lt;/div&gt;" style="text;strokeColor=none;fillColor=none;spacingLeft=4;spacingRight=4;overflow=hidden;rotatable=0;points=[[0,0.5],[1,0.5]];portConstraint=eastwest;fontSize=30;whiteSpace=wrap;html=1;fontFamily=Helvetica;" parent="1" vertex="1">
          <mxGeometry x="1480" y="1200" width="70" height="40" as="geometry" />
        </mxCell>
        <mxCell id="xHDOe705Et2D6xl1JB1Q-54" value="&lt;div style=&quot;font-size: 30px;&quot;&gt;B-C&lt;/div&gt;" style="text;strokeColor=none;fillColor=none;spacingLeft=4;spacingRight=4;overflow=hidden;rotatable=0;points=[[0,0.5],[1,0.5]];portConstraint=eastwest;fontSize=30;whiteSpace=wrap;html=1;fontFamily=Helvetica;" parent="1" vertex="1">
          <mxGeometry x="1660" y="1200" width="70" height="40" as="geometry" />
        </mxCell>
        <mxCell id="xHDOe705Et2D6xl1JB1Q-55" value="C-A" style="text;strokeColor=none;fillColor=none;spacingLeft=4;spacingRight=4;overflow=hidden;rotatable=0;points=[[0,0.5],[1,0.5]];portConstraint=eastwest;fontSize=30;whiteSpace=wrap;html=1;fontFamily=Helvetica;" parent="1" vertex="1">
          <mxGeometry x="1810" y="1200" width="70" height="40" as="geometry" />
        </mxCell>
        <mxCell id="xHDOe705Et2D6xl1JB1Q-56" value="C-B" style="text;strokeColor=none;fillColor=none;spacingLeft=4;spacingRight=4;overflow=hidden;rotatable=0;points=[[0,0.5],[1,0.5]];portConstraint=eastwest;fontSize=30;whiteSpace=wrap;html=1;fontFamily=Helvetica;" parent="1" vertex="1">
          <mxGeometry x="2020" y="1200" width="70" height="40" as="geometry" />
        </mxCell>
        <mxCell id="xHDOe705Et2D6xl1JB1Q-57" value="Albero di A" style="rounded=1;whiteSpace=wrap;html=1;fontSize=20;" parent="1" vertex="1">
          <mxGeometry x="1400" y="160" width="120" height="80" as="geometry" />
        </mxCell>
        <mxCell id="xHDOe705Et2D6xl1JB1Q-58" value="Albero di B" style="rounded=1;whiteSpace=wrap;html=1;fontSize=20;" parent="1" vertex="1">
          <mxGeometry x="1400" y="800" width="120" height="80" as="geometry" />
        </mxCell>
      </root>
    </mxGraphModel>
  </diagram>
  <diagram name="A1B0-CALC" id="g9WO3aOo-7R7C892ILeg">
    <mxGraphModel dx="2010" dy="1210" grid="1" gridSize="10" guides="1" tooltips="1" connect="1" arrows="1" fold="1" page="1" pageScale="1" pageWidth="3300" pageHeight="4681" math="0" shadow="0">
      <root>
        <mxCell id="iSBGxQeIrH_pIFPTe5mR-0" />
        <mxCell id="iSBGxQeIrH_pIFPTe5mR-1" parent="iSBGxQeIrH_pIFPTe5mR-0" />
        <mxCell id="iSBGxQeIrH_pIFPTe5mR-2" value="&lt;font style=&quot;font-size: 30px;&quot;&gt;&lt;b style=&quot;font-size: 30px;&quot;&gt;λ&lt;/b&gt;&lt;/font&gt;" style="ellipse;whiteSpace=wrap;html=1;aspect=fixed;fontSize=30;" parent="iSBGxQeIrH_pIFPTe5mR-1" vertex="1">
          <mxGeometry x="1560" y="200" width="80" height="80" as="geometry" />
        </mxCell>
        <mxCell id="iSBGxQeIrH_pIFPTe5mR-3" value="&lt;b&gt;?&lt;/b&gt;" style="ellipse;whiteSpace=wrap;html=1;aspect=fixed;fontSize=30;" parent="iSBGxQeIrH_pIFPTe5mR-1" vertex="1">
          <mxGeometry x="1560" y="440" width="80" height="80" as="geometry" />
        </mxCell>
        <mxCell id="iSBGxQeIrH_pIFPTe5mR-4" value="&lt;b&gt;1&lt;/b&gt;" style="ellipse;whiteSpace=wrap;html=1;aspect=fixed;fontSize=30;" parent="iSBGxQeIrH_pIFPTe5mR-1" vertex="1">
          <mxGeometry x="1280" y="440" width="80" height="80" as="geometry" />
        </mxCell>
        <mxCell id="iSBGxQeIrH_pIFPTe5mR-5" value="&lt;b&gt;x&lt;/b&gt;" style="ellipse;whiteSpace=wrap;html=1;aspect=fixed;fontSize=30;" parent="iSBGxQeIrH_pIFPTe5mR-1" vertex="1">
          <mxGeometry x="1840" y="440" width="80" height="80" as="geometry" />
        </mxCell>
        <mxCell id="iSBGxQeIrH_pIFPTe5mR-6" value="" style="endArrow=none;html=1;rounded=0;" parent="iSBGxQeIrH_pIFPTe5mR-1" source="iSBGxQeIrH_pIFPTe5mR-2" target="iSBGxQeIrH_pIFPTe5mR-4" edge="1">
          <mxGeometry relative="1" as="geometry">
            <mxPoint x="1510" y="520" as="sourcePoint" />
            <mxPoint x="1670" y="520" as="targetPoint" />
          </mxGeometry>
        </mxCell>
        <mxCell id="iSBGxQeIrH_pIFPTe5mR-7" value="&lt;b&gt;1&lt;/b&gt;" style="ellipse;whiteSpace=wrap;html=1;aspect=fixed;fontSize=30;" parent="iSBGxQeIrH_pIFPTe5mR-1" vertex="1">
          <mxGeometry x="1040" y="640" width="80" height="80" as="geometry" />
        </mxCell>
        <mxCell id="iSBGxQeIrH_pIFPTe5mR-8" value="&lt;b&gt;1&lt;/b&gt;" style="ellipse;whiteSpace=wrap;html=1;aspect=fixed;fontSize=30;" parent="iSBGxQeIrH_pIFPTe5mR-1" vertex="1">
          <mxGeometry x="1280" y="640" width="80" height="80" as="geometry" />
        </mxCell>
        <mxCell id="iSBGxQeIrH_pIFPTe5mR-9" value="&lt;b&gt;y&lt;/b&gt;" style="ellipse;whiteSpace=wrap;html=1;aspect=fixed;fontSize=30;" parent="iSBGxQeIrH_pIFPTe5mR-1" vertex="1">
          <mxGeometry x="1660" y="640" width="80" height="80" as="geometry" />
        </mxCell>
        <mxCell id="iSBGxQeIrH_pIFPTe5mR-10" value="&lt;b&gt;0&lt;/b&gt;" style="ellipse;whiteSpace=wrap;html=1;aspect=fixed;fontSize=30;" parent="iSBGxQeIrH_pIFPTe5mR-1" vertex="1">
          <mxGeometry x="1460" y="640" width="80" height="80" as="geometry" />
        </mxCell>
        <mxCell id="iSBGxQeIrH_pIFPTe5mR-11" value="&lt;b&gt;x&lt;/b&gt;" style="ellipse;whiteSpace=wrap;html=1;aspect=fixed;fontSize=30;" parent="iSBGxQeIrH_pIFPTe5mR-1" vertex="1">
          <mxGeometry x="1840" y="640" width="80" height="80" as="geometry" />
        </mxCell>
        <mxCell id="iSBGxQeIrH_pIFPTe5mR-12" value="&lt;b&gt;x&lt;/b&gt;" style="ellipse;whiteSpace=wrap;html=1;aspect=fixed;fontSize=30;" parent="iSBGxQeIrH_pIFPTe5mR-1" vertex="1">
          <mxGeometry x="2080" y="640" width="80" height="80" as="geometry" />
        </mxCell>
        <mxCell id="iSBGxQeIrH_pIFPTe5mR-13" value="" style="endArrow=none;html=1;rounded=0;" parent="iSBGxQeIrH_pIFPTe5mR-1" source="iSBGxQeIrH_pIFPTe5mR-2" target="iSBGxQeIrH_pIFPTe5mR-5" edge="1">
          <mxGeometry relative="1" as="geometry">
            <mxPoint x="1580" y="276" as="sourcePoint" />
            <mxPoint x="1360" y="464" as="targetPoint" />
          </mxGeometry>
        </mxCell>
        <mxCell id="iSBGxQeIrH_pIFPTe5mR-14" value="" style="endArrow=none;html=1;rounded=0;" parent="iSBGxQeIrH_pIFPTe5mR-1" source="iSBGxQeIrH_pIFPTe5mR-2" target="iSBGxQeIrH_pIFPTe5mR-3" edge="1">
          <mxGeometry relative="1" as="geometry">
            <mxPoint x="1610" y="350" as="sourcePoint" />
            <mxPoint x="1830" y="538" as="targetPoint" />
          </mxGeometry>
        </mxCell>
        <mxCell id="iSBGxQeIrH_pIFPTe5mR-15" value="" style="endArrow=none;html=1;rounded=0;" parent="iSBGxQeIrH_pIFPTe5mR-1" source="iSBGxQeIrH_pIFPTe5mR-3" target="iSBGxQeIrH_pIFPTe5mR-9" edge="1">
          <mxGeometry relative="1" as="geometry">
            <mxPoint x="1750" y="470" as="sourcePoint" />
            <mxPoint x="1750" y="630" as="targetPoint" />
          </mxGeometry>
        </mxCell>
        <mxCell id="iSBGxQeIrH_pIFPTe5mR-16" value="" style="endArrow=none;html=1;rounded=0;" parent="iSBGxQeIrH_pIFPTe5mR-1" source="iSBGxQeIrH_pIFPTe5mR-3" target="iSBGxQeIrH_pIFPTe5mR-10" edge="1">
          <mxGeometry relative="1" as="geometry">
            <mxPoint x="1625" y="527" as="sourcePoint" />
            <mxPoint x="1675" y="653" as="targetPoint" />
          </mxGeometry>
        </mxCell>
        <mxCell id="iSBGxQeIrH_pIFPTe5mR-17" value="" style="endArrow=none;html=1;rounded=0;" parent="iSBGxQeIrH_pIFPTe5mR-1" source="iSBGxQeIrH_pIFPTe5mR-5" target="iSBGxQeIrH_pIFPTe5mR-11" edge="1">
          <mxGeometry relative="1" as="geometry">
            <mxPoint x="1740" y="514" as="sourcePoint" />
            <mxPoint x="1790" y="640" as="targetPoint" />
          </mxGeometry>
        </mxCell>
        <mxCell id="iSBGxQeIrH_pIFPTe5mR-18" value="" style="endArrow=none;html=1;rounded=0;" parent="iSBGxQeIrH_pIFPTe5mR-1" source="iSBGxQeIrH_pIFPTe5mR-5" target="iSBGxQeIrH_pIFPTe5mR-12" edge="1">
          <mxGeometry relative="1" as="geometry">
            <mxPoint x="1882" y="529" as="sourcePoint" />
            <mxPoint x="1858" y="651" as="targetPoint" />
          </mxGeometry>
        </mxCell>
        <mxCell id="iSBGxQeIrH_pIFPTe5mR-19" value="" style="endArrow=none;html=1;rounded=0;" parent="iSBGxQeIrH_pIFPTe5mR-1" source="iSBGxQeIrH_pIFPTe5mR-4" target="iSBGxQeIrH_pIFPTe5mR-8" edge="1">
          <mxGeometry relative="1" as="geometry">
            <mxPoint x="1510" y="452" as="sourcePoint" />
            <mxPoint x="1290" y="640" as="targetPoint" />
          </mxGeometry>
        </mxCell>
        <mxCell id="iSBGxQeIrH_pIFPTe5mR-20" value="" style="endArrow=none;html=1;rounded=0;" parent="iSBGxQeIrH_pIFPTe5mR-1" source="iSBGxQeIrH_pIFPTe5mR-4" target="iSBGxQeIrH_pIFPTe5mR-7" edge="1">
          <mxGeometry relative="1" as="geometry">
            <mxPoint x="1400" y="710" as="sourcePoint" />
            <mxPoint x="1180" y="898" as="targetPoint" />
          </mxGeometry>
        </mxCell>
        <mxCell id="iSBGxQeIrH_pIFPTe5mR-21" value="&lt;font style=&quot;font-size: 30px;&quot; face=&quot;Helvetica&quot;&gt;A&lt;/font&gt;" style="text;strokeColor=none;fillColor=none;spacingLeft=4;spacingRight=4;overflow=hidden;rotatable=0;points=[[0,0.5],[1,0.5]];portConstraint=eastwest;fontSize=20;whiteSpace=wrap;html=1;fontFamily=Verdana;" parent="iSBGxQeIrH_pIFPTe5mR-1" vertex="1">
          <mxGeometry x="1420" y="320" width="30" height="40" as="geometry" />
        </mxCell>
        <mxCell id="iSBGxQeIrH_pIFPTe5mR-22" value="&lt;font style=&quot;font-size: 30px;&quot; face=&quot;Helvetica&quot;&gt;B&lt;/font&gt;" style="text;strokeColor=none;fillColor=none;spacingLeft=4;spacingRight=4;overflow=hidden;rotatable=0;points=[[0,0.5],[1,0.5]];portConstraint=eastwest;fontSize=20;whiteSpace=wrap;html=1;fontFamily=Verdana;" parent="iSBGxQeIrH_pIFPTe5mR-1" vertex="1">
          <mxGeometry x="1560" y="320" width="30" height="40" as="geometry" />
        </mxCell>
        <mxCell id="iSBGxQeIrH_pIFPTe5mR-23" value="&lt;font style=&quot;font-size: 30px;&quot; face=&quot;Helvetica&quot;&gt;C&lt;/font&gt;" style="text;strokeColor=none;fillColor=none;spacingLeft=4;spacingRight=4;overflow=hidden;rotatable=0;points=[[0,0.5],[1,0.5]];portConstraint=eastwest;fontSize=20;whiteSpace=wrap;html=1;fontFamily=Verdana;" parent="iSBGxQeIrH_pIFPTe5mR-1" vertex="1">
          <mxGeometry x="1740" y="320" width="30" height="40" as="geometry" />
        </mxCell>
        <mxCell id="iSBGxQeIrH_pIFPTe5mR-24" value="&lt;div style=&quot;font-size: 30px;&quot;&gt;A-B&lt;/div&gt;" style="text;strokeColor=none;fillColor=none;spacingLeft=4;spacingRight=4;overflow=hidden;rotatable=0;points=[[0,0.5],[1,0.5]];portConstraint=eastwest;fontSize=30;whiteSpace=wrap;html=1;fontFamily=Helvetica;" parent="iSBGxQeIrH_pIFPTe5mR-1" vertex="1">
          <mxGeometry x="1120" y="560" width="70" height="40" as="geometry" />
        </mxCell>
        <mxCell id="iSBGxQeIrH_pIFPTe5mR-25" value="&lt;div style=&quot;font-size: 30px;&quot;&gt;A-C&lt;/div&gt;" style="text;strokeColor=none;fillColor=none;spacingLeft=4;spacingRight=4;overflow=hidden;rotatable=0;points=[[0,0.5],[1,0.5]];portConstraint=eastwest;fontSize=30;whiteSpace=wrap;html=1;fontFamily=Helvetica;" parent="iSBGxQeIrH_pIFPTe5mR-1" vertex="1">
          <mxGeometry x="1330" y="560" width="70" height="40" as="geometry" />
        </mxCell>
        <mxCell id="iSBGxQeIrH_pIFPTe5mR-26" value="&lt;div style=&quot;font-size: 30px;&quot;&gt;B-A&lt;/div&gt;" style="text;strokeColor=none;fillColor=none;spacingLeft=4;spacingRight=4;overflow=hidden;rotatable=0;points=[[0,0.5],[1,0.5]];portConstraint=eastwest;fontSize=30;whiteSpace=wrap;html=1;fontFamily=Helvetica;" parent="iSBGxQeIrH_pIFPTe5mR-1" vertex="1">
          <mxGeometry x="1480" y="560" width="70" height="40" as="geometry" />
        </mxCell>
        <mxCell id="iSBGxQeIrH_pIFPTe5mR-27" value="&lt;div style=&quot;font-size: 30px;&quot;&gt;B-C&lt;/div&gt;" style="text;strokeColor=none;fillColor=none;spacingLeft=4;spacingRight=4;overflow=hidden;rotatable=0;points=[[0,0.5],[1,0.5]];portConstraint=eastwest;fontSize=30;whiteSpace=wrap;html=1;fontFamily=Helvetica;" parent="iSBGxQeIrH_pIFPTe5mR-1" vertex="1">
          <mxGeometry x="1660" y="560" width="70" height="40" as="geometry" />
        </mxCell>
        <mxCell id="iSBGxQeIrH_pIFPTe5mR-28" value="C-A" style="text;strokeColor=none;fillColor=none;spacingLeft=4;spacingRight=4;overflow=hidden;rotatable=0;points=[[0,0.5],[1,0.5]];portConstraint=eastwest;fontSize=30;whiteSpace=wrap;html=1;fontFamily=Helvetica;" parent="iSBGxQeIrH_pIFPTe5mR-1" vertex="1">
          <mxGeometry x="1810" y="560" width="70" height="40" as="geometry" />
        </mxCell>
        <mxCell id="iSBGxQeIrH_pIFPTe5mR-29" value="C-B" style="text;strokeColor=none;fillColor=none;spacingLeft=4;spacingRight=4;overflow=hidden;rotatable=0;points=[[0,0.5],[1,0.5]];portConstraint=eastwest;fontSize=30;whiteSpace=wrap;html=1;fontFamily=Helvetica;" parent="iSBGxQeIrH_pIFPTe5mR-1" vertex="1">
          <mxGeometry x="2020" y="560" width="70" height="40" as="geometry" />
        </mxCell>
        <mxCell id="iSBGxQeIrH_pIFPTe5mR-30" value="&lt;font style=&quot;font-size: 30px;&quot;&gt;&lt;b style=&quot;font-size: 30px;&quot;&gt;μ&lt;/b&gt;&lt;/font&gt;" style="ellipse;whiteSpace=wrap;html=1;aspect=fixed;fontSize=30;" parent="iSBGxQeIrH_pIFPTe5mR-1" vertex="1">
          <mxGeometry x="1560" y="840" width="80" height="80" as="geometry" />
        </mxCell>
        <mxCell id="iSBGxQeIrH_pIFPTe5mR-31" value="&lt;b&gt;0&lt;/b&gt;" style="ellipse;whiteSpace=wrap;html=1;aspect=fixed;fontSize=30;" parent="iSBGxQeIrH_pIFPTe5mR-1" vertex="1">
          <mxGeometry x="1560" y="1080" width="80" height="80" as="geometry" />
        </mxCell>
        <mxCell id="iSBGxQeIrH_pIFPTe5mR-32" value="&lt;b&gt;?&lt;/b&gt;" style="ellipse;whiteSpace=wrap;html=1;aspect=fixed;fontSize=30;" parent="iSBGxQeIrH_pIFPTe5mR-1" vertex="1">
          <mxGeometry x="1280" y="1080" width="80" height="80" as="geometry" />
        </mxCell>
        <mxCell id="iSBGxQeIrH_pIFPTe5mR-33" value="&lt;b&gt;x&lt;/b&gt;" style="ellipse;whiteSpace=wrap;html=1;aspect=fixed;fontSize=30;" parent="iSBGxQeIrH_pIFPTe5mR-1" vertex="1">
          <mxGeometry x="1840" y="1080" width="80" height="80" as="geometry" />
        </mxCell>
        <mxCell id="iSBGxQeIrH_pIFPTe5mR-34" value="" style="endArrow=none;html=1;rounded=0;" parent="iSBGxQeIrH_pIFPTe5mR-1" source="iSBGxQeIrH_pIFPTe5mR-30" target="iSBGxQeIrH_pIFPTe5mR-32" edge="1">
          <mxGeometry relative="1" as="geometry">
            <mxPoint x="1510" y="1160" as="sourcePoint" />
            <mxPoint x="1670" y="1160" as="targetPoint" />
          </mxGeometry>
        </mxCell>
        <mxCell id="iSBGxQeIrH_pIFPTe5mR-35" value="&lt;b&gt;1&lt;/b&gt;" style="ellipse;whiteSpace=wrap;html=1;aspect=fixed;fontSize=30;" parent="iSBGxQeIrH_pIFPTe5mR-1" vertex="1">
          <mxGeometry x="1040" y="1280" width="80" height="80" as="geometry" />
        </mxCell>
        <mxCell id="iSBGxQeIrH_pIFPTe5mR-36" value="&lt;b&gt;z&lt;/b&gt;" style="ellipse;whiteSpace=wrap;html=1;aspect=fixed;fontSize=30;" parent="iSBGxQeIrH_pIFPTe5mR-1" vertex="1">
          <mxGeometry x="1280" y="1280" width="80" height="80" as="geometry" />
        </mxCell>
        <mxCell id="iSBGxQeIrH_pIFPTe5mR-37" value="&lt;b&gt;0&lt;/b&gt;" style="ellipse;whiteSpace=wrap;html=1;aspect=fixed;fontSize=30;" parent="iSBGxQeIrH_pIFPTe5mR-1" vertex="1">
          <mxGeometry x="1660" y="1280" width="80" height="80" as="geometry" />
        </mxCell>
        <mxCell id="iSBGxQeIrH_pIFPTe5mR-38" value="&lt;b&gt;0&lt;/b&gt;" style="ellipse;whiteSpace=wrap;html=1;aspect=fixed;fontSize=30;" parent="iSBGxQeIrH_pIFPTe5mR-1" vertex="1">
          <mxGeometry x="1460" y="1280" width="80" height="80" as="geometry" />
        </mxCell>
        <mxCell id="iSBGxQeIrH_pIFPTe5mR-39" value="&lt;b&gt;x&lt;/b&gt;" style="ellipse;whiteSpace=wrap;html=1;aspect=fixed;fontSize=30;" parent="iSBGxQeIrH_pIFPTe5mR-1" vertex="1">
          <mxGeometry x="1840" y="1280" width="80" height="80" as="geometry" />
        </mxCell>
        <mxCell id="iSBGxQeIrH_pIFPTe5mR-40" value="&lt;b&gt;x&lt;/b&gt;" style="ellipse;whiteSpace=wrap;html=1;aspect=fixed;fontSize=30;" parent="iSBGxQeIrH_pIFPTe5mR-1" vertex="1">
          <mxGeometry x="2080" y="1280" width="80" height="80" as="geometry" />
        </mxCell>
        <mxCell id="iSBGxQeIrH_pIFPTe5mR-41" value="" style="endArrow=none;html=1;rounded=0;" parent="iSBGxQeIrH_pIFPTe5mR-1" source="iSBGxQeIrH_pIFPTe5mR-30" target="iSBGxQeIrH_pIFPTe5mR-33" edge="1">
          <mxGeometry relative="1" as="geometry">
            <mxPoint x="1580" y="916" as="sourcePoint" />
            <mxPoint x="1360" y="1104" as="targetPoint" />
          </mxGeometry>
        </mxCell>
        <mxCell id="iSBGxQeIrH_pIFPTe5mR-42" value="" style="endArrow=none;html=1;rounded=0;" parent="iSBGxQeIrH_pIFPTe5mR-1" source="iSBGxQeIrH_pIFPTe5mR-30" target="iSBGxQeIrH_pIFPTe5mR-31" edge="1">
          <mxGeometry relative="1" as="geometry">
            <mxPoint x="1610" y="990" as="sourcePoint" />
            <mxPoint x="1830" y="1178" as="targetPoint" />
          </mxGeometry>
        </mxCell>
        <mxCell id="iSBGxQeIrH_pIFPTe5mR-43" value="" style="endArrow=none;html=1;rounded=0;" parent="iSBGxQeIrH_pIFPTe5mR-1" source="iSBGxQeIrH_pIFPTe5mR-31" target="iSBGxQeIrH_pIFPTe5mR-37" edge="1">
          <mxGeometry relative="1" as="geometry">
            <mxPoint x="1750" y="1110" as="sourcePoint" />
            <mxPoint x="1750" y="1270" as="targetPoint" />
          </mxGeometry>
        </mxCell>
        <mxCell id="iSBGxQeIrH_pIFPTe5mR-44" value="" style="endArrow=none;html=1;rounded=0;" parent="iSBGxQeIrH_pIFPTe5mR-1" source="iSBGxQeIrH_pIFPTe5mR-31" target="iSBGxQeIrH_pIFPTe5mR-38" edge="1">
          <mxGeometry relative="1" as="geometry">
            <mxPoint x="1625" y="1167" as="sourcePoint" />
            <mxPoint x="1675" y="1293" as="targetPoint" />
          </mxGeometry>
        </mxCell>
        <mxCell id="iSBGxQeIrH_pIFPTe5mR-45" value="" style="endArrow=none;html=1;rounded=0;" parent="iSBGxQeIrH_pIFPTe5mR-1" source="iSBGxQeIrH_pIFPTe5mR-33" target="iSBGxQeIrH_pIFPTe5mR-39" edge="1">
          <mxGeometry relative="1" as="geometry">
            <mxPoint x="1740" y="1154" as="sourcePoint" />
            <mxPoint x="1790" y="1280" as="targetPoint" />
          </mxGeometry>
        </mxCell>
        <mxCell id="iSBGxQeIrH_pIFPTe5mR-46" value="" style="endArrow=none;html=1;rounded=0;" parent="iSBGxQeIrH_pIFPTe5mR-1" source="iSBGxQeIrH_pIFPTe5mR-33" target="iSBGxQeIrH_pIFPTe5mR-40" edge="1">
          <mxGeometry relative="1" as="geometry">
            <mxPoint x="1882" y="1169" as="sourcePoint" />
            <mxPoint x="1858" y="1291" as="targetPoint" />
          </mxGeometry>
        </mxCell>
        <mxCell id="iSBGxQeIrH_pIFPTe5mR-47" value="" style="endArrow=none;html=1;rounded=0;" parent="iSBGxQeIrH_pIFPTe5mR-1" source="iSBGxQeIrH_pIFPTe5mR-32" target="iSBGxQeIrH_pIFPTe5mR-36" edge="1">
          <mxGeometry relative="1" as="geometry">
            <mxPoint x="1510" y="1092" as="sourcePoint" />
            <mxPoint x="1290" y="1280" as="targetPoint" />
          </mxGeometry>
        </mxCell>
        <mxCell id="iSBGxQeIrH_pIFPTe5mR-48" value="" style="endArrow=none;html=1;rounded=0;" parent="iSBGxQeIrH_pIFPTe5mR-1" source="iSBGxQeIrH_pIFPTe5mR-32" target="iSBGxQeIrH_pIFPTe5mR-35" edge="1">
          <mxGeometry relative="1" as="geometry">
            <mxPoint x="1400" y="1350" as="sourcePoint" />
            <mxPoint x="1180" y="1538" as="targetPoint" />
          </mxGeometry>
        </mxCell>
        <mxCell id="iSBGxQeIrH_pIFPTe5mR-49" value="&lt;font style=&quot;font-size: 30px;&quot; face=&quot;Helvetica&quot;&gt;A&lt;/font&gt;" style="text;strokeColor=none;fillColor=none;spacingLeft=4;spacingRight=4;overflow=hidden;rotatable=0;points=[[0,0.5],[1,0.5]];portConstraint=eastwest;fontSize=20;whiteSpace=wrap;html=1;fontFamily=Verdana;" parent="iSBGxQeIrH_pIFPTe5mR-1" vertex="1">
          <mxGeometry x="1420" y="960" width="30" height="40" as="geometry" />
        </mxCell>
        <mxCell id="iSBGxQeIrH_pIFPTe5mR-50" value="&lt;font style=&quot;font-size: 30px;&quot; face=&quot;Helvetica&quot;&gt;B&lt;/font&gt;" style="text;strokeColor=none;fillColor=none;spacingLeft=4;spacingRight=4;overflow=hidden;rotatable=0;points=[[0,0.5],[1,0.5]];portConstraint=eastwest;fontSize=20;whiteSpace=wrap;html=1;fontFamily=Verdana;" parent="iSBGxQeIrH_pIFPTe5mR-1" vertex="1">
          <mxGeometry x="1560" y="960" width="30" height="40" as="geometry" />
        </mxCell>
        <mxCell id="iSBGxQeIrH_pIFPTe5mR-51" value="&lt;font style=&quot;font-size: 30px;&quot; face=&quot;Helvetica&quot;&gt;C&lt;/font&gt;" style="text;strokeColor=none;fillColor=none;spacingLeft=4;spacingRight=4;overflow=hidden;rotatable=0;points=[[0,0.5],[1,0.5]];portConstraint=eastwest;fontSize=20;whiteSpace=wrap;html=1;fontFamily=Verdana;" parent="iSBGxQeIrH_pIFPTe5mR-1" vertex="1">
          <mxGeometry x="1740" y="960" width="30" height="40" as="geometry" />
        </mxCell>
        <mxCell id="iSBGxQeIrH_pIFPTe5mR-52" value="&lt;div style=&quot;font-size: 30px;&quot;&gt;A-B&lt;/div&gt;" style="text;strokeColor=none;fillColor=none;spacingLeft=4;spacingRight=4;overflow=hidden;rotatable=0;points=[[0,0.5],[1,0.5]];portConstraint=eastwest;fontSize=30;whiteSpace=wrap;html=1;fontFamily=Helvetica;" parent="iSBGxQeIrH_pIFPTe5mR-1" vertex="1">
          <mxGeometry x="1120" y="1200" width="70" height="40" as="geometry" />
        </mxCell>
        <mxCell id="iSBGxQeIrH_pIFPTe5mR-53" value="&lt;div style=&quot;font-size: 30px;&quot;&gt;A-C&lt;/div&gt;" style="text;strokeColor=none;fillColor=none;spacingLeft=4;spacingRight=4;overflow=hidden;rotatable=0;points=[[0,0.5],[1,0.5]];portConstraint=eastwest;fontSize=30;whiteSpace=wrap;html=1;fontFamily=Helvetica;" parent="iSBGxQeIrH_pIFPTe5mR-1" vertex="1">
          <mxGeometry x="1330" y="1200" width="70" height="40" as="geometry" />
        </mxCell>
        <mxCell id="iSBGxQeIrH_pIFPTe5mR-54" value="&lt;div style=&quot;font-size: 30px;&quot;&gt;B-A&lt;/div&gt;" style="text;strokeColor=none;fillColor=none;spacingLeft=4;spacingRight=4;overflow=hidden;rotatable=0;points=[[0,0.5],[1,0.5]];portConstraint=eastwest;fontSize=30;whiteSpace=wrap;html=1;fontFamily=Helvetica;" parent="iSBGxQeIrH_pIFPTe5mR-1" vertex="1">
          <mxGeometry x="1480" y="1200" width="70" height="40" as="geometry" />
        </mxCell>
        <mxCell id="iSBGxQeIrH_pIFPTe5mR-55" value="&lt;div style=&quot;font-size: 30px;&quot;&gt;B-C&lt;/div&gt;" style="text;strokeColor=none;fillColor=none;spacingLeft=4;spacingRight=4;overflow=hidden;rotatable=0;points=[[0,0.5],[1,0.5]];portConstraint=eastwest;fontSize=30;whiteSpace=wrap;html=1;fontFamily=Helvetica;" parent="iSBGxQeIrH_pIFPTe5mR-1" vertex="1">
          <mxGeometry x="1660" y="1200" width="70" height="40" as="geometry" />
        </mxCell>
        <mxCell id="iSBGxQeIrH_pIFPTe5mR-56" value="C-A" style="text;strokeColor=none;fillColor=none;spacingLeft=4;spacingRight=4;overflow=hidden;rotatable=0;points=[[0,0.5],[1,0.5]];portConstraint=eastwest;fontSize=30;whiteSpace=wrap;html=1;fontFamily=Helvetica;" parent="iSBGxQeIrH_pIFPTe5mR-1" vertex="1">
          <mxGeometry x="1810" y="1200" width="70" height="40" as="geometry" />
        </mxCell>
        <mxCell id="iSBGxQeIrH_pIFPTe5mR-57" value="C-B" style="text;strokeColor=none;fillColor=none;spacingLeft=4;spacingRight=4;overflow=hidden;rotatable=0;points=[[0,0.5],[1,0.5]];portConstraint=eastwest;fontSize=30;whiteSpace=wrap;html=1;fontFamily=Helvetica;" parent="iSBGxQeIrH_pIFPTe5mR-1" vertex="1">
          <mxGeometry x="2020" y="1200" width="70" height="40" as="geometry" />
        </mxCell>
        <mxCell id="iSBGxQeIrH_pIFPTe5mR-58" value="Albero di A" style="rounded=1;whiteSpace=wrap;html=1;fontSize=20;" parent="iSBGxQeIrH_pIFPTe5mR-1" vertex="1">
          <mxGeometry x="1400" y="160" width="120" height="80" as="geometry" />
        </mxCell>
        <mxCell id="iSBGxQeIrH_pIFPTe5mR-59" value="Albero di B" style="rounded=1;whiteSpace=wrap;html=1;fontSize=20;" parent="iSBGxQeIrH_pIFPTe5mR-1" vertex="1">
          <mxGeometry x="1400" y="800" width="120" height="80" as="geometry" />
        </mxCell>
      </root>
    </mxGraphModel>
  </diagram>
  <diagram name="A1B0-C100" id="o1Bm_p7cV5t97s4P732C">
    <mxGraphModel dx="2345" dy="1412" grid="1" gridSize="10" guides="1" tooltips="1" connect="1" arrows="1" fold="1" page="1" pageScale="1" pageWidth="3300" pageHeight="4681" math="0" shadow="0">
      <root>
        <mxCell id="H085GItzDeLFplCG79yD-0" />
        <mxCell id="H085GItzDeLFplCG79yD-1" parent="H085GItzDeLFplCG79yD-0" />
        <mxCell id="H085GItzDeLFplCG79yD-2" value="&lt;font style=&quot;font-size: 30px;&quot;&gt;&lt;b style=&quot;font-size: 30px;&quot;&gt;λ=1&lt;/b&gt;&lt;/font&gt;" style="ellipse;whiteSpace=wrap;html=1;aspect=fixed;fontSize=30;" vertex="1" parent="H085GItzDeLFplCG79yD-1">
          <mxGeometry x="1560" y="200" width="80" height="80" as="geometry" />
        </mxCell>
        <mxCell id="H085GItzDeLFplCG79yD-3" value="&lt;b&gt;0&lt;/b&gt;" style="ellipse;whiteSpace=wrap;html=1;aspect=fixed;fontSize=30;" vertex="1" parent="H085GItzDeLFplCG79yD-1">
          <mxGeometry x="1560" y="440" width="80" height="80" as="geometry" />
        </mxCell>
        <mxCell id="H085GItzDeLFplCG79yD-4" value="&lt;b&gt;1&lt;/b&gt;" style="ellipse;whiteSpace=wrap;html=1;aspect=fixed;fontSize=30;" vertex="1" parent="H085GItzDeLFplCG79yD-1">
          <mxGeometry x="1280" y="440" width="80" height="80" as="geometry" />
        </mxCell>
        <mxCell id="H085GItzDeLFplCG79yD-5" value="&lt;b&gt;1&lt;/b&gt;" style="ellipse;whiteSpace=wrap;html=1;aspect=fixed;fontSize=30;" vertex="1" parent="H085GItzDeLFplCG79yD-1">
          <mxGeometry x="1840" y="440" width="80" height="80" as="geometry" />
        </mxCell>
        <mxCell id="H085GItzDeLFplCG79yD-6" value="" style="endArrow=none;html=1;rounded=0;" edge="1" parent="H085GItzDeLFplCG79yD-1" source="H085GItzDeLFplCG79yD-2" target="H085GItzDeLFplCG79yD-4">
          <mxGeometry relative="1" as="geometry">
            <mxPoint x="1510" y="520" as="sourcePoint" />
            <mxPoint x="1670" y="520" as="targetPoint" />
          </mxGeometry>
        </mxCell>
        <mxCell id="H085GItzDeLFplCG79yD-7" value="&lt;b&gt;1&lt;/b&gt;" style="ellipse;whiteSpace=wrap;html=1;aspect=fixed;fontSize=30;" vertex="1" parent="H085GItzDeLFplCG79yD-1">
          <mxGeometry x="1040" y="640" width="80" height="80" as="geometry" />
        </mxCell>
        <mxCell id="H085GItzDeLFplCG79yD-8" value="&lt;b&gt;1&lt;/b&gt;" style="ellipse;whiteSpace=wrap;html=1;aspect=fixed;fontSize=30;" vertex="1" parent="H085GItzDeLFplCG79yD-1">
          <mxGeometry x="1280" y="640" width="80" height="80" as="geometry" />
        </mxCell>
        <mxCell id="H085GItzDeLFplCG79yD-9" value="&lt;b&gt;y=0&lt;/b&gt;" style="ellipse;whiteSpace=wrap;html=1;aspect=fixed;fontSize=30;" vertex="1" parent="H085GItzDeLFplCG79yD-1">
          <mxGeometry x="1660" y="640" width="80" height="80" as="geometry" />
        </mxCell>
        <mxCell id="H085GItzDeLFplCG79yD-10" value="&lt;b&gt;0&lt;/b&gt;" style="ellipse;whiteSpace=wrap;html=1;aspect=fixed;fontSize=30;" vertex="1" parent="H085GItzDeLFplCG79yD-1">
          <mxGeometry x="1460" y="640" width="80" height="80" as="geometry" />
        </mxCell>
        <mxCell id="H085GItzDeLFplCG79yD-11" value="&lt;b&gt;x=1&lt;/b&gt;" style="ellipse;whiteSpace=wrap;html=1;aspect=fixed;fontSize=30;" vertex="1" parent="H085GItzDeLFplCG79yD-1">
          <mxGeometry x="1840" y="640" width="80" height="80" as="geometry" />
        </mxCell>
        <mxCell id="H085GItzDeLFplCG79yD-12" value="&lt;b&gt;x=1&lt;/b&gt;" style="ellipse;whiteSpace=wrap;html=1;aspect=fixed;fontSize=30;" vertex="1" parent="H085GItzDeLFplCG79yD-1">
          <mxGeometry x="2080" y="640" width="80" height="80" as="geometry" />
        </mxCell>
        <mxCell id="H085GItzDeLFplCG79yD-13" value="" style="endArrow=none;html=1;rounded=0;" edge="1" parent="H085GItzDeLFplCG79yD-1" source="H085GItzDeLFplCG79yD-2" target="H085GItzDeLFplCG79yD-5">
          <mxGeometry relative="1" as="geometry">
            <mxPoint x="1580" y="276" as="sourcePoint" />
            <mxPoint x="1360" y="464" as="targetPoint" />
          </mxGeometry>
        </mxCell>
        <mxCell id="H085GItzDeLFplCG79yD-14" value="" style="endArrow=none;html=1;rounded=0;" edge="1" parent="H085GItzDeLFplCG79yD-1" source="H085GItzDeLFplCG79yD-2" target="H085GItzDeLFplCG79yD-3">
          <mxGeometry relative="1" as="geometry">
            <mxPoint x="1610" y="350" as="sourcePoint" />
            <mxPoint x="1830" y="538" as="targetPoint" />
          </mxGeometry>
        </mxCell>
        <mxCell id="H085GItzDeLFplCG79yD-15" value="" style="endArrow=none;html=1;rounded=0;" edge="1" parent="H085GItzDeLFplCG79yD-1" source="H085GItzDeLFplCG79yD-3" target="H085GItzDeLFplCG79yD-9">
          <mxGeometry relative="1" as="geometry">
            <mxPoint x="1750" y="470" as="sourcePoint" />
            <mxPoint x="1750" y="630" as="targetPoint" />
          </mxGeometry>
        </mxCell>
        <mxCell id="H085GItzDeLFplCG79yD-16" value="" style="endArrow=none;html=1;rounded=0;" edge="1" parent="H085GItzDeLFplCG79yD-1" source="H085GItzDeLFplCG79yD-3" target="H085GItzDeLFplCG79yD-10">
          <mxGeometry relative="1" as="geometry">
            <mxPoint x="1625" y="527" as="sourcePoint" />
            <mxPoint x="1675" y="653" as="targetPoint" />
          </mxGeometry>
        </mxCell>
        <mxCell id="H085GItzDeLFplCG79yD-17" value="" style="endArrow=none;html=1;rounded=0;" edge="1" parent="H085GItzDeLFplCG79yD-1" source="H085GItzDeLFplCG79yD-5" target="H085GItzDeLFplCG79yD-11">
          <mxGeometry relative="1" as="geometry">
            <mxPoint x="1740" y="514" as="sourcePoint" />
            <mxPoint x="1790" y="640" as="targetPoint" />
          </mxGeometry>
        </mxCell>
        <mxCell id="H085GItzDeLFplCG79yD-18" value="" style="endArrow=none;html=1;rounded=0;" edge="1" parent="H085GItzDeLFplCG79yD-1" source="H085GItzDeLFplCG79yD-5" target="H085GItzDeLFplCG79yD-12">
          <mxGeometry relative="1" as="geometry">
            <mxPoint x="1882" y="529" as="sourcePoint" />
            <mxPoint x="1858" y="651" as="targetPoint" />
          </mxGeometry>
        </mxCell>
        <mxCell id="H085GItzDeLFplCG79yD-19" value="" style="endArrow=none;html=1;rounded=0;" edge="1" parent="H085GItzDeLFplCG79yD-1" source="H085GItzDeLFplCG79yD-4" target="H085GItzDeLFplCG79yD-8">
          <mxGeometry relative="1" as="geometry">
            <mxPoint x="1510" y="452" as="sourcePoint" />
            <mxPoint x="1290" y="640" as="targetPoint" />
          </mxGeometry>
        </mxCell>
        <mxCell id="H085GItzDeLFplCG79yD-20" value="" style="endArrow=none;html=1;rounded=0;" edge="1" parent="H085GItzDeLFplCG79yD-1" source="H085GItzDeLFplCG79yD-4" target="H085GItzDeLFplCG79yD-7">
          <mxGeometry relative="1" as="geometry">
            <mxPoint x="1400" y="710" as="sourcePoint" />
            <mxPoint x="1180" y="898" as="targetPoint" />
          </mxGeometry>
        </mxCell>
        <mxCell id="H085GItzDeLFplCG79yD-21" value="&lt;font style=&quot;font-size: 30px;&quot; face=&quot;Helvetica&quot;&gt;A&lt;/font&gt;" style="text;strokeColor=none;fillColor=none;spacingLeft=4;spacingRight=4;overflow=hidden;rotatable=0;points=[[0,0.5],[1,0.5]];portConstraint=eastwest;fontSize=20;whiteSpace=wrap;html=1;fontFamily=Verdana;" vertex="1" parent="H085GItzDeLFplCG79yD-1">
          <mxGeometry x="1420" y="320" width="30" height="40" as="geometry" />
        </mxCell>
        <mxCell id="H085GItzDeLFplCG79yD-22" value="&lt;font style=&quot;font-size: 30px;&quot; face=&quot;Helvetica&quot;&gt;B&lt;/font&gt;" style="text;strokeColor=none;fillColor=none;spacingLeft=4;spacingRight=4;overflow=hidden;rotatable=0;points=[[0,0.5],[1,0.5]];portConstraint=eastwest;fontSize=20;whiteSpace=wrap;html=1;fontFamily=Verdana;" vertex="1" parent="H085GItzDeLFplCG79yD-1">
          <mxGeometry x="1560" y="320" width="30" height="40" as="geometry" />
        </mxCell>
        <mxCell id="H085GItzDeLFplCG79yD-23" value="&lt;font style=&quot;font-size: 30px;&quot; face=&quot;Helvetica&quot;&gt;C&lt;/font&gt;" style="text;strokeColor=none;fillColor=none;spacingLeft=4;spacingRight=4;overflow=hidden;rotatable=0;points=[[0,0.5],[1,0.5]];portConstraint=eastwest;fontSize=20;whiteSpace=wrap;html=1;fontFamily=Verdana;" vertex="1" parent="H085GItzDeLFplCG79yD-1">
          <mxGeometry x="1740" y="320" width="30" height="40" as="geometry" />
        </mxCell>
        <mxCell id="H085GItzDeLFplCG79yD-24" value="&lt;div style=&quot;font-size: 30px;&quot;&gt;A-B&lt;/div&gt;" style="text;strokeColor=none;fillColor=none;spacingLeft=4;spacingRight=4;overflow=hidden;rotatable=0;points=[[0,0.5],[1,0.5]];portConstraint=eastwest;fontSize=30;whiteSpace=wrap;html=1;fontFamily=Helvetica;" vertex="1" parent="H085GItzDeLFplCG79yD-1">
          <mxGeometry x="1120" y="560" width="70" height="40" as="geometry" />
        </mxCell>
        <mxCell id="H085GItzDeLFplCG79yD-25" value="&lt;div style=&quot;font-size: 30px;&quot;&gt;A-C&lt;/div&gt;" style="text;strokeColor=none;fillColor=none;spacingLeft=4;spacingRight=4;overflow=hidden;rotatable=0;points=[[0,0.5],[1,0.5]];portConstraint=eastwest;fontSize=30;whiteSpace=wrap;html=1;fontFamily=Helvetica;" vertex="1" parent="H085GItzDeLFplCG79yD-1">
          <mxGeometry x="1330" y="560" width="70" height="40" as="geometry" />
        </mxCell>
        <mxCell id="H085GItzDeLFplCG79yD-26" value="&lt;div style=&quot;font-size: 30px;&quot;&gt;B-A&lt;/div&gt;" style="text;strokeColor=none;fillColor=none;spacingLeft=4;spacingRight=4;overflow=hidden;rotatable=0;points=[[0,0.5],[1,0.5]];portConstraint=eastwest;fontSize=30;whiteSpace=wrap;html=1;fontFamily=Helvetica;" vertex="1" parent="H085GItzDeLFplCG79yD-1">
          <mxGeometry x="1480" y="560" width="70" height="40" as="geometry" />
        </mxCell>
        <mxCell id="H085GItzDeLFplCG79yD-27" value="&lt;div style=&quot;font-size: 30px;&quot;&gt;B-C&lt;/div&gt;" style="text;strokeColor=none;fillColor=none;spacingLeft=4;spacingRight=4;overflow=hidden;rotatable=0;points=[[0,0.5],[1,0.5]];portConstraint=eastwest;fontSize=30;whiteSpace=wrap;html=1;fontFamily=Helvetica;" vertex="1" parent="H085GItzDeLFplCG79yD-1">
          <mxGeometry x="1660" y="560" width="70" height="40" as="geometry" />
        </mxCell>
        <mxCell id="H085GItzDeLFplCG79yD-28" value="C-A" style="text;strokeColor=none;fillColor=none;spacingLeft=4;spacingRight=4;overflow=hidden;rotatable=0;points=[[0,0.5],[1,0.5]];portConstraint=eastwest;fontSize=30;whiteSpace=wrap;html=1;fontFamily=Helvetica;" vertex="1" parent="H085GItzDeLFplCG79yD-1">
          <mxGeometry x="1810" y="560" width="70" height="40" as="geometry" />
        </mxCell>
        <mxCell id="H085GItzDeLFplCG79yD-29" value="C-B" style="text;strokeColor=none;fillColor=none;spacingLeft=4;spacingRight=4;overflow=hidden;rotatable=0;points=[[0,0.5],[1,0.5]];portConstraint=eastwest;fontSize=30;whiteSpace=wrap;html=1;fontFamily=Helvetica;" vertex="1" parent="H085GItzDeLFplCG79yD-1">
          <mxGeometry x="2020" y="560" width="70" height="40" as="geometry" />
        </mxCell>
        <mxCell id="H085GItzDeLFplCG79yD-30" value="&lt;font style=&quot;font-size: 30px;&quot;&gt;&lt;b style=&quot;font-size: 30px;&quot;&gt;μ=?&lt;/b&gt;&lt;/font&gt;" style="ellipse;whiteSpace=wrap;html=1;aspect=fixed;fontSize=30;" vertex="1" parent="H085GItzDeLFplCG79yD-1">
          <mxGeometry x="1560" y="840" width="80" height="80" as="geometry" />
        </mxCell>
        <mxCell id="H085GItzDeLFplCG79yD-31" value="&lt;b&gt;0&lt;/b&gt;" style="ellipse;whiteSpace=wrap;html=1;aspect=fixed;fontSize=30;" vertex="1" parent="H085GItzDeLFplCG79yD-1">
          <mxGeometry x="1560" y="1080" width="80" height="80" as="geometry" />
        </mxCell>
        <mxCell id="H085GItzDeLFplCG79yD-32" value="&lt;b&gt;?&lt;/b&gt;" style="ellipse;whiteSpace=wrap;html=1;aspect=fixed;fontSize=30;" vertex="1" parent="H085GItzDeLFplCG79yD-1">
          <mxGeometry x="1280" y="1080" width="80" height="80" as="geometry" />
        </mxCell>
        <mxCell id="H085GItzDeLFplCG79yD-33" value="&lt;b&gt;1&lt;/b&gt;" style="ellipse;whiteSpace=wrap;html=1;aspect=fixed;fontSize=30;" vertex="1" parent="H085GItzDeLFplCG79yD-1">
          <mxGeometry x="1840" y="1080" width="80" height="80" as="geometry" />
        </mxCell>
        <mxCell id="H085GItzDeLFplCG79yD-34" value="" style="endArrow=none;html=1;rounded=0;" edge="1" parent="H085GItzDeLFplCG79yD-1" source="H085GItzDeLFplCG79yD-30" target="H085GItzDeLFplCG79yD-32">
          <mxGeometry relative="1" as="geometry">
            <mxPoint x="1510" y="1160" as="sourcePoint" />
            <mxPoint x="1670" y="1160" as="targetPoint" />
          </mxGeometry>
        </mxCell>
        <mxCell id="H085GItzDeLFplCG79yD-35" value="&lt;b&gt;1&lt;/b&gt;" style="ellipse;whiteSpace=wrap;html=1;aspect=fixed;fontSize=30;" vertex="1" parent="H085GItzDeLFplCG79yD-1">
          <mxGeometry x="1040" y="1280" width="80" height="80" as="geometry" />
        </mxCell>
        <mxCell id="H085GItzDeLFplCG79yD-36" value="&lt;b&gt;z=0&lt;/b&gt;" style="ellipse;whiteSpace=wrap;html=1;aspect=fixed;fontSize=30;" vertex="1" parent="H085GItzDeLFplCG79yD-1">
          <mxGeometry x="1280" y="1280" width="80" height="80" as="geometry" />
        </mxCell>
        <mxCell id="H085GItzDeLFplCG79yD-37" value="&lt;b&gt;0&lt;/b&gt;" style="ellipse;whiteSpace=wrap;html=1;aspect=fixed;fontSize=30;" vertex="1" parent="H085GItzDeLFplCG79yD-1">
          <mxGeometry x="1660" y="1280" width="80" height="80" as="geometry" />
        </mxCell>
        <mxCell id="H085GItzDeLFplCG79yD-38" value="&lt;b&gt;0&lt;/b&gt;" style="ellipse;whiteSpace=wrap;html=1;aspect=fixed;fontSize=30;" vertex="1" parent="H085GItzDeLFplCG79yD-1">
          <mxGeometry x="1460" y="1280" width="80" height="80" as="geometry" />
        </mxCell>
        <mxCell id="H085GItzDeLFplCG79yD-39" value="&lt;b&gt;x=1&lt;/b&gt;" style="ellipse;whiteSpace=wrap;html=1;aspect=fixed;fontSize=30;" vertex="1" parent="H085GItzDeLFplCG79yD-1">
          <mxGeometry x="1840" y="1280" width="80" height="80" as="geometry" />
        </mxCell>
        <mxCell id="H085GItzDeLFplCG79yD-40" value="&lt;b&gt;x=1&lt;/b&gt;" style="ellipse;whiteSpace=wrap;html=1;aspect=fixed;fontSize=30;" vertex="1" parent="H085GItzDeLFplCG79yD-1">
          <mxGeometry x="2080" y="1280" width="80" height="80" as="geometry" />
        </mxCell>
        <mxCell id="H085GItzDeLFplCG79yD-41" value="" style="endArrow=none;html=1;rounded=0;" edge="1" parent="H085GItzDeLFplCG79yD-1" source="H085GItzDeLFplCG79yD-30" target="H085GItzDeLFplCG79yD-33">
          <mxGeometry relative="1" as="geometry">
            <mxPoint x="1580" y="916" as="sourcePoint" />
            <mxPoint x="1360" y="1104" as="targetPoint" />
          </mxGeometry>
        </mxCell>
        <mxCell id="H085GItzDeLFplCG79yD-42" value="" style="endArrow=none;html=1;rounded=0;" edge="1" parent="H085GItzDeLFplCG79yD-1" source="H085GItzDeLFplCG79yD-30" target="H085GItzDeLFplCG79yD-31">
          <mxGeometry relative="1" as="geometry">
            <mxPoint x="1610" y="990" as="sourcePoint" />
            <mxPoint x="1830" y="1178" as="targetPoint" />
          </mxGeometry>
        </mxCell>
        <mxCell id="H085GItzDeLFplCG79yD-43" value="" style="endArrow=none;html=1;rounded=0;" edge="1" parent="H085GItzDeLFplCG79yD-1" source="H085GItzDeLFplCG79yD-31" target="H085GItzDeLFplCG79yD-37">
          <mxGeometry relative="1" as="geometry">
            <mxPoint x="1750" y="1110" as="sourcePoint" />
            <mxPoint x="1750" y="1270" as="targetPoint" />
          </mxGeometry>
        </mxCell>
        <mxCell id="H085GItzDeLFplCG79yD-44" value="" style="endArrow=none;html=1;rounded=0;" edge="1" parent="H085GItzDeLFplCG79yD-1" source="H085GItzDeLFplCG79yD-31" target="H085GItzDeLFplCG79yD-38">
          <mxGeometry relative="1" as="geometry">
            <mxPoint x="1625" y="1167" as="sourcePoint" />
            <mxPoint x="1675" y="1293" as="targetPoint" />
          </mxGeometry>
        </mxCell>
        <mxCell id="H085GItzDeLFplCG79yD-45" value="" style="endArrow=none;html=1;rounded=0;" edge="1" parent="H085GItzDeLFplCG79yD-1" source="H085GItzDeLFplCG79yD-33" target="H085GItzDeLFplCG79yD-39">
          <mxGeometry relative="1" as="geometry">
            <mxPoint x="1740" y="1154" as="sourcePoint" />
            <mxPoint x="1790" y="1280" as="targetPoint" />
          </mxGeometry>
        </mxCell>
        <mxCell id="H085GItzDeLFplCG79yD-46" value="" style="endArrow=none;html=1;rounded=0;" edge="1" parent="H085GItzDeLFplCG79yD-1" source="H085GItzDeLFplCG79yD-33" target="H085GItzDeLFplCG79yD-40">
          <mxGeometry relative="1" as="geometry">
            <mxPoint x="1882" y="1169" as="sourcePoint" />
            <mxPoint x="1858" y="1291" as="targetPoint" />
          </mxGeometry>
        </mxCell>
        <mxCell id="H085GItzDeLFplCG79yD-47" value="" style="endArrow=none;html=1;rounded=0;" edge="1" parent="H085GItzDeLFplCG79yD-1" source="H085GItzDeLFplCG79yD-32" target="H085GItzDeLFplCG79yD-36">
          <mxGeometry relative="1" as="geometry">
            <mxPoint x="1510" y="1092" as="sourcePoint" />
            <mxPoint x="1290" y="1280" as="targetPoint" />
          </mxGeometry>
        </mxCell>
        <mxCell id="H085GItzDeLFplCG79yD-48" value="" style="endArrow=none;html=1;rounded=0;" edge="1" parent="H085GItzDeLFplCG79yD-1" source="H085GItzDeLFplCG79yD-32" target="H085GItzDeLFplCG79yD-35">
          <mxGeometry relative="1" as="geometry">
            <mxPoint x="1400" y="1350" as="sourcePoint" />
            <mxPoint x="1180" y="1538" as="targetPoint" />
          </mxGeometry>
        </mxCell>
        <mxCell id="H085GItzDeLFplCG79yD-49" value="&lt;font style=&quot;font-size: 30px;&quot; face=&quot;Helvetica&quot;&gt;A&lt;/font&gt;" style="text;strokeColor=none;fillColor=none;spacingLeft=4;spacingRight=4;overflow=hidden;rotatable=0;points=[[0,0.5],[1,0.5]];portConstraint=eastwest;fontSize=20;whiteSpace=wrap;html=1;fontFamily=Verdana;" vertex="1" parent="H085GItzDeLFplCG79yD-1">
          <mxGeometry x="1420" y="960" width="30" height="40" as="geometry" />
        </mxCell>
        <mxCell id="H085GItzDeLFplCG79yD-50" value="&lt;font style=&quot;font-size: 30px;&quot; face=&quot;Helvetica&quot;&gt;B&lt;/font&gt;" style="text;strokeColor=none;fillColor=none;spacingLeft=4;spacingRight=4;overflow=hidden;rotatable=0;points=[[0,0.5],[1,0.5]];portConstraint=eastwest;fontSize=20;whiteSpace=wrap;html=1;fontFamily=Verdana;" vertex="1" parent="H085GItzDeLFplCG79yD-1">
          <mxGeometry x="1560" y="960" width="30" height="40" as="geometry" />
        </mxCell>
        <mxCell id="H085GItzDeLFplCG79yD-51" value="&lt;font style=&quot;font-size: 30px;&quot; face=&quot;Helvetica&quot;&gt;C&lt;/font&gt;" style="text;strokeColor=none;fillColor=none;spacingLeft=4;spacingRight=4;overflow=hidden;rotatable=0;points=[[0,0.5],[1,0.5]];portConstraint=eastwest;fontSize=20;whiteSpace=wrap;html=1;fontFamily=Verdana;" vertex="1" parent="H085GItzDeLFplCG79yD-1">
          <mxGeometry x="1740" y="960" width="30" height="40" as="geometry" />
        </mxCell>
        <mxCell id="H085GItzDeLFplCG79yD-52" value="&lt;div style=&quot;font-size: 30px;&quot;&gt;A-B&lt;/div&gt;" style="text;strokeColor=none;fillColor=none;spacingLeft=4;spacingRight=4;overflow=hidden;rotatable=0;points=[[0,0.5],[1,0.5]];portConstraint=eastwest;fontSize=30;whiteSpace=wrap;html=1;fontFamily=Helvetica;" vertex="1" parent="H085GItzDeLFplCG79yD-1">
          <mxGeometry x="1120" y="1200" width="70" height="40" as="geometry" />
        </mxCell>
        <mxCell id="H085GItzDeLFplCG79yD-53" value="&lt;div style=&quot;font-size: 30px;&quot;&gt;A-C&lt;/div&gt;" style="text;strokeColor=none;fillColor=none;spacingLeft=4;spacingRight=4;overflow=hidden;rotatable=0;points=[[0,0.5],[1,0.5]];portConstraint=eastwest;fontSize=30;whiteSpace=wrap;html=1;fontFamily=Helvetica;" vertex="1" parent="H085GItzDeLFplCG79yD-1">
          <mxGeometry x="1330" y="1200" width="70" height="40" as="geometry" />
        </mxCell>
        <mxCell id="H085GItzDeLFplCG79yD-54" value="&lt;div style=&quot;font-size: 30px;&quot;&gt;B-A&lt;/div&gt;" style="text;strokeColor=none;fillColor=none;spacingLeft=4;spacingRight=4;overflow=hidden;rotatable=0;points=[[0,0.5],[1,0.5]];portConstraint=eastwest;fontSize=30;whiteSpace=wrap;html=1;fontFamily=Helvetica;" vertex="1" parent="H085GItzDeLFplCG79yD-1">
          <mxGeometry x="1480" y="1200" width="70" height="40" as="geometry" />
        </mxCell>
        <mxCell id="H085GItzDeLFplCG79yD-55" value="&lt;div style=&quot;font-size: 30px;&quot;&gt;B-C&lt;/div&gt;" style="text;strokeColor=none;fillColor=none;spacingLeft=4;spacingRight=4;overflow=hidden;rotatable=0;points=[[0,0.5],[1,0.5]];portConstraint=eastwest;fontSize=30;whiteSpace=wrap;html=1;fontFamily=Helvetica;" vertex="1" parent="H085GItzDeLFplCG79yD-1">
          <mxGeometry x="1660" y="1200" width="70" height="40" as="geometry" />
        </mxCell>
        <mxCell id="H085GItzDeLFplCG79yD-56" value="C-A" style="text;strokeColor=none;fillColor=none;spacingLeft=4;spacingRight=4;overflow=hidden;rotatable=0;points=[[0,0.5],[1,0.5]];portConstraint=eastwest;fontSize=30;whiteSpace=wrap;html=1;fontFamily=Helvetica;" vertex="1" parent="H085GItzDeLFplCG79yD-1">
          <mxGeometry x="1810" y="1200" width="70" height="40" as="geometry" />
        </mxCell>
        <mxCell id="H085GItzDeLFplCG79yD-57" value="C-B" style="text;strokeColor=none;fillColor=none;spacingLeft=4;spacingRight=4;overflow=hidden;rotatable=0;points=[[0,0.5],[1,0.5]];portConstraint=eastwest;fontSize=30;whiteSpace=wrap;html=1;fontFamily=Helvetica;" vertex="1" parent="H085GItzDeLFplCG79yD-1">
          <mxGeometry x="2020" y="1200" width="70" height="40" as="geometry" />
        </mxCell>
        <mxCell id="H085GItzDeLFplCG79yD-58" value="Albero di A" style="rounded=1;whiteSpace=wrap;html=1;fontSize=20;" vertex="1" parent="H085GItzDeLFplCG79yD-1">
          <mxGeometry x="1400" y="160" width="120" height="80" as="geometry" />
        </mxCell>
        <mxCell id="H085GItzDeLFplCG79yD-59" value="Albero di B" style="rounded=1;whiteSpace=wrap;html=1;fontSize=20;" vertex="1" parent="H085GItzDeLFplCG79yD-1">
          <mxGeometry x="1400" y="800" width="120" height="80" as="geometry" />
        </mxCell>
      </root>
    </mxGraphModel>
  </diagram>
</mxfile>
